%TF.GenerationSoftware,KiCad,Pcbnew,9.0.0*%
%TF.CreationDate,2025-06-18T22:57:56-03:00*%
%TF.ProjectId,buck_realimentada2,6275636b-5f72-4656-916c-696d656e7461,rev?*%
%TF.SameCoordinates,Original*%
%TF.FileFunction,Copper,L2,Bot*%
%TF.FilePolarity,Positive*%
%FSLAX46Y46*%
G04 Gerber Fmt 4.6, Leading zero omitted, Abs format (unit mm)*
G04 Created by KiCad (PCBNEW 9.0.0) date 2025-06-18 22:57:56*
%MOMM*%
%LPD*%
G01*
G04 APERTURE LIST*
G04 Aperture macros list*
%AMRoundRect*
0 Rectangle with rounded corners*
0 $1 Rounding radius*
0 $2 $3 $4 $5 $6 $7 $8 $9 X,Y pos of 4 corners*
0 Add a 4 corners polygon primitive as box body*
4,1,4,$2,$3,$4,$5,$6,$7,$8,$9,$2,$3,0*
0 Add four circle primitives for the rounded corners*
1,1,$1+$1,$2,$3*
1,1,$1+$1,$4,$5*
1,1,$1+$1,$6,$7*
1,1,$1+$1,$8,$9*
0 Add four rect primitives between the rounded corners*
20,1,$1+$1,$2,$3,$4,$5,0*
20,1,$1+$1,$4,$5,$6,$7,0*
20,1,$1+$1,$6,$7,$8,$9,0*
20,1,$1+$1,$8,$9,$2,$3,0*%
G04 Aperture macros list end*
%TA.AperFunction,ComponentPad*%
%ADD10R,1.905000X2.000000*%
%TD*%
%TA.AperFunction,ComponentPad*%
%ADD11O,1.905000X2.000000*%
%TD*%
%TA.AperFunction,ComponentPad*%
%ADD12R,2.000000X2.000000*%
%TD*%
%TA.AperFunction,ComponentPad*%
%ADD13C,2.000000*%
%TD*%
%TA.AperFunction,ComponentPad*%
%ADD14C,1.600000*%
%TD*%
%TA.AperFunction,ComponentPad*%
%ADD15C,1.400000*%
%TD*%
%TA.AperFunction,ComponentPad*%
%ADD16O,1.400000X1.400000*%
%TD*%
%TA.AperFunction,ComponentPad*%
%ADD17R,1.700000X1.700000*%
%TD*%
%TA.AperFunction,ComponentPad*%
%ADD18R,1.500000X1.500000*%
%TD*%
%TA.AperFunction,ComponentPad*%
%ADD19C,1.500000*%
%TD*%
%TA.AperFunction,ComponentPad*%
%ADD20RoundRect,0.250000X-1.050000X1.050000X-1.050000X-1.050000X1.050000X-1.050000X1.050000X1.050000X0*%
%TD*%
%TA.AperFunction,ComponentPad*%
%ADD21C,2.600000*%
%TD*%
%TA.AperFunction,ComponentPad*%
%ADD22R,2.200000X2.200000*%
%TD*%
%TA.AperFunction,ComponentPad*%
%ADD23O,2.200000X2.200000*%
%TD*%
%TA.AperFunction,ComponentPad*%
%ADD24R,1.200000X1.200000*%
%TD*%
%TA.AperFunction,ComponentPad*%
%ADD25C,1.200000*%
%TD*%
%TA.AperFunction,ComponentPad*%
%ADD26C,1.440000*%
%TD*%
%TA.AperFunction,ComponentPad*%
%ADD27RoundRect,0.250000X1.050000X-1.050000X1.050000X1.050000X-1.050000X1.050000X-1.050000X-1.050000X0*%
%TD*%
%TA.AperFunction,ComponentPad*%
%ADD28C,2.540000*%
%TD*%
%TA.AperFunction,ComponentPad*%
%ADD29RoundRect,0.250000X0.550000X0.550000X-0.550000X0.550000X-0.550000X-0.550000X0.550000X-0.550000X0*%
%TD*%
%TA.AperFunction,ComponentPad*%
%ADD30RoundRect,0.250000X-0.550000X-0.550000X0.550000X-0.550000X0.550000X0.550000X-0.550000X0.550000X0*%
%TD*%
%TA.AperFunction,ComponentPad*%
%ADD31R,2.000000X1.905000*%
%TD*%
%TA.AperFunction,ComponentPad*%
%ADD32O,2.000000X1.905000*%
%TD*%
%TA.AperFunction,Conductor*%
%ADD33C,1.000000*%
%TD*%
%TA.AperFunction,Conductor*%
%ADD34C,0.200000*%
%TD*%
G04 APERTURE END LIST*
D10*
%TO.P,M4,1,G*%
%TO.N,Vg1*%
X159520000Y-83600000D03*
D11*
%TO.P,M4,2,D*%
%TO.N,Vin*%
X162060000Y-83600000D03*
%TO.P,M4,3,S*%
%TO.N,Vd*%
X164600000Y-83600000D03*
%TD*%
D12*
%TO.P,C2,1*%
%TO.N,Vin*%
X155000000Y-68467677D03*
D13*
%TO.P,C2,2*%
%TO.N,GND*%
X160000000Y-68467677D03*
%TD*%
D14*
%TO.P,C12,1*%
%TO.N,pwm*%
X126000000Y-105500000D03*
%TO.P,C12,2*%
%TO.N,GND*%
X126000000Y-110500000D03*
%TD*%
%TO.P,C1,1*%
%TO.N,Vout*%
X157220601Y-119882332D03*
%TO.P,C1,2*%
%TO.N,GND*%
X152220601Y-119882332D03*
%TD*%
D15*
%TO.P,R10,1*%
%TO.N,GND*%
X169000000Y-138300000D03*
D16*
%TO.P,R10,2*%
%TO.N,sampling*%
X169000000Y-133220000D03*
%TD*%
D10*
%TO.P,U4,1,ADJ*%
%TO.N,Net-(U4-ADJ)*%
X119940000Y-69680000D03*
D11*
%TO.P,U4,2,VO*%
%TO.N,VCCPWM*%
X122480000Y-69680000D03*
%TO.P,U4,3,VI*%
%TO.N,Vin*%
X125020000Y-69680000D03*
%TD*%
D17*
%TO.P,J13,1,Pin_1*%
%TO.N,Vg2*%
X164800000Y-111300000D03*
%TD*%
D14*
%TO.P,C8,1*%
%TO.N,cuadrada*%
X105100000Y-99300000D03*
%TO.P,C8,2*%
%TO.N,GND*%
X105100000Y-104300000D03*
%TD*%
D17*
%TO.P,J10,1,Pin_1*%
%TO.N,VCCPWM*%
X152804104Y-77707727D03*
%TD*%
D18*
%TO.P,U5,1,REF*%
%TO.N,Vref*%
X129630563Y-120882761D03*
D19*
%TO.P,U5,2,A*%
%TO.N,GND*%
X127090563Y-120882761D03*
%TO.P,U5,3,K*%
%TO.N,Vref*%
X124550563Y-120882761D03*
%TD*%
D14*
%TO.P,C7,1*%
%TO.N,Net-(U7A-+)*%
X152100000Y-129200000D03*
%TO.P,C7,2*%
%TO.N,Net-(C7-Pad2)*%
X152100000Y-134200000D03*
%TD*%
D20*
%TO.P,J1,1,Pin_1*%
%TO.N,GND*%
X105407500Y-70355000D03*
D21*
%TO.P,J1,2,Pin_2*%
%TO.N,Vin*%
X105407500Y-75435000D03*
%TD*%
D17*
%TO.P,J12,1,Pin_1*%
%TO.N,Vg1*%
X163390698Y-91229148D03*
%TD*%
D15*
%TO.P,R12,1*%
%TO.N,pwm*%
X126020000Y-102200000D03*
D16*
%TO.P,R12,2*%
%TO.N,VCCPWM*%
X131100000Y-102200000D03*
%TD*%
D14*
%TO.P,C13,1*%
%TO.N,VCCPWM*%
X125990000Y-76040000D03*
%TO.P,C13,2*%
%TO.N,GND*%
X120990000Y-76040000D03*
%TD*%
D22*
%TO.P,D1,1,K*%
%TO.N,Net-(D1-K)*%
X140320000Y-105300000D03*
D23*
%TO.P,D1,2,A*%
%TO.N,VCCPWM*%
X150480000Y-105300000D03*
%TD*%
D24*
%TO.P,C5,1*%
%TO.N,Vin*%
X139700000Y-68472599D03*
D25*
%TO.P,C5,2*%
%TO.N,GND*%
X141700000Y-68472599D03*
%TD*%
D26*
%TO.P,R13,1*%
%TO.N,GND*%
X140180000Y-81400000D03*
%TO.P,R13,2*%
%TO.N,Net-(U4-ADJ)*%
X137640000Y-81400000D03*
%TO.P,R13,3*%
%TO.N,N/C*%
X135100000Y-81400000D03*
%TD*%
D14*
%TO.P,C10,1*%
%TO.N,error*%
X148100000Y-134400000D03*
%TO.P,C10,2*%
%TO.N,Net-(U7A-+)*%
X148100000Y-129400000D03*
%TD*%
D15*
%TO.P,R8,1*%
%TO.N,Net-(U2A-+)*%
X109490000Y-111100000D03*
D16*
%TO.P,R8,2*%
%TO.N,Triangular*%
X117110000Y-111100000D03*
%TD*%
D15*
%TO.P,R2,1*%
%TO.N,HO*%
X143720000Y-112700000D03*
D16*
%TO.P,R2,2*%
%TO.N,Vg1*%
X148800000Y-112700000D03*
%TD*%
D17*
%TO.P,J11,1,Pin_1*%
%TO.N,Vref*%
X137126038Y-137549204D03*
%TD*%
D15*
%TO.P,R1,1*%
%TO.N,Net-(U6A--)*%
X143700000Y-88560000D03*
D16*
%TO.P,R1,2*%
%TO.N,GND*%
X143700000Y-93640000D03*
%TD*%
D14*
%TO.P,C6,1*%
%TO.N,Net-(U6B-+)*%
X123700000Y-85300000D03*
%TO.P,C6,2*%
%TO.N,Triangular*%
X123700000Y-90300000D03*
%TD*%
D27*
%TO.P,J2,1,Pin_1*%
%TO.N,GND*%
X186272500Y-130645000D03*
D21*
%TO.P,J2,2,Pin_2*%
%TO.N,Vout*%
X186272500Y-125565000D03*
%TD*%
D15*
%TO.P,R3,1*%
%TO.N,LO*%
X143660000Y-117900000D03*
D16*
%TO.P,R3,2*%
%TO.N,Vg2*%
X148740000Y-117900000D03*
%TD*%
D15*
%TO.P,R4,1*%
%TO.N,cuadrada*%
X114500000Y-90380000D03*
D16*
%TO.P,R4,2*%
%TO.N,Net-(U6B-+)*%
X114500000Y-85300000D03*
%TD*%
D14*
%TO.P,C4,1*%
%TO.N,Net-(D1-K)*%
X136700000Y-105400000D03*
%TO.P,C4,2*%
%TO.N,Net-(U1-VS)*%
X131700000Y-105400000D03*
%TD*%
D28*
%TO.P,L1,1,1*%
%TO.N,Vd*%
X177200000Y-83600000D03*
%TO.P,L1,2,2*%
%TO.N,Vout*%
X177200000Y-119600000D03*
%TD*%
D29*
%TO.P,U7,1*%
%TO.N,error*%
X138425000Y-133350000D03*
D14*
%TO.P,U7,2,-*%
%TO.N,Vref*%
X138425000Y-130810000D03*
%TO.P,U7,3,+*%
%TO.N,Net-(U7A-+)*%
X138425000Y-128270000D03*
%TO.P,U7,4,V-*%
%TO.N,GND*%
X138425000Y-125730000D03*
%TO.P,U7,5,+*%
X130805000Y-125730000D03*
%TO.P,U7,6,-*%
%TO.N,Net-(U7B--)*%
X130805000Y-128270000D03*
%TO.P,U7,7*%
X130805000Y-130810000D03*
%TO.P,U7,8,V+*%
%TO.N,VCCPWM*%
X130805000Y-133350000D03*
%TD*%
D15*
%TO.P,R6,1*%
%TO.N,VCCPWM*%
X148000000Y-96110000D03*
D16*
%TO.P,R6,2*%
%TO.N,Net-(U6A--)*%
X148000000Y-88490000D03*
%TD*%
D15*
%TO.P,R14,1*%
%TO.N,Vref*%
X124600000Y-129600000D03*
D16*
%TO.P,R14,2*%
%TO.N,Vin*%
X116980000Y-129600000D03*
%TD*%
D17*
%TO.P,J3,1,Pin_1*%
%TO.N,GND*%
X104900000Y-137500000D03*
%TD*%
D29*
%TO.P,U6,1*%
%TO.N,Net-(U2A--)*%
X138800000Y-96100000D03*
D14*
%TO.P,U6,2,-*%
%TO.N,Net-(U6A--)*%
X138800000Y-93560000D03*
%TO.P,U6,3,+*%
%TO.N,Net-(U2A--)*%
X138800000Y-91020000D03*
%TO.P,U6,4,V-*%
%TO.N,GND*%
X138800000Y-88480000D03*
%TO.P,U6,5,+*%
%TO.N,Net-(U6B-+)*%
X131180000Y-88480000D03*
%TO.P,U6,6,-*%
%TO.N,Net-(U2A--)*%
X131180000Y-91020000D03*
%TO.P,U6,7*%
%TO.N,Triangular*%
X131180000Y-93560000D03*
%TO.P,U6,8,V+*%
%TO.N,VCCPWM*%
X131180000Y-96100000D03*
%TD*%
%TO.P,C3,1*%
%TO.N,Vout*%
X157320601Y-124182332D03*
%TO.P,C3,2*%
%TO.N,GND*%
X152320601Y-124182332D03*
%TD*%
D30*
%TO.P,U1,1,VCC*%
%TO.N,VCCPWM*%
X132295000Y-110190000D03*
D14*
%TO.P,U1,2,IN*%
%TO.N,pwm*%
X132295000Y-112730000D03*
%TO.P,U1,3,~{SD}*%
%TO.N,VCCPWM*%
X132295000Y-115270000D03*
%TO.P,U1,4,COM*%
%TO.N,GND*%
X132295000Y-117810000D03*
%TO.P,U1,5,LO*%
%TO.N,LO*%
X139915000Y-117810000D03*
%TO.P,U1,6,VS*%
%TO.N,Net-(U1-VS)*%
X139915000Y-115270000D03*
%TO.P,U1,7,HO*%
%TO.N,HO*%
X139915000Y-112730000D03*
%TO.P,U1,8,VB*%
%TO.N,Net-(D1-K)*%
X139915000Y-110190000D03*
%TD*%
D15*
%TO.P,R9,1*%
%TO.N,sampling*%
X177200000Y-133210000D03*
D16*
%TO.P,R9,2*%
%TO.N,Vout*%
X177200000Y-125590000D03*
%TD*%
D17*
%TO.P,J5,1,Pin_1*%
%TO.N,pwm*%
X125600000Y-114900000D03*
%TD*%
%TO.P,J14,1,Pin_1*%
%TO.N,cuadrada*%
X107000000Y-93000000D03*
%TD*%
D15*
%TO.P,R5,1*%
%TO.N,Net-(U4-ADJ)*%
X130100000Y-81240000D03*
D16*
%TO.P,R5,2*%
%TO.N,VCCPWM*%
X130100000Y-76160000D03*
%TD*%
D15*
%TO.P,R15,1*%
%TO.N,Net-(U7A-+)*%
X155020000Y-129200000D03*
D16*
%TO.P,R15,2*%
%TO.N,sampling*%
X160100000Y-129200000D03*
%TD*%
D14*
%TO.P,C9,1*%
%TO.N,error*%
X143000000Y-134400000D03*
%TO.P,C9,2*%
%TO.N,Net-(C9-Pad2)*%
X143000000Y-129400000D03*
%TD*%
D17*
%TO.P,J6,1,Pin_1*%
%TO.N,Triangular*%
X117100000Y-116300000D03*
%TD*%
D30*
%TO.P,U2,1*%
%TO.N,cuadrada*%
X114695000Y-99590000D03*
D14*
%TO.P,U2,2,-*%
%TO.N,Net-(U2A--)*%
X114695000Y-102130000D03*
%TO.P,U2,3,+*%
%TO.N,Net-(U2A-+)*%
X114695000Y-104670000D03*
%TO.P,U2,4,V-*%
%TO.N,GND*%
X114695000Y-107210000D03*
%TO.P,U2,5,+*%
%TO.N,error*%
X122315000Y-107210000D03*
%TO.P,U2,6,-*%
%TO.N,Triangular*%
X122315000Y-104670000D03*
%TO.P,U2,7*%
%TO.N,pwm*%
X122315000Y-102130000D03*
%TO.P,U2,8,V+*%
%TO.N,VCCPWM*%
X122315000Y-99590000D03*
%TD*%
D17*
%TO.P,J4,1,Pin_1*%
%TO.N,error*%
X147320000Y-139700000D03*
%TD*%
D15*
%TO.P,R16,1*%
%TO.N,Net-(C7-Pad2)*%
X160239398Y-138620328D03*
D16*
%TO.P,R16,2*%
%TO.N,sampling*%
X160239398Y-133540328D03*
%TD*%
D15*
%TO.P,R7,1*%
%TO.N,Net-(U2A-+)*%
X109600000Y-104640000D03*
D16*
%TO.P,R7,2*%
%TO.N,cuadrada*%
X109600000Y-99560000D03*
%TD*%
D15*
%TO.P,R17,1*%
%TO.N,Net-(C9-Pad2)*%
X143020000Y-126000000D03*
D16*
%TO.P,R17,2*%
%TO.N,Net-(U7A-+)*%
X148100000Y-126000000D03*
%TD*%
D17*
%TO.P,J15,1,Pin_1*%
%TO.N,sampling*%
X177000000Y-139500000D03*
%TD*%
D31*
%TO.P,M3,1,G*%
%TO.N,Vg2*%
X164700000Y-101800000D03*
D32*
%TO.P,M3,2,D*%
%TO.N,Vd*%
X164700000Y-99260000D03*
%TO.P,M3,3,S*%
%TO.N,GND*%
X164700000Y-96720000D03*
%TD*%
D15*
%TO.P,R11,1*%
%TO.N,cuadrada*%
X114600000Y-94400000D03*
D16*
%TO.P,R11,2*%
%TO.N,VCCPWM*%
X122220000Y-94400000D03*
%TD*%
D26*
%TO.P,Rc1,1*%
%TO.N,GND*%
X165100000Y-127000000D03*
%TO.P,Rc1,2*%
%TO.N,Vout*%
X165100000Y-124460000D03*
%TO.P,Rc1,3*%
%TO.N,N/C*%
X165100000Y-121920000D03*
%TD*%
D33*
%TO.N,Vin*%
X155000000Y-68467677D02*
X155000000Y-72900000D01*
X155000000Y-72900000D02*
X154180000Y-73720000D01*
X102027401Y-114592599D02*
X102027401Y-90700000D01*
X139700000Y-73720000D02*
X139700000Y-68472599D01*
X140340000Y-73720000D02*
X154180000Y-73720000D01*
X105407500Y-82292500D02*
X105407500Y-75435000D01*
X102000000Y-114620000D02*
X116980000Y-129600000D01*
X140340000Y-73720000D02*
X129060000Y-73720000D01*
X154995078Y-68472599D02*
X155000000Y-68467677D01*
X125020000Y-67870000D02*
X123190000Y-66040000D01*
X102000000Y-85700000D02*
X105407500Y-82292500D01*
X162060000Y-81600000D02*
X162060000Y-83600000D01*
X102027401Y-85727401D02*
X102000000Y-85700000D01*
X102027401Y-90700000D02*
X102027401Y-85727401D01*
X116840000Y-66040000D02*
X123190000Y-66040000D01*
X102000000Y-114620000D02*
X102027401Y-114592599D01*
X154180000Y-73720000D02*
X162060000Y-81600000D01*
X125020000Y-69680000D02*
X125020000Y-67870000D01*
X105407500Y-75435000D02*
X107445000Y-75435000D01*
X129060000Y-73720000D02*
X125020000Y-69680000D01*
X139700000Y-73720000D02*
X140340000Y-73720000D01*
X107445000Y-75435000D02*
X116840000Y-66040000D01*
%TO.N,Vg1*%
X159520000Y-90280000D02*
X159520000Y-83600000D01*
X159190000Y-90610000D02*
X159809148Y-91229148D01*
X148800000Y-111100000D02*
X148800000Y-112700000D01*
X155700000Y-104200000D02*
X148800000Y-111100000D01*
X155700000Y-104200000D02*
X155700000Y-94100000D01*
X159190000Y-90610000D02*
X159520000Y-90280000D01*
X155700000Y-94100000D02*
X159190000Y-90610000D01*
X159809148Y-91229148D02*
X163390698Y-91229148D01*
%TO.N,HO*%
X139945000Y-112700000D02*
X139915000Y-112730000D01*
X143720000Y-112700000D02*
X139945000Y-112700000D01*
%TO.N,Vout*%
X186272500Y-125565000D02*
X177225000Y-125565000D01*
X177090000Y-125590000D02*
X177200000Y-125590000D01*
X175700000Y-124200000D02*
X177090000Y-125590000D01*
X157320601Y-119982332D02*
X157220601Y-119882332D01*
X160240000Y-124200000D02*
X175700000Y-124200000D01*
X177225000Y-125565000D02*
X177200000Y-125590000D01*
X157320601Y-124182332D02*
X160222332Y-124182332D01*
X160222332Y-124182332D02*
X160240000Y-124200000D01*
X157320601Y-124182332D02*
X157320601Y-119982332D01*
X177200000Y-119600000D02*
X177200000Y-125590000D01*
%TO.N,Net-(C9-Pad2)*%
X143000000Y-129400000D02*
X143000000Y-126020000D01*
X143000000Y-126020000D02*
X143020000Y-126000000D01*
D34*
%TO.N,sampling*%
X160239398Y-133540328D02*
X160100000Y-133400930D01*
D33*
X177000000Y-133410000D02*
X177200000Y-133210000D01*
X169000000Y-133220000D02*
X164120000Y-133220000D01*
X164120000Y-133220000D02*
X160100000Y-129200000D01*
X177000000Y-139500000D02*
X177000000Y-133410000D01*
X169010000Y-133210000D02*
X169000000Y-133220000D01*
X160100000Y-133400930D02*
X160100000Y-129200000D01*
X177200000Y-133210000D02*
X169010000Y-133210000D01*
%TO.N,Net-(C7-Pad2)*%
X154100000Y-138000000D02*
X154414678Y-138314678D01*
X152100000Y-136000000D02*
X154100000Y-138000000D01*
X152100000Y-134200000D02*
X152100000Y-136000000D01*
X154100000Y-138000000D02*
X154720328Y-138620328D01*
X154720328Y-138620328D02*
X160239398Y-138620328D01*
%TO.N,VCCPWM*%
X135601099Y-128553901D02*
X135601099Y-115001099D01*
X125990000Y-76040000D02*
X122480000Y-72530000D01*
X143600000Y-99600000D02*
X144510000Y-99600000D01*
X148000000Y-96110000D02*
X153600000Y-90510000D01*
X122315000Y-99590000D02*
X122315000Y-97705000D01*
X134900000Y-111200000D02*
X133890000Y-110190000D01*
X128800000Y-105700000D02*
X128800000Y-103500000D01*
X122315000Y-99590000D02*
X122315000Y-94495000D01*
X122220000Y-99495000D02*
X122315000Y-99590000D01*
X130805000Y-133350000D02*
X135601099Y-128553901D01*
X133890000Y-110190000D02*
X132295000Y-110190000D01*
X132295000Y-115270000D02*
X133930000Y-115270000D01*
X153600000Y-85800000D02*
X145660000Y-77860000D01*
X150480000Y-102180000D02*
X147900000Y-99600000D01*
X122315000Y-94495000D02*
X122220000Y-94400000D01*
X128800000Y-103500000D02*
X128700000Y-103400000D01*
X122480000Y-72530000D02*
X122480000Y-69680000D01*
X145660000Y-77860000D02*
X143960000Y-76160000D01*
X128700000Y-103400000D02*
X129900000Y-102200000D01*
X134900000Y-114300000D02*
X134900000Y-111200000D01*
X147900000Y-99600000D02*
X143600000Y-99600000D01*
X134680000Y-99600000D02*
X134800000Y-99600000D01*
X145660000Y-77860000D02*
X145812273Y-77707727D01*
X131100000Y-102200000D02*
X133700000Y-99600000D01*
X131180000Y-96100000D02*
X134680000Y-99600000D01*
X122315000Y-97705000D02*
X123920000Y-96100000D01*
X134680000Y-99600000D02*
X143600000Y-99600000D01*
X133700000Y-99600000D02*
X134800000Y-99600000D01*
X144510000Y-99600000D02*
X148000000Y-96110000D01*
X133930000Y-115270000D02*
X134900000Y-114300000D01*
X130100000Y-76160000D02*
X126110000Y-76160000D01*
X123920000Y-96100000D02*
X131180000Y-96100000D01*
X153600000Y-90510000D02*
X153600000Y-85800000D01*
X130100000Y-76160000D02*
X143960000Y-76160000D01*
X129900000Y-102200000D02*
X131100000Y-102200000D01*
X150480000Y-105300000D02*
X150480000Y-102180000D01*
X126110000Y-76160000D02*
X125990000Y-76040000D01*
X145812273Y-77707727D02*
X152804104Y-77707727D01*
X135601099Y-115001099D02*
X134900000Y-114300000D01*
%TO.N,pwm*%
X126020000Y-102200000D02*
X122385000Y-102200000D01*
X125600000Y-114900000D02*
X127500000Y-114900000D01*
X126000000Y-102220000D02*
X126020000Y-102200000D01*
X126000000Y-106542466D02*
X126000000Y-105500000D01*
X126020000Y-102200000D02*
X126020000Y-105480000D01*
X129670000Y-112730000D02*
X129670000Y-110212466D01*
X126020000Y-105480000D02*
X126000000Y-105500000D01*
X132295000Y-112730000D02*
X131630000Y-112730000D01*
X127500000Y-114900000D02*
X129670000Y-112730000D01*
X129670000Y-110212466D02*
X126000000Y-106542466D01*
X129670000Y-112730000D02*
X132295000Y-112730000D01*
X122385000Y-102200000D02*
X122315000Y-102130000D01*
%TO.N,cuadrada*%
X114600000Y-90480000D02*
X114500000Y-90380000D01*
X109490000Y-99770000D02*
X109100000Y-99380000D01*
X114500000Y-94300000D02*
X114600000Y-94400000D01*
X105100000Y-94900000D02*
X107000000Y-93000000D01*
X114695000Y-99590000D02*
X114390000Y-99590000D01*
X114695000Y-99590000D02*
X114695000Y-94495000D01*
X114600000Y-94400000D02*
X114600000Y-90480000D01*
X109600000Y-99560000D02*
X114665000Y-99560000D01*
X114665000Y-99560000D02*
X114695000Y-99590000D01*
X109600000Y-99560000D02*
X105360000Y-99560000D01*
X105360000Y-99560000D02*
X105100000Y-99300000D01*
X105100000Y-99300000D02*
X105100000Y-94900000D01*
X114695000Y-94495000D02*
X114600000Y-94400000D01*
%TO.N,Net-(U2A-+)*%
X114695000Y-104670000D02*
X109630000Y-104670000D01*
X109490000Y-111100000D02*
X109490000Y-104750000D01*
X109630000Y-104670000D02*
X109600000Y-104640000D01*
X109490000Y-104750000D02*
X109600000Y-104640000D01*
%TO.N,Triangular*%
X121170000Y-104670000D02*
X119400000Y-102900000D01*
X131180000Y-93560000D02*
X126960000Y-93560000D01*
X123500000Y-90300000D02*
X123700000Y-90300000D01*
X117100000Y-116300000D02*
X117100000Y-111110000D01*
X126960000Y-93560000D02*
X123700000Y-90300000D01*
X117100000Y-111110000D02*
X117110000Y-111100000D01*
X119400000Y-94600000D02*
X123700000Y-90300000D01*
X122315000Y-104670000D02*
X121170000Y-104670000D01*
X117110000Y-111100000D02*
X117110000Y-108730000D01*
X119400000Y-102900000D02*
X119400000Y-94600000D01*
X117110000Y-108730000D02*
X121170000Y-104670000D01*
%TO.N,LO*%
X140005000Y-117900000D02*
X139915000Y-117810000D01*
X143660000Y-117900000D02*
X140005000Y-117900000D01*
%TO.N,Vg2*%
X148740000Y-117900000D02*
X158340000Y-108300000D01*
X164800000Y-101900000D02*
X164700000Y-101800000D01*
X158340000Y-108300000D02*
X162500000Y-108300000D01*
X162500000Y-108300000D02*
X164700000Y-106100000D01*
X164800000Y-111300000D02*
X164800000Y-101900000D01*
X164900000Y-111300000D02*
X164700000Y-111100000D01*
X164700000Y-106100000D02*
X164700000Y-101800000D01*
%TO.N,Net-(U1-VS)*%
X138370000Y-115270000D02*
X139915000Y-115270000D01*
X137200000Y-110900000D02*
X137200000Y-114100000D01*
X131700000Y-105400000D02*
X137200000Y-110900000D01*
X137200000Y-114100000D02*
X138370000Y-115270000D01*
%TO.N,Net-(D1-K)*%
X139915000Y-105705000D02*
X140320000Y-105300000D01*
X136800000Y-105300000D02*
X136700000Y-105400000D01*
X140320000Y-105300000D02*
X136800000Y-105300000D01*
X139915000Y-110190000D02*
X139915000Y-105705000D01*
%TO.N,error*%
X147320000Y-134400000D02*
X147320000Y-139700000D01*
X147320000Y-134400000D02*
X148100000Y-134400000D01*
X127000000Y-142240000D02*
X138810000Y-142240000D01*
X138810000Y-142240000D02*
X143000000Y-138050000D01*
X143000000Y-138050000D02*
X143000000Y-134400000D01*
X122315000Y-111485000D02*
X120453590Y-113346410D01*
X143000000Y-134400000D02*
X147320000Y-134400000D01*
X122315000Y-107210000D02*
X122315000Y-111485000D01*
X143000000Y-134400000D02*
X139475000Y-134400000D01*
X120453590Y-113346410D02*
X120453590Y-135693590D01*
X139475000Y-134400000D02*
X138425000Y-133350000D01*
X120453590Y-135693590D02*
X127000000Y-142240000D01*
%TO.N,Net-(U2A--)*%
X127020000Y-91020000D02*
X124300000Y-88300000D01*
X120300000Y-88300000D02*
X117300000Y-91300000D01*
X138800000Y-96100000D02*
X136700000Y-96100000D01*
X136700000Y-96100000D02*
X135200000Y-94600000D01*
X124300000Y-88300000D02*
X120300000Y-88300000D01*
X131180000Y-91020000D02*
X127020000Y-91020000D01*
X117300000Y-100400000D02*
X115570000Y-102130000D01*
X115570000Y-102130000D02*
X114695000Y-102130000D01*
X131180000Y-91020000D02*
X135200000Y-91020000D01*
X135200000Y-91020000D02*
X138800000Y-91020000D01*
X117300000Y-91300000D02*
X117300000Y-100400000D01*
X135200000Y-94600000D02*
X135200000Y-91020000D01*
%TO.N,Vref*%
X133350000Y-135890000D02*
X138425000Y-130815000D01*
X124600000Y-123190000D02*
X124600000Y-123330000D01*
X129630563Y-121829437D02*
X129630563Y-120882761D01*
X135009204Y-137549204D02*
X137126038Y-137549204D01*
X124600000Y-133456770D02*
X128303230Y-137160000D01*
X124600000Y-124460000D02*
X124600000Y-123190000D01*
X125730000Y-124460000D02*
X127000000Y-124460000D01*
X124600000Y-129600000D02*
X124600000Y-124460000D01*
X124600000Y-123330000D02*
X125730000Y-124460000D01*
X138425000Y-130815000D02*
X138425000Y-130810000D01*
X124600000Y-129600000D02*
X124600000Y-133456770D01*
X127000000Y-124460000D02*
X129630563Y-121829437D01*
X132080000Y-137160000D02*
X133350000Y-135890000D01*
X133350000Y-135890000D02*
X135009204Y-137549204D01*
X124600000Y-123190000D02*
X124600000Y-121333753D01*
X128303230Y-137160000D02*
X132080000Y-137160000D01*
%TO.N,Vd*%
X168100000Y-89600000D02*
X168100000Y-97600000D01*
X177200000Y-83600000D02*
X164600000Y-83600000D01*
X164600000Y-86100000D02*
X168100000Y-89600000D01*
X164600000Y-83600000D02*
X164600000Y-86100000D01*
X168100000Y-97600000D02*
X166440000Y-99260000D01*
X166440000Y-99260000D02*
X164700000Y-99260000D01*
%TO.N,Net-(U4-ADJ)*%
X137100000Y-79400000D02*
X131940000Y-79400000D01*
X116840000Y-72780000D02*
X119940000Y-69680000D01*
X137640000Y-81400000D02*
X137640000Y-79940000D01*
X137640000Y-79940000D02*
X137100000Y-79400000D01*
X130100000Y-81240000D02*
X120610000Y-81240000D01*
X131940000Y-79400000D02*
X130100000Y-81240000D01*
X116840000Y-77470000D02*
X116840000Y-72780000D01*
X120610000Y-81240000D02*
X116840000Y-77470000D01*
%TO.N,Net-(U7A-+)*%
X148100000Y-129400000D02*
X145420000Y-132080000D01*
X142235000Y-132080000D02*
X138425000Y-128270000D01*
X148100000Y-129400000D02*
X151900000Y-129400000D01*
X145420000Y-132080000D02*
X142235000Y-132080000D01*
X151900000Y-129400000D02*
X152100000Y-129200000D01*
X148100000Y-129400000D02*
X148100000Y-126000000D01*
X155020000Y-129200000D02*
X152100000Y-129200000D01*
%TO.N,Net-(U6A--)*%
X147930000Y-88560000D02*
X148000000Y-88490000D01*
X138800000Y-93560000D02*
X140440000Y-93560000D01*
X143700000Y-90300000D02*
X143700000Y-88560000D01*
X140440000Y-93560000D02*
X143700000Y-90300000D01*
X143700000Y-88560000D02*
X147930000Y-88560000D01*
%TO.N,Net-(U7B--)*%
X130805000Y-128270000D02*
X130805000Y-130810000D01*
%TO.N,Net-(U6B-+)*%
X131180000Y-88480000D02*
X126880000Y-88480000D01*
X126880000Y-88480000D02*
X123700000Y-85300000D01*
X114500000Y-85300000D02*
X123700000Y-85300000D01*
%TO.N,VCCPWM*%
X132295000Y-109195000D02*
X128800000Y-105700000D01*
X132295000Y-110190000D02*
X132295000Y-109195000D01*
%TD*%
%TA.AperFunction,Conductor*%
%TO.N,GND*%
G36*
X192922539Y-58320185D02*
G01*
X192968294Y-58372989D01*
X192979500Y-58424500D01*
X192979500Y-78076000D01*
X192959815Y-78143039D01*
X192907011Y-78188794D01*
X192855500Y-78200000D01*
X170499999Y-78200000D01*
X170484762Y-82475942D01*
X170464839Y-82542911D01*
X170411872Y-82588477D01*
X170360763Y-82599500D01*
X165753214Y-82599500D01*
X165686175Y-82579815D01*
X165665533Y-82563181D01*
X165546568Y-82444216D01*
X165546566Y-82444214D01*
X165361538Y-82309783D01*
X165340662Y-82299146D01*
X165157755Y-82205950D01*
X164940248Y-82135278D01*
X164754812Y-82105908D01*
X164714354Y-82099500D01*
X164485646Y-82099500D01*
X164445188Y-82105908D01*
X164259753Y-82135278D01*
X164259750Y-82135278D01*
X164042244Y-82205950D01*
X163838461Y-82309783D01*
X163772550Y-82357671D01*
X163653434Y-82444214D01*
X163653432Y-82444216D01*
X163653431Y-82444216D01*
X163491715Y-82605932D01*
X163430318Y-82690438D01*
X163411707Y-82704788D01*
X163396169Y-82722422D01*
X163384550Y-82725728D01*
X163374987Y-82733103D01*
X163351575Y-82735113D01*
X163328968Y-82741548D01*
X163317406Y-82738048D01*
X163305374Y-82739082D01*
X163284588Y-82728114D01*
X163262095Y-82721306D01*
X163250180Y-82709959D01*
X163243579Y-82706476D01*
X163235615Y-82697972D01*
X163232496Y-82694311D01*
X163168286Y-82605934D01*
X163093322Y-82530970D01*
X163090115Y-82527206D01*
X163077803Y-82499642D01*
X163063334Y-82473144D01*
X163062499Y-82465379D01*
X163061620Y-82463411D01*
X163062011Y-82460841D01*
X163060500Y-82446786D01*
X163060500Y-81501456D01*
X163027286Y-81334481D01*
X163022051Y-81308164D01*
X163020320Y-81303984D01*
X162999961Y-81254833D01*
X162946635Y-81126092D01*
X162946628Y-81126079D01*
X162837139Y-80962218D01*
X162837136Y-80962214D01*
X162694686Y-80819764D01*
X162694655Y-80819735D01*
X155682601Y-73807681D01*
X155649116Y-73746358D01*
X155654100Y-73676666D01*
X155682600Y-73632320D01*
X155777139Y-73537782D01*
X155886632Y-73373914D01*
X155962051Y-73191835D01*
X155966836Y-73167782D01*
X156000500Y-72998540D01*
X156000500Y-72801460D01*
X156000500Y-70084652D01*
X156020185Y-70017614D01*
X156072989Y-69971859D01*
X156100135Y-69964413D01*
X156099932Y-69963553D01*
X156107479Y-69961769D01*
X156107481Y-69961768D01*
X156107483Y-69961768D01*
X156242331Y-69911473D01*
X156357546Y-69825223D01*
X156443796Y-69710008D01*
X156494091Y-69575160D01*
X156500500Y-69515550D01*
X156500499Y-68349624D01*
X158500000Y-68349624D01*
X158500000Y-68585729D01*
X158536934Y-68818924D01*
X158609897Y-69043479D01*
X158717087Y-69253851D01*
X158777338Y-69336781D01*
X158777340Y-69336782D01*
X159517037Y-68597085D01*
X159534075Y-68660670D01*
X159599901Y-68774684D01*
X159692993Y-68867776D01*
X159807007Y-68933602D01*
X159870590Y-68950639D01*
X159130893Y-69690335D01*
X159213828Y-69750591D01*
X159424197Y-69857779D01*
X159648752Y-69930742D01*
X159648751Y-69930742D01*
X159881948Y-69967677D01*
X160118052Y-69967677D01*
X160351247Y-69930742D01*
X160575802Y-69857779D01*
X160786163Y-69750595D01*
X160786169Y-69750591D01*
X160869104Y-69690335D01*
X160869105Y-69690335D01*
X160129408Y-68950639D01*
X160192993Y-68933602D01*
X160307007Y-68867776D01*
X160400099Y-68774684D01*
X160465925Y-68660670D01*
X160482962Y-68597086D01*
X161222658Y-69336782D01*
X161222658Y-69336781D01*
X161282914Y-69253846D01*
X161282918Y-69253840D01*
X161390102Y-69043479D01*
X161463065Y-68818924D01*
X161500000Y-68585729D01*
X161500000Y-68349624D01*
X161463065Y-68116429D01*
X161390102Y-67891874D01*
X161282914Y-67681505D01*
X161222658Y-67598571D01*
X161222658Y-67598570D01*
X160482962Y-68338267D01*
X160465925Y-68274684D01*
X160400099Y-68160670D01*
X160307007Y-68067578D01*
X160192993Y-68001752D01*
X160129409Y-67984714D01*
X160869105Y-67245017D01*
X160869104Y-67245015D01*
X160786174Y-67184764D01*
X160575802Y-67077574D01*
X160351247Y-67004611D01*
X160351248Y-67004611D01*
X160118052Y-66967677D01*
X159881948Y-66967677D01*
X159648752Y-67004611D01*
X159424197Y-67077574D01*
X159213830Y-67184761D01*
X159130894Y-67245017D01*
X159870591Y-67984714D01*
X159807007Y-68001752D01*
X159692993Y-68067578D01*
X159599901Y-68160670D01*
X159534075Y-68274684D01*
X159517037Y-68338268D01*
X158777340Y-67598571D01*
X158717084Y-67681507D01*
X158609897Y-67891874D01*
X158536934Y-68116429D01*
X158500000Y-68349624D01*
X156500499Y-68349624D01*
X156500499Y-67419805D01*
X156494091Y-67360194D01*
X156494090Y-67360191D01*
X156484922Y-67335608D01*
X156443797Y-67225348D01*
X156443793Y-67225341D01*
X156357547Y-67110132D01*
X156357544Y-67110129D01*
X156242335Y-67023883D01*
X156242328Y-67023879D01*
X156107482Y-66973585D01*
X156107483Y-66973585D01*
X156047883Y-66967178D01*
X156047881Y-66967177D01*
X156047873Y-66967177D01*
X156047864Y-66967177D01*
X153952129Y-66967177D01*
X153952123Y-66967178D01*
X153892516Y-66973585D01*
X153757671Y-67023879D01*
X153757664Y-67023883D01*
X153642455Y-67110129D01*
X153642452Y-67110132D01*
X153556206Y-67225341D01*
X153556202Y-67225348D01*
X153505908Y-67360194D01*
X153502050Y-67396086D01*
X153499501Y-67419800D01*
X153499500Y-67419812D01*
X153499500Y-69515547D01*
X153499501Y-69515553D01*
X153505908Y-69575160D01*
X153556202Y-69710005D01*
X153556206Y-69710012D01*
X153642452Y-69825221D01*
X153642455Y-69825224D01*
X153757664Y-69911470D01*
X153757671Y-69911474D01*
X153892517Y-69961768D01*
X153900062Y-69963551D01*
X153899523Y-69965828D01*
X153953287Y-69988085D01*
X153993147Y-70045470D01*
X153999500Y-70084652D01*
X153999500Y-72434218D01*
X153990855Y-72463658D01*
X153984332Y-72493645D01*
X153980577Y-72498660D01*
X153979815Y-72501257D01*
X153963181Y-72521899D01*
X153801899Y-72683181D01*
X153740576Y-72716666D01*
X153714218Y-72719500D01*
X140824500Y-72719500D01*
X140757461Y-72699815D01*
X140711706Y-72647011D01*
X140700500Y-72595500D01*
X140700500Y-69414037D01*
X140702012Y-69408888D01*
X141117261Y-69408888D01*
X141117262Y-69408889D01*
X141123471Y-69413400D01*
X141277742Y-69492007D01*
X141442415Y-69545513D01*
X141613429Y-69572599D01*
X141786571Y-69572599D01*
X141957584Y-69545513D01*
X142122257Y-69492007D01*
X142276525Y-69413402D01*
X142282736Y-69408888D01*
X142282737Y-69408888D01*
X141700001Y-68826152D01*
X141700000Y-68826152D01*
X141117261Y-69408888D01*
X140702012Y-69408888D01*
X140720185Y-69346998D01*
X140725234Y-69339725D01*
X140727438Y-69336781D01*
X140743796Y-69314930D01*
X140794091Y-69180082D01*
X140800500Y-69120472D01*
X140800499Y-69069904D01*
X140820182Y-69002868D01*
X140836818Y-68982225D01*
X141346446Y-68472599D01*
X141346446Y-68472598D01*
X141306951Y-68433103D01*
X141400000Y-68433103D01*
X141400000Y-68512095D01*
X141420444Y-68588395D01*
X141459940Y-68656804D01*
X141515795Y-68712659D01*
X141584204Y-68752155D01*
X141660504Y-68772599D01*
X141739496Y-68772599D01*
X141815796Y-68752155D01*
X141884205Y-68712659D01*
X141940060Y-68656804D01*
X141979556Y-68588395D01*
X142000000Y-68512095D01*
X142000000Y-68472598D01*
X142053553Y-68472598D01*
X142053553Y-68472600D01*
X142636289Y-69055336D01*
X142636289Y-69055335D01*
X142640803Y-69049124D01*
X142719408Y-68894856D01*
X142772914Y-68730183D01*
X142800000Y-68559170D01*
X142800000Y-68386026D01*
X142772914Y-68215014D01*
X142719408Y-68050341D01*
X142640801Y-67896070D01*
X142636290Y-67889861D01*
X142636289Y-67889860D01*
X142053553Y-68472598D01*
X142000000Y-68472598D01*
X142000000Y-68433103D01*
X141979556Y-68356803D01*
X141940060Y-68288394D01*
X141884205Y-68232539D01*
X141815796Y-68193043D01*
X141739496Y-68172599D01*
X141660504Y-68172599D01*
X141584204Y-68193043D01*
X141515795Y-68232539D01*
X141459940Y-68288394D01*
X141420444Y-68356803D01*
X141400000Y-68433103D01*
X141306951Y-68433103D01*
X140836818Y-67962970D01*
X140803333Y-67901647D01*
X140800499Y-67875289D01*
X140800499Y-67824728D01*
X140800498Y-67824722D01*
X140800497Y-67824715D01*
X140794091Y-67765116D01*
X140743796Y-67630268D01*
X140743794Y-67630265D01*
X140743793Y-67630263D01*
X140673457Y-67536307D01*
X141117261Y-67536307D01*
X141117261Y-67536308D01*
X141700000Y-68119045D01*
X141700001Y-68119045D01*
X142282737Y-67536308D01*
X142276525Y-67531795D01*
X142122259Y-67453191D01*
X141957584Y-67399684D01*
X141786571Y-67372599D01*
X141613429Y-67372599D01*
X141442415Y-67399684D01*
X141277740Y-67453191D01*
X141123480Y-67531792D01*
X141123463Y-67531802D01*
X141117261Y-67536307D01*
X140673457Y-67536307D01*
X140657547Y-67515054D01*
X140657544Y-67515051D01*
X140542335Y-67428805D01*
X140542328Y-67428801D01*
X140407482Y-67378507D01*
X140407483Y-67378507D01*
X140347883Y-67372100D01*
X140347881Y-67372099D01*
X140347873Y-67372099D01*
X140347864Y-67372099D01*
X139052129Y-67372099D01*
X139052123Y-67372100D01*
X138992516Y-67378507D01*
X138857671Y-67428801D01*
X138857664Y-67428805D01*
X138742455Y-67515051D01*
X138742452Y-67515054D01*
X138656206Y-67630263D01*
X138656202Y-67630270D01*
X138605908Y-67765116D01*
X138599501Y-67824715D01*
X138599501Y-67824722D01*
X138599500Y-67824734D01*
X138599500Y-69120469D01*
X138599501Y-69120475D01*
X138605908Y-69180082D01*
X138656203Y-69314928D01*
X138674766Y-69339725D01*
X138699184Y-69405189D01*
X138699500Y-69414037D01*
X138699500Y-72595500D01*
X138679815Y-72662539D01*
X138627011Y-72708294D01*
X138575500Y-72719500D01*
X129525782Y-72719500D01*
X129458743Y-72699815D01*
X129438101Y-72683181D01*
X126509319Y-69754399D01*
X126475834Y-69693076D01*
X126473000Y-69666718D01*
X126473000Y-69518146D01*
X126468860Y-69492007D01*
X126437222Y-69292255D01*
X126437221Y-69292251D01*
X126437221Y-69292250D01*
X126366549Y-69074744D01*
X126329926Y-69002868D01*
X126262717Y-68870962D01*
X126128286Y-68685934D01*
X126056819Y-68614467D01*
X126023334Y-68553144D01*
X126020500Y-68526786D01*
X126020500Y-67771456D01*
X125982052Y-67578170D01*
X125982051Y-67578169D01*
X125982051Y-67578165D01*
X125982049Y-67578160D01*
X125906635Y-67396092D01*
X125906628Y-67396079D01*
X125797139Y-67232218D01*
X125797136Y-67232214D01*
X125654686Y-67089764D01*
X125654655Y-67089735D01*
X123971479Y-65406559D01*
X123971459Y-65406537D01*
X123827785Y-65262863D01*
X123827781Y-65262860D01*
X123663916Y-65153369D01*
X123663911Y-65153366D01*
X123591315Y-65123296D01*
X123535165Y-65100038D01*
X123481836Y-65077949D01*
X123481832Y-65077948D01*
X123481828Y-65077946D01*
X123385188Y-65058724D01*
X123288544Y-65039500D01*
X123288541Y-65039500D01*
X116938540Y-65039500D01*
X116741459Y-65039500D01*
X116741456Y-65039500D01*
X116548171Y-65077946D01*
X116548167Y-65077948D01*
X116548165Y-65077948D01*
X116548164Y-65077949D01*
X116472745Y-65109188D01*
X116472743Y-65109189D01*
X116366085Y-65153368D01*
X116366085Y-65153369D01*
X116366084Y-65153369D01*
X116202222Y-65262857D01*
X116202214Y-65262863D01*
X107066899Y-74398181D01*
X107039971Y-74412884D01*
X107014153Y-74429477D01*
X107007952Y-74430368D01*
X107005576Y-74431666D01*
X106979218Y-74434500D01*
X106970419Y-74434500D01*
X106903380Y-74414815D01*
X106872043Y-74385986D01*
X106850401Y-74357782D01*
X106764092Y-74245301D01*
X106764087Y-74245295D01*
X106597204Y-74078412D01*
X106597197Y-74078406D01*
X106409954Y-73934730D01*
X106409953Y-73934729D01*
X106409950Y-73934727D01*
X106328457Y-73887677D01*
X106205556Y-73816719D01*
X106205545Y-73816714D01*
X105987493Y-73726394D01*
X105759510Y-73665306D01*
X105525520Y-73634501D01*
X105525517Y-73634500D01*
X105525511Y-73634500D01*
X105289489Y-73634500D01*
X105289483Y-73634500D01*
X105289479Y-73634501D01*
X105055489Y-73665306D01*
X104827506Y-73726394D01*
X104609454Y-73816714D01*
X104609443Y-73816719D01*
X104405045Y-73934730D01*
X104217802Y-74078406D01*
X104217795Y-74078412D01*
X104050912Y-74245295D01*
X104050906Y-74245302D01*
X103907230Y-74432545D01*
X103789219Y-74636943D01*
X103789214Y-74636954D01*
X103698894Y-74855006D01*
X103637806Y-75082989D01*
X103607001Y-75316979D01*
X103607000Y-75316995D01*
X103607000Y-75553004D01*
X103607001Y-75553020D01*
X103631035Y-75735582D01*
X103637807Y-75787014D01*
X103664225Y-75885606D01*
X103698894Y-76014993D01*
X103789214Y-76233045D01*
X103789219Y-76233056D01*
X103840357Y-76321628D01*
X103907227Y-76437450D01*
X103907229Y-76437453D01*
X103907230Y-76437454D01*
X104050906Y-76624697D01*
X104050912Y-76624704D01*
X104217795Y-76791587D01*
X104217802Y-76791593D01*
X104358486Y-76899543D01*
X104399689Y-76955971D01*
X104407000Y-76997919D01*
X104407000Y-81826717D01*
X104387315Y-81893756D01*
X104370680Y-81914398D01*
X101362219Y-84922861D01*
X101292539Y-84992541D01*
X101222859Y-85062220D01*
X101113372Y-85226079D01*
X101113367Y-85226089D01*
X101037949Y-85408163D01*
X101037947Y-85408171D01*
X100999500Y-85601455D01*
X100999500Y-85601460D01*
X100999500Y-85798540D01*
X100999500Y-85798542D01*
X100999499Y-85798542D01*
X101024518Y-85924313D01*
X101026901Y-85948505D01*
X101026901Y-114371494D01*
X101024518Y-114395685D01*
X100999500Y-114521456D01*
X100999500Y-114718544D01*
X101037947Y-114911828D01*
X101037949Y-114911836D01*
X101113367Y-115093910D01*
X101113372Y-115093920D01*
X101222860Y-115257780D01*
X101222863Y-115257784D01*
X115773581Y-129808501D01*
X115807066Y-129869824D01*
X115808372Y-129876779D01*
X115809058Y-129881109D01*
X115809059Y-129881114D01*
X115809060Y-129881118D01*
X115867453Y-130060832D01*
X115953240Y-130229199D01*
X116064310Y-130382073D01*
X116197927Y-130515690D01*
X116350801Y-130626760D01*
X116414971Y-130659456D01*
X116519163Y-130712545D01*
X116519165Y-130712545D01*
X116519168Y-130712547D01*
X116565921Y-130727738D01*
X116698881Y-130770940D01*
X116885514Y-130800500D01*
X116885519Y-130800500D01*
X117074486Y-130800500D01*
X117261118Y-130770940D01*
X117318233Y-130752382D01*
X117440832Y-130712547D01*
X117609199Y-130626760D01*
X117762073Y-130515690D01*
X117895690Y-130382073D01*
X118006760Y-130229199D01*
X118092547Y-130060832D01*
X118150940Y-129881118D01*
X118159163Y-129829198D01*
X118180500Y-129694486D01*
X118180500Y-129505513D01*
X118150940Y-129318881D01*
X118094689Y-129145761D01*
X118092547Y-129139168D01*
X118092545Y-129139165D01*
X118092545Y-129139163D01*
X118006759Y-128970800D01*
X117992819Y-128951613D01*
X117895690Y-128817927D01*
X117762073Y-128684310D01*
X117609199Y-128573240D01*
X117440832Y-128487453D01*
X117261118Y-128429060D01*
X117261116Y-128429059D01*
X117261114Y-128429059D01*
X117261109Y-128429058D01*
X117256779Y-128428372D01*
X117193645Y-128398440D01*
X117188501Y-128393581D01*
X103064220Y-114269300D01*
X103030735Y-114207977D01*
X103027901Y-114181619D01*
X103027901Y-104197682D01*
X103800000Y-104197682D01*
X103800000Y-104402317D01*
X103832009Y-104604417D01*
X103895244Y-104799031D01*
X103988141Y-104981350D01*
X103988147Y-104981359D01*
X104020523Y-105025921D01*
X104020524Y-105025922D01*
X104700000Y-104346446D01*
X104700000Y-104352661D01*
X104727259Y-104454394D01*
X104779920Y-104545606D01*
X104854394Y-104620080D01*
X104945606Y-104672741D01*
X105047339Y-104700000D01*
X105053553Y-104700000D01*
X104374076Y-105379474D01*
X104418650Y-105411859D01*
X104600968Y-105504755D01*
X104795582Y-105567990D01*
X104997683Y-105600000D01*
X105202317Y-105600000D01*
X105404417Y-105567990D01*
X105599031Y-105504755D01*
X105781349Y-105411859D01*
X105825921Y-105379474D01*
X105146447Y-104700000D01*
X105152661Y-104700000D01*
X105254394Y-104672741D01*
X105345606Y-104620080D01*
X105420080Y-104545606D01*
X105472741Y-104454394D01*
X105500000Y-104352661D01*
X105500000Y-104346447D01*
X106179474Y-105025921D01*
X106211859Y-104981349D01*
X106304755Y-104799031D01*
X106367990Y-104604417D01*
X106400000Y-104402317D01*
X106400000Y-104197682D01*
X106367990Y-103995582D01*
X106304755Y-103800968D01*
X106211859Y-103618650D01*
X106179474Y-103574077D01*
X106179474Y-103574076D01*
X105500000Y-104253551D01*
X105500000Y-104247339D01*
X105472741Y-104145606D01*
X105420080Y-104054394D01*
X105345606Y-103979920D01*
X105254394Y-103927259D01*
X105152661Y-103900000D01*
X105146446Y-103900000D01*
X105825922Y-103220524D01*
X105825921Y-103220523D01*
X105781359Y-103188147D01*
X105781350Y-103188141D01*
X105599031Y-103095244D01*
X105404417Y-103032009D01*
X105202317Y-103000000D01*
X104997683Y-103000000D01*
X104795582Y-103032009D01*
X104600968Y-103095244D01*
X104418644Y-103188143D01*
X104374077Y-103220523D01*
X104374077Y-103220524D01*
X105053554Y-103900000D01*
X105047339Y-103900000D01*
X104945606Y-103927259D01*
X104854394Y-103979920D01*
X104779920Y-104054394D01*
X104727259Y-104145606D01*
X104700000Y-104247339D01*
X104700000Y-104253553D01*
X104020524Y-103574077D01*
X104020523Y-103574077D01*
X103988143Y-103618644D01*
X103895244Y-103800968D01*
X103832009Y-103995582D01*
X103800000Y-104197682D01*
X103027901Y-104197682D01*
X103027901Y-86138381D01*
X103047586Y-86071342D01*
X103064220Y-86050700D01*
X104612894Y-84502027D01*
X106184640Y-82930281D01*
X106261502Y-82815248D01*
X106294132Y-82766414D01*
X106331841Y-82675374D01*
X106369552Y-82584335D01*
X106408000Y-82391040D01*
X106408000Y-82193960D01*
X106408000Y-76997919D01*
X106427685Y-76930880D01*
X106456514Y-76899543D01*
X106472583Y-76887213D01*
X106597199Y-76791592D01*
X106764092Y-76624699D01*
X106872043Y-76484013D01*
X106928471Y-76442811D01*
X106970419Y-76435500D01*
X107543542Y-76435500D01*
X107574566Y-76429328D01*
X107640188Y-76416275D01*
X107736836Y-76397051D01*
X107790165Y-76374961D01*
X107918914Y-76321632D01*
X108082782Y-76212139D01*
X108222139Y-76072782D01*
X108222139Y-76072780D01*
X108232347Y-76062573D01*
X108232348Y-76062570D01*
X117218102Y-67076819D01*
X117279425Y-67043334D01*
X117305783Y-67040500D01*
X122724218Y-67040500D01*
X122791257Y-67060185D01*
X122811899Y-67076819D01*
X123983181Y-68248101D01*
X123997884Y-68275028D01*
X124014477Y-68300847D01*
X124015368Y-68307047D01*
X124016666Y-68309424D01*
X124019500Y-68335782D01*
X124019500Y-68526786D01*
X123999815Y-68593825D01*
X123983181Y-68614467D01*
X123911716Y-68685931D01*
X123911715Y-68685932D01*
X123850318Y-68770438D01*
X123794987Y-68813103D01*
X123725374Y-68819082D01*
X123663579Y-68786476D01*
X123649682Y-68770438D01*
X123607703Y-68712659D01*
X123588286Y-68685934D01*
X123426566Y-68524214D01*
X123241538Y-68389783D01*
X123176811Y-68356803D01*
X123037755Y-68285950D01*
X122820248Y-68215278D01*
X122634812Y-68185908D01*
X122594354Y-68179500D01*
X122365646Y-68179500D01*
X122325188Y-68185908D01*
X122139753Y-68215278D01*
X122139750Y-68215278D01*
X121922244Y-68285950D01*
X121718461Y-68389783D01*
X121611250Y-68467677D01*
X121550115Y-68512095D01*
X121535759Y-68522525D01*
X121469952Y-68546005D01*
X121401898Y-68530180D01*
X121353203Y-68480074D01*
X121346690Y-68465538D01*
X121336296Y-68437669D01*
X121336293Y-68437664D01*
X121250047Y-68322455D01*
X121250044Y-68322452D01*
X121134835Y-68236206D01*
X121134828Y-68236202D01*
X120999982Y-68185908D01*
X120999983Y-68185908D01*
X120940383Y-68179501D01*
X120940381Y-68179500D01*
X120940373Y-68179500D01*
X120940364Y-68179500D01*
X118939629Y-68179500D01*
X118939623Y-68179501D01*
X118880016Y-68185908D01*
X118745171Y-68236202D01*
X118745164Y-68236206D01*
X118629955Y-68322452D01*
X118629952Y-68322455D01*
X118543706Y-68437664D01*
X118543702Y-68437671D01*
X118493408Y-68572517D01*
X118487001Y-68632116D01*
X118487000Y-68632135D01*
X118487000Y-69666717D01*
X118467315Y-69733756D01*
X118450681Y-69754398D01*
X116202221Y-72002858D01*
X116202218Y-72002861D01*
X116140862Y-72064217D01*
X116062859Y-72142219D01*
X115953371Y-72306079D01*
X115953364Y-72306092D01*
X115877950Y-72488160D01*
X115877947Y-72488170D01*
X115839500Y-72681456D01*
X115839500Y-72681459D01*
X115839500Y-77568541D01*
X115839500Y-77568543D01*
X115839499Y-77568543D01*
X115877947Y-77761829D01*
X115877950Y-77761839D01*
X115953364Y-77943907D01*
X115953371Y-77943920D01*
X116062860Y-78107781D01*
X116062863Y-78107785D01*
X116206537Y-78251459D01*
X116206559Y-78251479D01*
X119829735Y-81874655D01*
X119829764Y-81874686D01*
X119972217Y-82017139D01*
X120105070Y-82105908D01*
X120136086Y-82126632D01*
X120136088Y-82126633D01*
X120136092Y-82126635D01*
X120175393Y-82142913D01*
X120258022Y-82177139D01*
X120318164Y-82202051D01*
X120337776Y-82205952D01*
X120430774Y-82224450D01*
X120511456Y-82240500D01*
X120511459Y-82240500D01*
X120511460Y-82240500D01*
X120708540Y-82240500D01*
X129394367Y-82240500D01*
X129461406Y-82260185D01*
X129467254Y-82264183D01*
X129470799Y-82266759D01*
X129639163Y-82352545D01*
X129639165Y-82352545D01*
X129639168Y-82352547D01*
X129735497Y-82383846D01*
X129818881Y-82410940D01*
X130005514Y-82440500D01*
X130005519Y-82440500D01*
X130194486Y-82440500D01*
X130381118Y-82410940D01*
X130560832Y-82352547D01*
X130729199Y-82266760D01*
X130882073Y-82155690D01*
X131015690Y-82022073D01*
X131126760Y-81869199D01*
X131212547Y-81700832D01*
X131270940Y-81521118D01*
X131271625Y-81516788D01*
X131301551Y-81453653D01*
X131306401Y-81448517D01*
X132318101Y-80436819D01*
X132379424Y-80403334D01*
X132405782Y-80400500D01*
X134074651Y-80400500D01*
X134141690Y-80420185D01*
X134187445Y-80472989D01*
X134197389Y-80542147D01*
X134171064Y-80600336D01*
X134171919Y-80600957D01*
X134169057Y-80604895D01*
X134169055Y-80604898D01*
X134128773Y-80660342D01*
X134056135Y-80760318D01*
X133968916Y-80931493D01*
X133909553Y-81114197D01*
X133888740Y-81245606D01*
X133879500Y-81303945D01*
X133879500Y-81496055D01*
X133880356Y-81501459D01*
X133909553Y-81685802D01*
X133968916Y-81868506D01*
X133995084Y-81919863D01*
X134056135Y-82039681D01*
X134169055Y-82195102D01*
X134304898Y-82330945D01*
X134460319Y-82443865D01*
X134566855Y-82498148D01*
X134631493Y-82531083D01*
X134667897Y-82542911D01*
X134814199Y-82590447D01*
X135003945Y-82620500D01*
X135003946Y-82620500D01*
X135196054Y-82620500D01*
X135196055Y-82620500D01*
X135385801Y-82590447D01*
X135568509Y-82531082D01*
X135739681Y-82443865D01*
X135895102Y-82330945D01*
X136030945Y-82195102D01*
X136143865Y-82039681D01*
X136231082Y-81868509D01*
X136244661Y-81826717D01*
X136252069Y-81803919D01*
X136291506Y-81746243D01*
X136355864Y-81719044D01*
X136424711Y-81730958D01*
X136476187Y-81778202D01*
X136487931Y-81803919D01*
X136508915Y-81868504D01*
X136535084Y-81919863D01*
X136596135Y-82039681D01*
X136709055Y-82195102D01*
X136844898Y-82330945D01*
X137000319Y-82443865D01*
X137106855Y-82498148D01*
X137171493Y-82531083D01*
X137207897Y-82542911D01*
X137354199Y-82590447D01*
X137543945Y-82620500D01*
X137543946Y-82620500D01*
X137736054Y-82620500D01*
X137736055Y-82620500D01*
X137925801Y-82590447D01*
X138108509Y-82531082D01*
X138279681Y-82443865D01*
X138435102Y-82330945D01*
X138570945Y-82195102D01*
X138683865Y-82039681D01*
X138771082Y-81868509D01*
X138784661Y-81826717D01*
X138792332Y-81803109D01*
X138831769Y-81745433D01*
X138896127Y-81718234D01*
X138964973Y-81730148D01*
X139016450Y-81777392D01*
X139028194Y-81803107D01*
X139049383Y-81868321D01*
X139136561Y-82039415D01*
X139157798Y-82068646D01*
X139780000Y-81446445D01*
X139780000Y-81452661D01*
X139807259Y-81554394D01*
X139859920Y-81645606D01*
X139934394Y-81720080D01*
X140025606Y-81772741D01*
X140127339Y-81800000D01*
X140133554Y-81800000D01*
X139511351Y-82422200D01*
X139511352Y-82422201D01*
X139540577Y-82443434D01*
X139711678Y-82530616D01*
X139894315Y-82589959D01*
X140083985Y-82620000D01*
X140276015Y-82620000D01*
X140465684Y-82589959D01*
X140648321Y-82530616D01*
X140819419Y-82443436D01*
X140848646Y-82422201D01*
X140848646Y-82422200D01*
X140226447Y-81800000D01*
X140232661Y-81800000D01*
X140334394Y-81772741D01*
X140425606Y-81720080D01*
X140500080Y-81645606D01*
X140552741Y-81554394D01*
X140580000Y-81452661D01*
X140580000Y-81446446D01*
X141202200Y-82068646D01*
X141202201Y-82068646D01*
X141223436Y-82039419D01*
X141310616Y-81868321D01*
X141369959Y-81685684D01*
X141400000Y-81496015D01*
X141400000Y-81303984D01*
X141369959Y-81114315D01*
X141310616Y-80931678D01*
X141223434Y-80760577D01*
X141202201Y-80731352D01*
X141202200Y-80731351D01*
X140580000Y-81353552D01*
X140580000Y-81347339D01*
X140552741Y-81245606D01*
X140500080Y-81154394D01*
X140425606Y-81079920D01*
X140334394Y-81027259D01*
X140232661Y-81000000D01*
X140226447Y-81000000D01*
X140848646Y-80377798D01*
X140819415Y-80356561D01*
X140648321Y-80269383D01*
X140465684Y-80210040D01*
X140276015Y-80180000D01*
X140083985Y-80180000D01*
X139894315Y-80210040D01*
X139711678Y-80269383D01*
X139540578Y-80356564D01*
X139511352Y-80377798D01*
X139511351Y-80377798D01*
X140133554Y-81000000D01*
X140127339Y-81000000D01*
X140025606Y-81027259D01*
X139934394Y-81079920D01*
X139859920Y-81154394D01*
X139807259Y-81245606D01*
X139780000Y-81347339D01*
X139780000Y-81353553D01*
X139157798Y-80731351D01*
X139157798Y-80731352D01*
X139136564Y-80760578D01*
X139049384Y-80931677D01*
X139028194Y-80996893D01*
X138988755Y-81054568D01*
X138924396Y-81081765D01*
X138855550Y-81069850D01*
X138804075Y-81022605D01*
X138792332Y-80996890D01*
X138771084Y-80931495D01*
X138714139Y-80819735D01*
X138683865Y-80760319D01*
X138664181Y-80733227D01*
X138657029Y-80713181D01*
X138645523Y-80695277D01*
X138642068Y-80671252D01*
X138640702Y-80667422D01*
X138640500Y-80660342D01*
X138640500Y-79841456D01*
X138602052Y-79648170D01*
X138602051Y-79648169D01*
X138602051Y-79648165D01*
X138602049Y-79648160D01*
X138526635Y-79466092D01*
X138526628Y-79466079D01*
X138417140Y-79302219D01*
X138417139Y-79302218D01*
X138277782Y-79162861D01*
X138277781Y-79162860D01*
X137884208Y-78769288D01*
X137884206Y-78769285D01*
X137884206Y-78769286D01*
X137877139Y-78762219D01*
X137877139Y-78762218D01*
X137737782Y-78622861D01*
X137737781Y-78622860D01*
X137737780Y-78622859D01*
X137573920Y-78513371D01*
X137573911Y-78513366D01*
X137501315Y-78483296D01*
X137445165Y-78460038D01*
X137391836Y-78437949D01*
X137391832Y-78437948D01*
X137391828Y-78437946D01*
X137295188Y-78418724D01*
X137198544Y-78399500D01*
X137198541Y-78399500D01*
X131841459Y-78399500D01*
X131841455Y-78399500D01*
X131744812Y-78418724D01*
X131648167Y-78437947D01*
X131648161Y-78437949D01*
X131594834Y-78460037D01*
X131594834Y-78460038D01*
X131549315Y-78478892D01*
X131466089Y-78513366D01*
X131466079Y-78513371D01*
X131302219Y-78622859D01*
X131259870Y-78665209D01*
X131162861Y-78762218D01*
X131162858Y-78762221D01*
X129891497Y-80033581D01*
X129830174Y-80067066D01*
X129823223Y-80068372D01*
X129818884Y-80069059D01*
X129639165Y-80127454D01*
X129470799Y-80213240D01*
X129467254Y-80215817D01*
X129401448Y-80239298D01*
X129394367Y-80239500D01*
X121075782Y-80239500D01*
X121008743Y-80219815D01*
X120988101Y-80203181D01*
X117876819Y-77091899D01*
X117843334Y-77030576D01*
X117840500Y-77004218D01*
X117840500Y-75937682D01*
X119690000Y-75937682D01*
X119690000Y-76142317D01*
X119722009Y-76344417D01*
X119785244Y-76539031D01*
X119878141Y-76721350D01*
X119878147Y-76721359D01*
X119910523Y-76765921D01*
X119910524Y-76765922D01*
X120590000Y-76086446D01*
X120590000Y-76092661D01*
X120617259Y-76194394D01*
X120669920Y-76285606D01*
X120744394Y-76360080D01*
X120835606Y-76412741D01*
X120937339Y-76440000D01*
X120943553Y-76440000D01*
X120264076Y-77119474D01*
X120308650Y-77151859D01*
X120490968Y-77244755D01*
X120685582Y-77307990D01*
X120887683Y-77340000D01*
X121092317Y-77340000D01*
X121294417Y-77307990D01*
X121489031Y-77244755D01*
X121671349Y-77151859D01*
X121715921Y-77119474D01*
X121036447Y-76440000D01*
X121042661Y-76440000D01*
X121144394Y-76412741D01*
X121235606Y-76360080D01*
X121310080Y-76285606D01*
X121362741Y-76194394D01*
X121390000Y-76092661D01*
X121390000Y-76086447D01*
X122069474Y-76765921D01*
X122101859Y-76721349D01*
X122194755Y-76539031D01*
X122257990Y-76344417D01*
X122290000Y-76142317D01*
X122290000Y-75937682D01*
X122257990Y-75735582D01*
X122194755Y-75540968D01*
X122101859Y-75358650D01*
X122069474Y-75314077D01*
X122069474Y-75314076D01*
X121390000Y-75993551D01*
X121390000Y-75987339D01*
X121362741Y-75885606D01*
X121310080Y-75794394D01*
X121235606Y-75719920D01*
X121144394Y-75667259D01*
X121042661Y-75640000D01*
X121036446Y-75640000D01*
X121715922Y-74960524D01*
X121715921Y-74960523D01*
X121671359Y-74928147D01*
X121671350Y-74928141D01*
X121489031Y-74835244D01*
X121294417Y-74772009D01*
X121092317Y-74740000D01*
X120887683Y-74740000D01*
X120685582Y-74772009D01*
X120490968Y-74835244D01*
X120308644Y-74928143D01*
X120264077Y-74960523D01*
X120264077Y-74960524D01*
X120943554Y-75640000D01*
X120937339Y-75640000D01*
X120835606Y-75667259D01*
X120744394Y-75719920D01*
X120669920Y-75794394D01*
X120617259Y-75885606D01*
X120590000Y-75987339D01*
X120590000Y-75993553D01*
X119910524Y-75314077D01*
X119910523Y-75314077D01*
X119878143Y-75358644D01*
X119785244Y-75540968D01*
X119722009Y-75735582D01*
X119690000Y-75937682D01*
X117840500Y-75937682D01*
X117840500Y-73245781D01*
X117860185Y-73178742D01*
X117876814Y-73158105D01*
X119818101Y-71216817D01*
X119879424Y-71183333D01*
X119905782Y-71180499D01*
X120940371Y-71180499D01*
X120940372Y-71180499D01*
X120999983Y-71174091D01*
X121134831Y-71123796D01*
X121250046Y-71037546D01*
X121256233Y-71029280D01*
X121312166Y-70987409D01*
X121381858Y-70982425D01*
X121443181Y-71015909D01*
X121476666Y-71077232D01*
X121479500Y-71103591D01*
X121479500Y-72628544D01*
X121517947Y-72821833D01*
X121517949Y-72821837D01*
X121540038Y-72875164D01*
X121593366Y-73003911D01*
X121593371Y-73003920D01*
X121702859Y-73167780D01*
X121702860Y-73167781D01*
X121702861Y-73167782D01*
X121842218Y-73307139D01*
X121842219Y-73307139D01*
X121849286Y-73314206D01*
X121849285Y-73314206D01*
X121849289Y-73314209D01*
X124663281Y-76128202D01*
X124696766Y-76189525D01*
X124698073Y-76196484D01*
X124721522Y-76344531D01*
X124721523Y-76344534D01*
X124784780Y-76539219D01*
X124877585Y-76721359D01*
X124877715Y-76721613D01*
X124998028Y-76887213D01*
X125142786Y-77031971D01*
X125263226Y-77119474D01*
X125308390Y-77152287D01*
X125395789Y-77196819D01*
X125490776Y-77245218D01*
X125490778Y-77245218D01*
X125490781Y-77245220D01*
X125574879Y-77272545D01*
X125685465Y-77308477D01*
X125786557Y-77324488D01*
X125887648Y-77340500D01*
X125887649Y-77340500D01*
X126092351Y-77340500D01*
X126092352Y-77340500D01*
X126294534Y-77308477D01*
X126489219Y-77245220D01*
X126628966Y-77174014D01*
X126685261Y-77160500D01*
X129394367Y-77160500D01*
X129461406Y-77180185D01*
X129467254Y-77184183D01*
X129470799Y-77186759D01*
X129639163Y-77272545D01*
X129639165Y-77272545D01*
X129639168Y-77272547D01*
X129735497Y-77303846D01*
X129818881Y-77330940D01*
X130005514Y-77360500D01*
X130005519Y-77360500D01*
X130194486Y-77360500D01*
X130381118Y-77330940D01*
X130560832Y-77272547D01*
X130729199Y-77186760D01*
X130732746Y-77184183D01*
X130798552Y-77160702D01*
X130805633Y-77160500D01*
X143494218Y-77160500D01*
X143561257Y-77180185D01*
X143581899Y-77196819D01*
X152563181Y-86178101D01*
X152596666Y-86239424D01*
X152599500Y-86265782D01*
X152599500Y-90044217D01*
X152579815Y-90111256D01*
X152563181Y-90131898D01*
X147791497Y-94903581D01*
X147730174Y-94937066D01*
X147723223Y-94938372D01*
X147718884Y-94939059D01*
X147539165Y-94997454D01*
X147370800Y-95083240D01*
X147295501Y-95137949D01*
X147217927Y-95194310D01*
X147217925Y-95194312D01*
X147217924Y-95194312D01*
X147084312Y-95327924D01*
X147084312Y-95327925D01*
X147084310Y-95327927D01*
X147043421Y-95384206D01*
X146973240Y-95480800D01*
X146887454Y-95649165D01*
X146829059Y-95828885D01*
X146828372Y-95833222D01*
X146798437Y-95896355D01*
X146793581Y-95901496D01*
X144131899Y-98563181D01*
X144070576Y-98596666D01*
X144044218Y-98599500D01*
X135145783Y-98599500D01*
X135078744Y-98579815D01*
X135058102Y-98563181D01*
X132506717Y-96011797D01*
X132473232Y-95950474D01*
X132471925Y-95943513D01*
X132453769Y-95828882D01*
X132448477Y-95795466D01*
X132441423Y-95773757D01*
X132400941Y-95649165D01*
X132385220Y-95600781D01*
X132385218Y-95600778D01*
X132385218Y-95600776D01*
X132333865Y-95499992D01*
X132292287Y-95418390D01*
X132267451Y-95384206D01*
X132171971Y-95252786D01*
X132027213Y-95108028D01*
X131861614Y-94987715D01*
X131842745Y-94978101D01*
X131768917Y-94940483D01*
X131718123Y-94892511D01*
X131701328Y-94824690D01*
X131723865Y-94758555D01*
X131768917Y-94719516D01*
X131861610Y-94672287D01*
X131893208Y-94649330D01*
X132027213Y-94551971D01*
X132027219Y-94551966D01*
X132097736Y-94481449D01*
X132171966Y-94407219D01*
X132171968Y-94407215D01*
X132171971Y-94407213D01*
X132254374Y-94293793D01*
X132292287Y-94241610D01*
X132385220Y-94059219D01*
X132448477Y-93864534D01*
X132480500Y-93662352D01*
X132480500Y-93457648D01*
X132459152Y-93322862D01*
X132448477Y-93255465D01*
X132385218Y-93060776D01*
X132339931Y-92971897D01*
X132292287Y-92878390D01*
X132277657Y-92858253D01*
X132171971Y-92712786D01*
X132027213Y-92568028D01*
X131861614Y-92447715D01*
X131839980Y-92436692D01*
X131768917Y-92400483D01*
X131718123Y-92352511D01*
X131701328Y-92284690D01*
X131723865Y-92218555D01*
X131768917Y-92179516D01*
X131861610Y-92132287D01*
X131982877Y-92044181D01*
X132048683Y-92020702D01*
X132055762Y-92020500D01*
X134075500Y-92020500D01*
X134142539Y-92040185D01*
X134188294Y-92092989D01*
X134199500Y-92144500D01*
X134199500Y-94698542D01*
X134212329Y-94763041D01*
X134212332Y-94763056D01*
X134212763Y-94765220D01*
X134237949Y-94891836D01*
X134245266Y-94909500D01*
X134249090Y-94918733D01*
X134249092Y-94918739D01*
X134313364Y-95073907D01*
X134313371Y-95073920D01*
X134422859Y-95237780D01*
X134422860Y-95237781D01*
X134422861Y-95237782D01*
X134562218Y-95377139D01*
X134562219Y-95377139D01*
X134569286Y-95384206D01*
X134569285Y-95384206D01*
X134569288Y-95384208D01*
X135922860Y-96737781D01*
X135922861Y-96737782D01*
X136062218Y-96877139D01*
X136062219Y-96877140D01*
X136226079Y-96986628D01*
X136226086Y-96986632D01*
X136320381Y-97025690D01*
X136408164Y-97062051D01*
X136601454Y-97100499D01*
X136601457Y-97100500D01*
X136601459Y-97100500D01*
X136798540Y-97100500D01*
X137587769Y-97100500D01*
X137654808Y-97120185D01*
X137675450Y-97136818D01*
X137781344Y-97242712D01*
X137930666Y-97334814D01*
X138097203Y-97389999D01*
X138199991Y-97400500D01*
X139400008Y-97400499D01*
X139502797Y-97389999D01*
X139669334Y-97334814D01*
X139818656Y-97242712D01*
X139942712Y-97118656D01*
X140034814Y-96969334D01*
X140089999Y-96802797D01*
X140100500Y-96700009D01*
X140100499Y-95499992D01*
X140089999Y-95397203D01*
X140034814Y-95230666D01*
X139942712Y-95081344D01*
X139818656Y-94957288D01*
X139712541Y-94891836D01*
X139669336Y-94865187D01*
X139669335Y-94865186D01*
X139669334Y-94865186D01*
X139587427Y-94838044D01*
X139577370Y-94831081D01*
X139565457Y-94828311D01*
X139549182Y-94811564D01*
X139529984Y-94798272D01*
X139525288Y-94786977D01*
X139516763Y-94778205D01*
X139512125Y-94755318D01*
X139503161Y-94733756D01*
X139505317Y-94721715D01*
X139502888Y-94709727D01*
X139511359Y-94687968D01*
X139515476Y-94664980D01*
X139524424Y-94654412D01*
X139528238Y-94644618D01*
X139553542Y-94620025D01*
X139602880Y-94584179D01*
X139668684Y-94560702D01*
X139675762Y-94560500D01*
X140538542Y-94560500D01*
X140564632Y-94555310D01*
X140635188Y-94541275D01*
X140731836Y-94522051D01*
X140824261Y-94483767D01*
X140913914Y-94446632D01*
X141077782Y-94337139D01*
X141217139Y-94197782D01*
X141217140Y-94197779D01*
X141224206Y-94190714D01*
X141224209Y-94190710D01*
X141524919Y-93890000D01*
X142524638Y-93890000D01*
X142529548Y-93921002D01*
X142587914Y-94100637D01*
X142673670Y-94268940D01*
X142784685Y-94421741D01*
X142784689Y-94421746D01*
X142918253Y-94555310D01*
X142918258Y-94555314D01*
X143071059Y-94666329D01*
X143239362Y-94752085D01*
X143418997Y-94810451D01*
X143450000Y-94815362D01*
X143450000Y-94815361D01*
X143950000Y-94815361D01*
X143981002Y-94810451D01*
X144160637Y-94752085D01*
X144328940Y-94666329D01*
X144481741Y-94555314D01*
X144481746Y-94555310D01*
X144615310Y-94421746D01*
X144615314Y-94421741D01*
X144726329Y-94268940D01*
X144812085Y-94100637D01*
X144870451Y-93921002D01*
X144875362Y-93890000D01*
X143950000Y-93890000D01*
X143950000Y-94815361D01*
X143450000Y-94815361D01*
X143450000Y-93890000D01*
X142524638Y-93890000D01*
X141524919Y-93890000D01*
X141820997Y-93593922D01*
X143350000Y-93593922D01*
X143350000Y-93686078D01*
X143373852Y-93775095D01*
X143419930Y-93854905D01*
X143485095Y-93920070D01*
X143564905Y-93966148D01*
X143653922Y-93990000D01*
X143746078Y-93990000D01*
X143835095Y-93966148D01*
X143914905Y-93920070D01*
X143980070Y-93854905D01*
X144026148Y-93775095D01*
X144050000Y-93686078D01*
X144050000Y-93593922D01*
X144026148Y-93504905D01*
X143980070Y-93425095D01*
X143944975Y-93390000D01*
X143950000Y-93390000D01*
X144875362Y-93390000D01*
X144870451Y-93358997D01*
X144812085Y-93179362D01*
X144726329Y-93011059D01*
X144615314Y-92858258D01*
X144615310Y-92858253D01*
X144481746Y-92724689D01*
X144481741Y-92724685D01*
X144328940Y-92613670D01*
X144160635Y-92527913D01*
X143981004Y-92469549D01*
X143980995Y-92469547D01*
X143950000Y-92464637D01*
X143950000Y-93390000D01*
X143944975Y-93390000D01*
X143914905Y-93359930D01*
X143835095Y-93313852D01*
X143746078Y-93290000D01*
X143653922Y-93290000D01*
X143564905Y-93313852D01*
X143485095Y-93359930D01*
X143419930Y-93425095D01*
X143373852Y-93504905D01*
X143350000Y-93593922D01*
X141820997Y-93593922D01*
X142400363Y-93014555D01*
X142461684Y-92981072D01*
X142531376Y-92986056D01*
X142587309Y-93027928D01*
X142611726Y-93093392D01*
X142598528Y-93158530D01*
X142587915Y-93179358D01*
X142587915Y-93179359D01*
X142529548Y-93358997D01*
X142524638Y-93390000D01*
X143450000Y-93390000D01*
X143450000Y-92464637D01*
X143449999Y-92464637D01*
X143419004Y-92469547D01*
X143418995Y-92469549D01*
X143239363Y-92527913D01*
X143239358Y-92527915D01*
X143218530Y-92538528D01*
X143149861Y-92551423D01*
X143085121Y-92525145D01*
X143044865Y-92468037D01*
X143041875Y-92398232D01*
X143074555Y-92340363D01*
X144337778Y-91077141D01*
X144337782Y-91077139D01*
X144477139Y-90937782D01*
X144586632Y-90773914D01*
X144662051Y-90591835D01*
X144667976Y-90562051D01*
X144697930Y-90411460D01*
X144697931Y-90411457D01*
X144700500Y-90398544D01*
X144700500Y-89684500D01*
X144720185Y-89617461D01*
X144772989Y-89571706D01*
X144824500Y-89560500D01*
X147426876Y-89560500D01*
X147483171Y-89574015D01*
X147539163Y-89602545D01*
X147539165Y-89602545D01*
X147539168Y-89602547D01*
X147626300Y-89630858D01*
X147718881Y-89660940D01*
X147905514Y-89690500D01*
X147905519Y-89690500D01*
X148094486Y-89690500D01*
X148281118Y-89660940D01*
X148460832Y-89602547D01*
X148629199Y-89516760D01*
X148782073Y-89405690D01*
X148915690Y-89272073D01*
X149026760Y-89119199D01*
X149112547Y-88950832D01*
X149170940Y-88771118D01*
X149178148Y-88725606D01*
X149200500Y-88584486D01*
X149200500Y-88395513D01*
X149170940Y-88208881D01*
X149137920Y-88107259D01*
X149112547Y-88029168D01*
X149112545Y-88029165D01*
X149112545Y-88029163D01*
X149026759Y-87860800D01*
X148981604Y-87798650D01*
X148915690Y-87707927D01*
X148782073Y-87574310D01*
X148629199Y-87463240D01*
X148622477Y-87459815D01*
X148460836Y-87377454D01*
X148281118Y-87319059D01*
X148094486Y-87289500D01*
X148094481Y-87289500D01*
X147905519Y-87289500D01*
X147905514Y-87289500D01*
X147718881Y-87319059D01*
X147539163Y-87377454D01*
X147370797Y-87463242D01*
X147270905Y-87535818D01*
X147205099Y-87559298D01*
X147198020Y-87559500D01*
X144405633Y-87559500D01*
X144338594Y-87539815D01*
X144332746Y-87535817D01*
X144329200Y-87533240D01*
X144160836Y-87447454D01*
X143981118Y-87389059D01*
X143794486Y-87359500D01*
X143794481Y-87359500D01*
X143605519Y-87359500D01*
X143605514Y-87359500D01*
X143418881Y-87389059D01*
X143239163Y-87447454D01*
X143070800Y-87533240D01*
X142983579Y-87596610D01*
X142917927Y-87644310D01*
X142917925Y-87644312D01*
X142917924Y-87644312D01*
X142784312Y-87777924D01*
X142784312Y-87777925D01*
X142784310Y-87777927D01*
X142769254Y-87798650D01*
X142673240Y-87930800D01*
X142587454Y-88099163D01*
X142529059Y-88278881D01*
X142499500Y-88465513D01*
X142499500Y-88654486D01*
X142529059Y-88841118D01*
X142587454Y-89020836D01*
X142659184Y-89161613D01*
X142673240Y-89189199D01*
X142675814Y-89192742D01*
X142699297Y-89258546D01*
X142699500Y-89265632D01*
X142699500Y-89834218D01*
X142679815Y-89901257D01*
X142663181Y-89921899D01*
X140061899Y-92523181D01*
X140000576Y-92556666D01*
X139974218Y-92559500D01*
X139675762Y-92559500D01*
X139608723Y-92539815D01*
X139602877Y-92535818D01*
X139591999Y-92527915D01*
X139481610Y-92447713D01*
X139388917Y-92400483D01*
X139338123Y-92352511D01*
X139321328Y-92284690D01*
X139343865Y-92218555D01*
X139388917Y-92179516D01*
X139481610Y-92132287D01*
X139535448Y-92093172D01*
X139647213Y-92011971D01*
X139647215Y-92011968D01*
X139647219Y-92011966D01*
X139791966Y-91867219D01*
X139791968Y-91867215D01*
X139791971Y-91867213D01*
X139846285Y-91792455D01*
X139912287Y-91701610D01*
X140005220Y-91519219D01*
X140068477Y-91324534D01*
X140100500Y-91122352D01*
X140100500Y-90917648D01*
X140081742Y-90799219D01*
X140068477Y-90715465D01*
X140005896Y-90522862D01*
X140005220Y-90520781D01*
X140005218Y-90520778D01*
X140005218Y-90520776D01*
X139949518Y-90411460D01*
X139912287Y-90338390D01*
X139904556Y-90327749D01*
X139791971Y-90172786D01*
X139647213Y-90028028D01*
X139481611Y-89907713D01*
X139388369Y-89860203D01*
X139337574Y-89812229D01*
X139320779Y-89744407D01*
X139343317Y-89678273D01*
X139388371Y-89639234D01*
X139481346Y-89591861D01*
X139481347Y-89591861D01*
X139525921Y-89559474D01*
X138846447Y-88880000D01*
X138852661Y-88880000D01*
X138954394Y-88852741D01*
X139045606Y-88800080D01*
X139120080Y-88725606D01*
X139172741Y-88634394D01*
X139200000Y-88532661D01*
X139200000Y-88526447D01*
X139879474Y-89205921D01*
X139911859Y-89161349D01*
X140004755Y-88979031D01*
X140067990Y-88784417D01*
X140100000Y-88582317D01*
X140100000Y-88377682D01*
X140067990Y-88175582D01*
X140004755Y-87980968D01*
X139911859Y-87798650D01*
X139879474Y-87754077D01*
X139879474Y-87754076D01*
X139200000Y-88433551D01*
X139200000Y-88427339D01*
X139172741Y-88325606D01*
X139120080Y-88234394D01*
X139045606Y-88159920D01*
X138954394Y-88107259D01*
X138852661Y-88080000D01*
X138846446Y-88080000D01*
X139525922Y-87400524D01*
X139525921Y-87400523D01*
X139481359Y-87368147D01*
X139481350Y-87368141D01*
X139299031Y-87275244D01*
X139104417Y-87212009D01*
X138902317Y-87180000D01*
X138697683Y-87180000D01*
X138495582Y-87212009D01*
X138300968Y-87275244D01*
X138118644Y-87368143D01*
X138074077Y-87400523D01*
X138074077Y-87400524D01*
X138753554Y-88080000D01*
X138747339Y-88080000D01*
X138645606Y-88107259D01*
X138554394Y-88159920D01*
X138479920Y-88234394D01*
X138427259Y-88325606D01*
X138400000Y-88427339D01*
X138400000Y-88433553D01*
X137720524Y-87754077D01*
X137720523Y-87754077D01*
X137688143Y-87798644D01*
X137595244Y-87980968D01*
X137532009Y-88175582D01*
X137500000Y-88377682D01*
X137500000Y-88582317D01*
X137532009Y-88784417D01*
X137595244Y-88979031D01*
X137688141Y-89161350D01*
X137688147Y-89161359D01*
X137720523Y-89205921D01*
X137720524Y-89205922D01*
X138400000Y-88526446D01*
X138400000Y-88532661D01*
X138427259Y-88634394D01*
X138479920Y-88725606D01*
X138554394Y-88800080D01*
X138645606Y-88852741D01*
X138747339Y-88880000D01*
X138753553Y-88880000D01*
X138074076Y-89559474D01*
X138118652Y-89591861D01*
X138211628Y-89639234D01*
X138262425Y-89687208D01*
X138279220Y-89755029D01*
X138256683Y-89821164D01*
X138211630Y-89860203D01*
X138118388Y-89907713D01*
X137997123Y-89995818D01*
X137931317Y-90019298D01*
X137924238Y-90019500D01*
X132055762Y-90019500D01*
X131988723Y-89999815D01*
X131982877Y-89995818D01*
X131861613Y-89907715D01*
X131861612Y-89907714D01*
X131861610Y-89907713D01*
X131768917Y-89860483D01*
X131718123Y-89812511D01*
X131701328Y-89744690D01*
X131723865Y-89678555D01*
X131768917Y-89639516D01*
X131861610Y-89592287D01*
X131904445Y-89561166D01*
X132027213Y-89471971D01*
X132027215Y-89471968D01*
X132027219Y-89471966D01*
X132171966Y-89327219D01*
X132171968Y-89327215D01*
X132171971Y-89327213D01*
X132245983Y-89225342D01*
X132292287Y-89161610D01*
X132385220Y-88979219D01*
X132448477Y-88784534D01*
X132480500Y-88582352D01*
X132480500Y-88377648D01*
X132464857Y-88278881D01*
X132448477Y-88175465D01*
X132400940Y-88029163D01*
X132385220Y-87980781D01*
X132385218Y-87980778D01*
X132385218Y-87980776D01*
X132324087Y-87860801D01*
X132292287Y-87798390D01*
X132277420Y-87777927D01*
X132171971Y-87632786D01*
X132027213Y-87488028D01*
X131861613Y-87367715D01*
X131861612Y-87367714D01*
X131861610Y-87367713D01*
X131803189Y-87337946D01*
X131679223Y-87274781D01*
X131484534Y-87211522D01*
X131309995Y-87183878D01*
X131282352Y-87179500D01*
X131077648Y-87179500D01*
X131053329Y-87183351D01*
X130875465Y-87211522D01*
X130680776Y-87274781D01*
X130498386Y-87367715D01*
X130377123Y-87455818D01*
X130311317Y-87479298D01*
X130304238Y-87479500D01*
X127345782Y-87479500D01*
X127278743Y-87459815D01*
X127258101Y-87443181D01*
X125026717Y-85211797D01*
X124993232Y-85150474D01*
X124991925Y-85143513D01*
X124990629Y-85135333D01*
X124968477Y-84995466D01*
X124968016Y-84994048D01*
X124939127Y-84905137D01*
X124905220Y-84800781D01*
X124905218Y-84800778D01*
X124905218Y-84800776D01*
X124867553Y-84726856D01*
X124812287Y-84618390D01*
X124794615Y-84594066D01*
X124691971Y-84452786D01*
X124547213Y-84308028D01*
X124381613Y-84187715D01*
X124381612Y-84187714D01*
X124381610Y-84187713D01*
X124324653Y-84158691D01*
X124199223Y-84094781D01*
X124004534Y-84031522D01*
X123829995Y-84003878D01*
X123802352Y-83999500D01*
X123597648Y-83999500D01*
X123573329Y-84003351D01*
X123395465Y-84031522D01*
X123200776Y-84094781D01*
X123018386Y-84187715D01*
X122897123Y-84275818D01*
X122831317Y-84299298D01*
X122824238Y-84299500D01*
X115205633Y-84299500D01*
X115138594Y-84279815D01*
X115132746Y-84275817D01*
X115129200Y-84273240D01*
X114960836Y-84187454D01*
X114781118Y-84129059D01*
X114594486Y-84099500D01*
X114594481Y-84099500D01*
X114405519Y-84099500D01*
X114405514Y-84099500D01*
X114218881Y-84129059D01*
X114039163Y-84187454D01*
X113870800Y-84273240D01*
X113822911Y-84308034D01*
X113717927Y-84384310D01*
X113717925Y-84384312D01*
X113717924Y-84384312D01*
X113584312Y-84517924D01*
X113584312Y-84517925D01*
X113584310Y-84517927D01*
X113536610Y-84583579D01*
X113473240Y-84670800D01*
X113387454Y-84839163D01*
X113329059Y-85018881D01*
X113299500Y-85205513D01*
X113299500Y-85394486D01*
X113329059Y-85581118D01*
X113387454Y-85760836D01*
X113470750Y-85924313D01*
X113473240Y-85929199D01*
X113584310Y-86082073D01*
X113717927Y-86215690D01*
X113870801Y-86326760D01*
X113950347Y-86367290D01*
X114039163Y-86412545D01*
X114039165Y-86412545D01*
X114039168Y-86412547D01*
X114135497Y-86443846D01*
X114218881Y-86470940D01*
X114405514Y-86500500D01*
X114405519Y-86500500D01*
X114594486Y-86500500D01*
X114781118Y-86470940D01*
X114960832Y-86412547D01*
X115129199Y-86326760D01*
X115132746Y-86324183D01*
X115198552Y-86300702D01*
X115205633Y-86300500D01*
X122824238Y-86300500D01*
X122891277Y-86320185D01*
X122897119Y-86324179D01*
X123018390Y-86412287D01*
X123133503Y-86470940D01*
X123200776Y-86505218D01*
X123200778Y-86505218D01*
X123200781Y-86505220D01*
X123305137Y-86539127D01*
X123395465Y-86568477D01*
X123472966Y-86580751D01*
X123543513Y-86591925D01*
X123606648Y-86621854D01*
X123611797Y-86626717D01*
X124072899Y-87087819D01*
X124106384Y-87149142D01*
X124101400Y-87218834D01*
X124059528Y-87274767D01*
X123994064Y-87299184D01*
X123985218Y-87299500D01*
X120201454Y-87299500D01*
X120169391Y-87305876D01*
X120169392Y-87305877D01*
X120008170Y-87337946D01*
X120008164Y-87337948D01*
X119826088Y-87413366D01*
X119826079Y-87413371D01*
X119662219Y-87522859D01*
X119662215Y-87522862D01*
X117384301Y-89800778D01*
X116662220Y-90522859D01*
X116662218Y-90522861D01*
X116623030Y-90562049D01*
X116522859Y-90662219D01*
X116413371Y-90826079D01*
X116413364Y-90826092D01*
X116337950Y-91008160D01*
X116337947Y-91008170D01*
X116299500Y-91201456D01*
X116299500Y-99934216D01*
X116290855Y-99963653D01*
X116284332Y-99993644D01*
X116280577Y-99998659D01*
X116279815Y-100001255D01*
X116263180Y-100021898D01*
X116207179Y-100077898D01*
X116145856Y-100111382D01*
X116076164Y-100106397D01*
X116020231Y-100064526D01*
X115995815Y-99999061D01*
X115995499Y-99990239D01*
X115995499Y-98989992D01*
X115984999Y-98887203D01*
X115929814Y-98720666D01*
X115837712Y-98571344D01*
X115731817Y-98465449D01*
X115698334Y-98404127D01*
X115695500Y-98377769D01*
X115695500Y-94924057D01*
X115709018Y-94867757D01*
X115710328Y-94865186D01*
X115712547Y-94860832D01*
X115770940Y-94681118D01*
X115782494Y-94608167D01*
X115800500Y-94494486D01*
X115800500Y-94305513D01*
X115770940Y-94118881D01*
X115721313Y-93966148D01*
X115712547Y-93939168D01*
X115712545Y-93939165D01*
X115712545Y-93939163D01*
X115645797Y-93808164D01*
X115626760Y-93770801D01*
X115626758Y-93770798D01*
X115626757Y-93770796D01*
X115624179Y-93767247D01*
X115600702Y-93701439D01*
X115600500Y-93694366D01*
X115600500Y-90894245D01*
X115612102Y-90845924D01*
X115610681Y-90845336D01*
X115612538Y-90840848D01*
X115612547Y-90840832D01*
X115670940Y-90661118D01*
X115679267Y-90608541D01*
X115700500Y-90474486D01*
X115700500Y-90285513D01*
X115670940Y-90098881D01*
X115637452Y-89995818D01*
X115612547Y-89919168D01*
X115612545Y-89919165D01*
X115612545Y-89919163D01*
X115552224Y-89800778D01*
X115526760Y-89750801D01*
X115415690Y-89597927D01*
X115282073Y-89464310D01*
X115129199Y-89353240D01*
X115078130Y-89327219D01*
X114960836Y-89267454D01*
X114781118Y-89209059D01*
X114594486Y-89179500D01*
X114594481Y-89179500D01*
X114405519Y-89179500D01*
X114405514Y-89179500D01*
X114218881Y-89209059D01*
X114039163Y-89267454D01*
X113870800Y-89353240D01*
X113798614Y-89405687D01*
X113717927Y-89464310D01*
X113717925Y-89464312D01*
X113717924Y-89464312D01*
X113584312Y-89597924D01*
X113584312Y-89597925D01*
X113584310Y-89597927D01*
X113538528Y-89660940D01*
X113473240Y-89750800D01*
X113387454Y-89919163D01*
X113329059Y-90098881D01*
X113299500Y-90285513D01*
X113299500Y-90474486D01*
X113329059Y-90661118D01*
X113387454Y-90840836D01*
X113436850Y-90937780D01*
X113473240Y-91009199D01*
X113575819Y-91150386D01*
X113599298Y-91216189D01*
X113599500Y-91223269D01*
X113599500Y-93694366D01*
X113579815Y-93761405D01*
X113575821Y-93767247D01*
X113573242Y-93770796D01*
X113487454Y-93939163D01*
X113429059Y-94118881D01*
X113399500Y-94305513D01*
X113399500Y-94494486D01*
X113429059Y-94681118D01*
X113487454Y-94860836D01*
X113557065Y-94997454D01*
X113573240Y-95029199D01*
X113670818Y-95163503D01*
X113694298Y-95229308D01*
X113694500Y-95236388D01*
X113694500Y-98377769D01*
X113685856Y-98407205D01*
X113679333Y-98437195D01*
X113675577Y-98442211D01*
X113674815Y-98444808D01*
X113658182Y-98465449D01*
X113600452Y-98523180D01*
X113539129Y-98556666D01*
X113512770Y-98559500D01*
X110305633Y-98559500D01*
X110238594Y-98539815D01*
X110232746Y-98535817D01*
X110229200Y-98533240D01*
X110060836Y-98447454D01*
X109881118Y-98389059D01*
X109694486Y-98359500D01*
X109694481Y-98359500D01*
X109505519Y-98359500D01*
X109505514Y-98359500D01*
X109318878Y-98389060D01*
X109314139Y-98390198D01*
X109313727Y-98388484D01*
X109259697Y-98391665D01*
X109198542Y-98379500D01*
X109198540Y-98379500D01*
X109001460Y-98379500D01*
X109001457Y-98379500D01*
X108808171Y-98417947D01*
X108808163Y-98417949D01*
X108626089Y-98493367D01*
X108626080Y-98493372D01*
X108558390Y-98538602D01*
X108491713Y-98559480D01*
X108489499Y-98559500D01*
X106232683Y-98559500D01*
X106227431Y-98557957D01*
X106222066Y-98559045D01*
X106194263Y-98548218D01*
X106165644Y-98539815D01*
X106160706Y-98535151D01*
X106156958Y-98533692D01*
X106132362Y-98508381D01*
X106124179Y-98497117D01*
X106100702Y-98431309D01*
X106100500Y-98424236D01*
X106100500Y-95365782D01*
X106120185Y-95298743D01*
X106136819Y-95278101D01*
X107028102Y-94386818D01*
X107089425Y-94353333D01*
X107115783Y-94350499D01*
X107897871Y-94350499D01*
X107897872Y-94350499D01*
X107957483Y-94344091D01*
X108092331Y-94293796D01*
X108207546Y-94207546D01*
X108293796Y-94092331D01*
X108344091Y-93957483D01*
X108350500Y-93897873D01*
X108350499Y-92102128D01*
X108344091Y-92042517D01*
X108343221Y-92040185D01*
X108293797Y-91907671D01*
X108293793Y-91907664D01*
X108207547Y-91792455D01*
X108207544Y-91792452D01*
X108092335Y-91706206D01*
X108092328Y-91706202D01*
X107957482Y-91655908D01*
X107957483Y-91655908D01*
X107897883Y-91649501D01*
X107897881Y-91649500D01*
X107897873Y-91649500D01*
X107897864Y-91649500D01*
X106102129Y-91649500D01*
X106102123Y-91649501D01*
X106042516Y-91655908D01*
X105907671Y-91706202D01*
X105907664Y-91706206D01*
X105792455Y-91792452D01*
X105792452Y-91792455D01*
X105706206Y-91907664D01*
X105706202Y-91907671D01*
X105655908Y-92042517D01*
X105649603Y-92101166D01*
X105649501Y-92102123D01*
X105649500Y-92102135D01*
X105649500Y-92884216D01*
X105629815Y-92951255D01*
X105613180Y-92971897D01*
X104462220Y-94122859D01*
X104462218Y-94122861D01*
X104426784Y-94158295D01*
X104322859Y-94262219D01*
X104213371Y-94426079D01*
X104213364Y-94426092D01*
X104161227Y-94551965D01*
X104161227Y-94551966D01*
X104144713Y-94591836D01*
X104139929Y-94603384D01*
X104137948Y-94608167D01*
X104137947Y-94608171D01*
X104099500Y-94801454D01*
X104099500Y-98424237D01*
X104079815Y-98491276D01*
X104075818Y-98497122D01*
X103987715Y-98618386D01*
X103894781Y-98800776D01*
X103831522Y-98995465D01*
X103799500Y-99197648D01*
X103799500Y-99402351D01*
X103831522Y-99604534D01*
X103894781Y-99799223D01*
X103943345Y-99894534D01*
X103978563Y-99963653D01*
X103987715Y-99981613D01*
X104108028Y-100147213D01*
X104252786Y-100291971D01*
X104383303Y-100386795D01*
X104418390Y-100412287D01*
X104534607Y-100471503D01*
X104600776Y-100505218D01*
X104600778Y-100505218D01*
X104600781Y-100505220D01*
X104705137Y-100539127D01*
X104795465Y-100568477D01*
X104869386Y-100580185D01*
X104997648Y-100600500D01*
X104997649Y-100600500D01*
X105202351Y-100600500D01*
X105202352Y-100600500D01*
X105404534Y-100568477D01*
X105410403Y-100566569D01*
X105412728Y-100566201D01*
X105413780Y-100565526D01*
X105448635Y-100560513D01*
X105448714Y-100560501D01*
X105458541Y-100560501D01*
X105458544Y-100560500D01*
X105464667Y-100560500D01*
X108834599Y-100560500D01*
X108901638Y-100580185D01*
X108903487Y-100581395D01*
X109016086Y-100656631D01*
X109198164Y-100732051D01*
X109341187Y-100760500D01*
X109391455Y-100770499D01*
X109391458Y-100770500D01*
X109391460Y-100770500D01*
X109588541Y-100770500D01*
X109608237Y-100766581D01*
X109626833Y-100762882D01*
X109651025Y-100760500D01*
X109694486Y-100760500D01*
X109881118Y-100730940D01*
X110060832Y-100672547D01*
X110229199Y-100586760D01*
X110232746Y-100584183D01*
X110298552Y-100560702D01*
X110305633Y-100560500D01*
X113454178Y-100560500D01*
X113521217Y-100580185D01*
X113547089Y-100603640D01*
X113547181Y-100603549D01*
X113549043Y-100605411D01*
X113551441Y-100607585D01*
X113552287Y-100608655D01*
X113552288Y-100608656D01*
X113676344Y-100732712D01*
X113825666Y-100824814D01*
X113907570Y-100851954D01*
X113965015Y-100891727D01*
X113991838Y-100956243D01*
X113979523Y-101025018D01*
X113941451Y-101069978D01*
X113847787Y-101138028D01*
X113847782Y-101138032D01*
X113703028Y-101282786D01*
X113582715Y-101448386D01*
X113489781Y-101630776D01*
X113426522Y-101825465D01*
X113394500Y-102027648D01*
X113394500Y-102232351D01*
X113426522Y-102434534D01*
X113489781Y-102629223D01*
X113553691Y-102754653D01*
X113576987Y-102800373D01*
X113582715Y-102811613D01*
X113703028Y-102977213D01*
X113847786Y-103121971D01*
X113985625Y-103222115D01*
X114013390Y-103242287D01*
X114104840Y-103288883D01*
X114106080Y-103289515D01*
X114156876Y-103337490D01*
X114173671Y-103405311D01*
X114151134Y-103471446D01*
X114106080Y-103510485D01*
X114013386Y-103557715D01*
X113892123Y-103645818D01*
X113826317Y-103669298D01*
X113819238Y-103669500D01*
X110346925Y-103669500D01*
X110279886Y-103649815D01*
X110274040Y-103645818D01*
X110229202Y-103613242D01*
X110229201Y-103613241D01*
X110229199Y-103613240D01*
X110173096Y-103584654D01*
X110060836Y-103527454D01*
X109881118Y-103469059D01*
X109694486Y-103439500D01*
X109694481Y-103439500D01*
X109505519Y-103439500D01*
X109505514Y-103439500D01*
X109318881Y-103469059D01*
X109139163Y-103527454D01*
X108970800Y-103613240D01*
X108954119Y-103625360D01*
X108817927Y-103724310D01*
X108817925Y-103724312D01*
X108817924Y-103724312D01*
X108684312Y-103857924D01*
X108684312Y-103857925D01*
X108684310Y-103857927D01*
X108653742Y-103900000D01*
X108573240Y-104010800D01*
X108487454Y-104179163D01*
X108429059Y-104358881D01*
X108399500Y-104545513D01*
X108399500Y-104734486D01*
X108429059Y-104921118D01*
X108454944Y-105000781D01*
X108483431Y-105088455D01*
X108489500Y-105126771D01*
X108489500Y-110394366D01*
X108469815Y-110461405D01*
X108465821Y-110467247D01*
X108463242Y-110470796D01*
X108377454Y-110639163D01*
X108319059Y-110818881D01*
X108289500Y-111005513D01*
X108289500Y-111194486D01*
X108319059Y-111381118D01*
X108377454Y-111560836D01*
X108450785Y-111704755D01*
X108463240Y-111729199D01*
X108574310Y-111882073D01*
X108707927Y-112015690D01*
X108860801Y-112126760D01*
X108940347Y-112167290D01*
X109029163Y-112212545D01*
X109029165Y-112212545D01*
X109029168Y-112212547D01*
X109125497Y-112243846D01*
X109208881Y-112270940D01*
X109395514Y-112300500D01*
X109395519Y-112300500D01*
X109584486Y-112300500D01*
X109771118Y-112270940D01*
X109812537Y-112257482D01*
X109950832Y-112212547D01*
X110119199Y-112126760D01*
X110272073Y-112015690D01*
X110405690Y-111882073D01*
X110516760Y-111729199D01*
X110602547Y-111560832D01*
X110660940Y-111381118D01*
X110668607Y-111332710D01*
X110690500Y-111194486D01*
X110690500Y-111005513D01*
X110660940Y-110818881D01*
X110618811Y-110689223D01*
X110602547Y-110639168D01*
X110602545Y-110639165D01*
X110602545Y-110639163D01*
X110531637Y-110499999D01*
X110516760Y-110470801D01*
X110516758Y-110470798D01*
X110516757Y-110470796D01*
X110514179Y-110467247D01*
X110490702Y-110401439D01*
X110490500Y-110394366D01*
X110490500Y-105794500D01*
X110510185Y-105727461D01*
X110562989Y-105681706D01*
X110614500Y-105670500D01*
X113819238Y-105670500D01*
X113886277Y-105690185D01*
X113892119Y-105694179D01*
X114013390Y-105782287D01*
X114106080Y-105829515D01*
X114106630Y-105829795D01*
X114157426Y-105877770D01*
X114174221Y-105945591D01*
X114151684Y-106011725D01*
X114106630Y-106050765D01*
X114013644Y-106098143D01*
X113969077Y-106130523D01*
X113969077Y-106130524D01*
X114648554Y-106810000D01*
X114642339Y-106810000D01*
X114540606Y-106837259D01*
X114449394Y-106889920D01*
X114374920Y-106964394D01*
X114322259Y-107055606D01*
X114295000Y-107157339D01*
X114295000Y-107163553D01*
X113615524Y-106484077D01*
X113615523Y-106484077D01*
X113583143Y-106528644D01*
X113490244Y-106710968D01*
X113427009Y-106905582D01*
X113395000Y-107107682D01*
X113395000Y-107312317D01*
X113427009Y-107514417D01*
X113490244Y-107709031D01*
X113583141Y-107891350D01*
X113583147Y-107891359D01*
X113615523Y-107935921D01*
X113615524Y-107935922D01*
X114295000Y-107256446D01*
X114295000Y-107262661D01*
X114322259Y-107364394D01*
X114374920Y-107455606D01*
X114449394Y-107530080D01*
X114540606Y-107582741D01*
X114642339Y-107610000D01*
X114648553Y-107610000D01*
X113969076Y-108289474D01*
X114013650Y-108321859D01*
X114195968Y-108414755D01*
X114390582Y-108477990D01*
X114592683Y-108510000D01*
X114797317Y-108510000D01*
X114999417Y-108477990D01*
X115194031Y-108414755D01*
X115376349Y-108321859D01*
X115420921Y-108289474D01*
X114741447Y-107610000D01*
X114747661Y-107610000D01*
X114849394Y-107582741D01*
X114940606Y-107530080D01*
X115015080Y-107455606D01*
X115067741Y-107364394D01*
X115095000Y-107262661D01*
X115095000Y-107256447D01*
X115774474Y-107935921D01*
X115806859Y-107891349D01*
X115899755Y-107709031D01*
X115962990Y-107514417D01*
X115995000Y-107312317D01*
X115995000Y-107107682D01*
X115962990Y-106905582D01*
X115899755Y-106710968D01*
X115806859Y-106528650D01*
X115774474Y-106484077D01*
X115774474Y-106484076D01*
X115095000Y-107163551D01*
X115095000Y-107157339D01*
X115067741Y-107055606D01*
X115015080Y-106964394D01*
X114940606Y-106889920D01*
X114849394Y-106837259D01*
X114747661Y-106810000D01*
X114741446Y-106810000D01*
X115420922Y-106130524D01*
X115420921Y-106130523D01*
X115376359Y-106098147D01*
X115376350Y-106098141D01*
X115283369Y-106050765D01*
X115232573Y-106002790D01*
X115215778Y-105934969D01*
X115238315Y-105868835D01*
X115283370Y-105829795D01*
X115292714Y-105825034D01*
X115376610Y-105782287D01*
X115459728Y-105721899D01*
X115542213Y-105661971D01*
X115542215Y-105661968D01*
X115542219Y-105661966D01*
X115686966Y-105517219D01*
X115686968Y-105517215D01*
X115686971Y-105517213D01*
X115739732Y-105444590D01*
X115807287Y-105351610D01*
X115900220Y-105169219D01*
X115963477Y-104974534D01*
X115995500Y-104772352D01*
X115995500Y-104567648D01*
X115963477Y-104365466D01*
X115961337Y-104358881D01*
X115925095Y-104247339D01*
X115900220Y-104170781D01*
X115900218Y-104170778D01*
X115900218Y-104170776D01*
X115860342Y-104092516D01*
X115807287Y-103988390D01*
X115784967Y-103957669D01*
X115686971Y-103822786D01*
X115542213Y-103678028D01*
X115376614Y-103557715D01*
X115317221Y-103527453D01*
X115283917Y-103510483D01*
X115233123Y-103462511D01*
X115216328Y-103394690D01*
X115238865Y-103328555D01*
X115283917Y-103289516D01*
X115376610Y-103242287D01*
X115497877Y-103154181D01*
X115512999Y-103148407D01*
X115523981Y-103139663D01*
X115548445Y-103134871D01*
X115558229Y-103131135D01*
X115564479Y-103130500D01*
X115668540Y-103130500D01*
X115668541Y-103130500D01*
X115771369Y-103110046D01*
X115861836Y-103092051D01*
X115923205Y-103066631D01*
X116043914Y-103016632D01*
X116207782Y-102907139D01*
X116347139Y-102767782D01*
X116347139Y-102767780D01*
X116357347Y-102757573D01*
X116357348Y-102757570D01*
X118077139Y-101037782D01*
X118102718Y-100999500D01*
X118172398Y-100895217D01*
X118226010Y-100850412D01*
X118295335Y-100841705D01*
X118295337Y-100841705D01*
X118358364Y-100871860D01*
X118372791Y-100895217D01*
X118395082Y-100931303D01*
X118399500Y-100964108D01*
X118399500Y-102998545D01*
X118402774Y-103015005D01*
X118402784Y-103015052D01*
X118403099Y-103016632D01*
X118437949Y-103191836D01*
X118444713Y-103208165D01*
X118448753Y-103217919D01*
X118448754Y-103217922D01*
X118513364Y-103373907D01*
X118513371Y-103373920D01*
X118622860Y-103537781D01*
X118622863Y-103537785D01*
X118766537Y-103681459D01*
X118766559Y-103681479D01*
X119667398Y-104582318D01*
X119700883Y-104643641D01*
X119695899Y-104713333D01*
X119667398Y-104757680D01*
X118062298Y-106362781D01*
X116472221Y-107952858D01*
X116472218Y-107952861D01*
X116412204Y-108012875D01*
X116332859Y-108092219D01*
X116223371Y-108256080D01*
X116223366Y-108256089D01*
X116198023Y-108317273D01*
X116198020Y-108317281D01*
X116195947Y-108322287D01*
X116147949Y-108438164D01*
X116128724Y-108534812D01*
X116127407Y-108541429D01*
X116127405Y-108541438D01*
X116109500Y-108631455D01*
X116109500Y-110394366D01*
X116089815Y-110461405D01*
X116085821Y-110467247D01*
X116083242Y-110470796D01*
X115997454Y-110639163D01*
X115939059Y-110818881D01*
X115909500Y-111005513D01*
X115909500Y-111194486D01*
X115939059Y-111381118D01*
X115997454Y-111560836D01*
X116085452Y-111733540D01*
X116083628Y-111734469D01*
X116099500Y-111790704D01*
X116099500Y-114885858D01*
X116079815Y-114952897D01*
X116027011Y-114998652D01*
X116018847Y-115002034D01*
X116007669Y-115006204D01*
X116007664Y-115006206D01*
X115892455Y-115092452D01*
X115892452Y-115092455D01*
X115806206Y-115207664D01*
X115806202Y-115207671D01*
X115755908Y-115342517D01*
X115752701Y-115372351D01*
X115749501Y-115402123D01*
X115749500Y-115402135D01*
X115749500Y-117197870D01*
X115749501Y-117197876D01*
X115755908Y-117257483D01*
X115806202Y-117392328D01*
X115806206Y-117392335D01*
X115892452Y-117507544D01*
X115892455Y-117507547D01*
X116007664Y-117593793D01*
X116007671Y-117593797D01*
X116142517Y-117644091D01*
X116142516Y-117644091D01*
X116149444Y-117644835D01*
X116202127Y-117650500D01*
X117997872Y-117650499D01*
X118057483Y-117644091D01*
X118192331Y-117593796D01*
X118307546Y-117507546D01*
X118393796Y-117392331D01*
X118444091Y-117257483D01*
X118450500Y-117197873D01*
X118450499Y-115402128D01*
X118444091Y-115342517D01*
X118393796Y-115207669D01*
X118393795Y-115207668D01*
X118393793Y-115207664D01*
X118307547Y-115092455D01*
X118307544Y-115092452D01*
X118192335Y-115006206D01*
X118192332Y-115006205D01*
X118192331Y-115006204D01*
X118181161Y-115002038D01*
X118125231Y-114960166D01*
X118100816Y-114894701D01*
X118100500Y-114885858D01*
X118100500Y-111819396D01*
X118120185Y-111752357D01*
X118124184Y-111746508D01*
X118130345Y-111738028D01*
X118136760Y-111729199D01*
X118222547Y-111560832D01*
X118280940Y-111381118D01*
X118288607Y-111332710D01*
X118310500Y-111194486D01*
X118310500Y-111005513D01*
X118280940Y-110818881D01*
X118238811Y-110689223D01*
X118222547Y-110639168D01*
X118222545Y-110639165D01*
X118222545Y-110639163D01*
X118151637Y-110499999D01*
X118136760Y-110470801D01*
X118136758Y-110470798D01*
X118136757Y-110470796D01*
X118134179Y-110467247D01*
X118110702Y-110401439D01*
X118110500Y-110394366D01*
X118110500Y-109195781D01*
X118130185Y-109128742D01*
X118146814Y-109108105D01*
X121465395Y-105789523D01*
X121488261Y-105777037D01*
X121509022Y-105761295D01*
X121518432Y-105760563D01*
X121526716Y-105756040D01*
X121552705Y-105757898D01*
X121578681Y-105755879D01*
X121589079Y-105760499D01*
X121596408Y-105761024D01*
X121611826Y-105768008D01*
X121619189Y-105771969D01*
X121633390Y-105782287D01*
X121727305Y-105830139D01*
X121728537Y-105830802D01*
X121752448Y-105854418D01*
X121776876Y-105877490D01*
X121777222Y-105878887D01*
X121778247Y-105879900D01*
X121785592Y-105912687D01*
X121793671Y-105945311D01*
X121793206Y-105946674D01*
X121793521Y-105948080D01*
X121781983Y-105979608D01*
X121771134Y-106011446D01*
X121769960Y-106012462D01*
X121769510Y-106013694D01*
X121761738Y-106019587D01*
X121726080Y-106050485D01*
X121633386Y-106097715D01*
X121467786Y-106218028D01*
X121323028Y-106362786D01*
X121202715Y-106528386D01*
X121109781Y-106710776D01*
X121046522Y-106905465D01*
X121014500Y-107107648D01*
X121014500Y-107312351D01*
X121046522Y-107514534D01*
X121109781Y-107709223D01*
X121202580Y-107891349D01*
X121202713Y-107891610D01*
X121290819Y-108012877D01*
X121314298Y-108078681D01*
X121314500Y-108085761D01*
X121314500Y-111019217D01*
X121294815Y-111086256D01*
X121278181Y-111106898D01*
X119815810Y-112569269D01*
X119815808Y-112569271D01*
X119779566Y-112605513D01*
X119676449Y-112708629D01*
X119566961Y-112872489D01*
X119566954Y-112872502D01*
X119491540Y-113054570D01*
X119491537Y-113054580D01*
X119453090Y-113247866D01*
X119453090Y-113247869D01*
X119453090Y-135792131D01*
X119453090Y-135792133D01*
X119453089Y-135792133D01*
X119491537Y-135985419D01*
X119491540Y-135985429D01*
X119566954Y-136167497D01*
X119566961Y-136167510D01*
X119676450Y-136331371D01*
X119676453Y-136331375D01*
X119820127Y-136475049D01*
X119820149Y-136475069D01*
X126219735Y-142874655D01*
X126219764Y-142874686D01*
X126362214Y-143017136D01*
X126362218Y-143017139D01*
X126526079Y-143126628D01*
X126526092Y-143126635D01*
X126654833Y-143179961D01*
X126697744Y-143197735D01*
X126708164Y-143202051D01*
X126804812Y-143221275D01*
X126853135Y-143230887D01*
X126901458Y-143240500D01*
X126901459Y-143240500D01*
X138908542Y-143240500D01*
X138939566Y-143234328D01*
X139005188Y-143221275D01*
X139101836Y-143202051D01*
X139155165Y-143179961D01*
X139283914Y-143126632D01*
X139447782Y-143017139D01*
X139587139Y-142877782D01*
X139587140Y-142877779D01*
X139594206Y-142870714D01*
X139594209Y-142870710D01*
X143637778Y-138827141D01*
X143637782Y-138827139D01*
X143777139Y-138687782D01*
X143886632Y-138523914D01*
X143914194Y-138457372D01*
X143939961Y-138395166D01*
X143939961Y-138395165D01*
X143940258Y-138394447D01*
X143962051Y-138341836D01*
X144000500Y-138148540D01*
X144000500Y-137951460D01*
X144000500Y-135524500D01*
X144020185Y-135457461D01*
X144072989Y-135411706D01*
X144124500Y-135400500D01*
X146195500Y-135400500D01*
X146262539Y-135420185D01*
X146308294Y-135472989D01*
X146319500Y-135524500D01*
X146319500Y-138285858D01*
X146299815Y-138352897D01*
X146247011Y-138398652D01*
X146238847Y-138402034D01*
X146227669Y-138406204D01*
X146227664Y-138406206D01*
X146112455Y-138492452D01*
X146112452Y-138492455D01*
X146026206Y-138607664D01*
X146026202Y-138607671D01*
X145975908Y-138742517D01*
X145970443Y-138793354D01*
X145969501Y-138802123D01*
X145969500Y-138802135D01*
X145969500Y-140597870D01*
X145969501Y-140597876D01*
X145975908Y-140657483D01*
X146026202Y-140792328D01*
X146026206Y-140792335D01*
X146112452Y-140907544D01*
X146112455Y-140907547D01*
X146227664Y-140993793D01*
X146227671Y-140993797D01*
X146362517Y-141044091D01*
X146362516Y-141044091D01*
X146369444Y-141044835D01*
X146422127Y-141050500D01*
X148217872Y-141050499D01*
X148277483Y-141044091D01*
X148412331Y-140993796D01*
X148527546Y-140907546D01*
X148613796Y-140792331D01*
X148664091Y-140657483D01*
X148670500Y-140597873D01*
X148670499Y-138802128D01*
X148664091Y-138742517D01*
X148653758Y-138714814D01*
X148613797Y-138607671D01*
X148613793Y-138607664D01*
X148527547Y-138492455D01*
X148527544Y-138492452D01*
X148412335Y-138406206D01*
X148412332Y-138406205D01*
X148412331Y-138406204D01*
X148401161Y-138402038D01*
X148345231Y-138360166D01*
X148320816Y-138294701D01*
X148320500Y-138285858D01*
X148320500Y-135785872D01*
X148340185Y-135718833D01*
X148392989Y-135673078D01*
X148406173Y-135667944D01*
X148599219Y-135605220D01*
X148781610Y-135512287D01*
X148908379Y-135420185D01*
X148947213Y-135391971D01*
X148947215Y-135391968D01*
X148947219Y-135391966D01*
X149091966Y-135247219D01*
X149091968Y-135247215D01*
X149091971Y-135247213D01*
X149144732Y-135174590D01*
X149212287Y-135081610D01*
X149305220Y-134899219D01*
X149368477Y-134704534D01*
X149400500Y-134502352D01*
X149400500Y-134297648D01*
X149368823Y-134097648D01*
X150799500Y-134097648D01*
X150799500Y-134302351D01*
X150831522Y-134504534D01*
X150894781Y-134699223D01*
X150987713Y-134881610D01*
X151075819Y-135002877D01*
X151099298Y-135068681D01*
X151099500Y-135075761D01*
X151099500Y-136098544D01*
X151134274Y-136273365D01*
X151137948Y-136291832D01*
X151137950Y-136291840D01*
X151213364Y-136473907D01*
X151213371Y-136473920D01*
X151322860Y-136637781D01*
X151322863Y-136637785D01*
X151466537Y-136781459D01*
X151466559Y-136781479D01*
X153322861Y-138637781D01*
X153943188Y-139258109D01*
X153943189Y-139258110D01*
X154082546Y-139397467D01*
X154082547Y-139397468D01*
X154246407Y-139506956D01*
X154246420Y-139506963D01*
X154375161Y-139560289D01*
X154428487Y-139582377D01*
X154428492Y-139582379D01*
X154509744Y-139598541D01*
X154537754Y-139604112D01*
X154621784Y-139620828D01*
X154621787Y-139620828D01*
X154621788Y-139620828D01*
X154818868Y-139620828D01*
X159533765Y-139620828D01*
X159600804Y-139640513D01*
X159606652Y-139644511D01*
X159610197Y-139647087D01*
X159778561Y-139732873D01*
X159778563Y-139732873D01*
X159778566Y-139732875D01*
X159874895Y-139764174D01*
X159958279Y-139791268D01*
X160144912Y-139820828D01*
X160144917Y-139820828D01*
X160333884Y-139820828D01*
X160520516Y-139791268D01*
X160700230Y-139732875D01*
X160868597Y-139647088D01*
X161021471Y-139536018D01*
X161155088Y-139402401D01*
X161223760Y-139307882D01*
X168345669Y-139307882D01*
X168345670Y-139307883D01*
X168371059Y-139326329D01*
X168539362Y-139412085D01*
X168718997Y-139470451D01*
X168905553Y-139500000D01*
X169094447Y-139500000D01*
X169281002Y-139470451D01*
X169460637Y-139412085D01*
X169628937Y-139326331D01*
X169654328Y-139307883D01*
X169654328Y-139307882D01*
X169000001Y-138653554D01*
X169000000Y-138653554D01*
X168345669Y-139307882D01*
X161223760Y-139307882D01*
X161266158Y-139249527D01*
X161351945Y-139081160D01*
X161410338Y-138901446D01*
X161418486Y-138850000D01*
X161439898Y-138714814D01*
X161439898Y-138525841D01*
X161410338Y-138339209D01*
X161377779Y-138239005D01*
X161367121Y-138206204D01*
X161366909Y-138205552D01*
X167800000Y-138205552D01*
X167800000Y-138394447D01*
X167829548Y-138581002D01*
X167887914Y-138760637D01*
X167973666Y-138928933D01*
X167992116Y-138954328D01*
X168646446Y-138300000D01*
X168646446Y-138299999D01*
X168600369Y-138253922D01*
X168650000Y-138253922D01*
X168650000Y-138346078D01*
X168673852Y-138435095D01*
X168719930Y-138514905D01*
X168785095Y-138580070D01*
X168864905Y-138626148D01*
X168953922Y-138650000D01*
X169046078Y-138650000D01*
X169135095Y-138626148D01*
X169214905Y-138580070D01*
X169280070Y-138514905D01*
X169326148Y-138435095D01*
X169350000Y-138346078D01*
X169350000Y-138299999D01*
X169353554Y-138299999D01*
X169353554Y-138300000D01*
X170007882Y-138954328D01*
X170007883Y-138954328D01*
X170026331Y-138928937D01*
X170112085Y-138760637D01*
X170170451Y-138581002D01*
X170200000Y-138394447D01*
X170200000Y-138205552D01*
X170170451Y-138018997D01*
X170112085Y-137839362D01*
X170026329Y-137671059D01*
X170007883Y-137645670D01*
X170007882Y-137645669D01*
X169353554Y-138299999D01*
X169350000Y-138299999D01*
X169350000Y-138253922D01*
X169326148Y-138164905D01*
X169280070Y-138085095D01*
X169214905Y-138019930D01*
X169135095Y-137973852D01*
X169046078Y-137950000D01*
X168953922Y-137950000D01*
X168864905Y-137973852D01*
X168785095Y-138019930D01*
X168719930Y-138085095D01*
X168673852Y-138164905D01*
X168650000Y-138253922D01*
X168600369Y-138253922D01*
X167992116Y-137645669D01*
X167992116Y-137645670D01*
X167973669Y-137671060D01*
X167887914Y-137839362D01*
X167829548Y-138018997D01*
X167800000Y-138205552D01*
X161366909Y-138205552D01*
X161351945Y-138159496D01*
X161351943Y-138159493D01*
X161351943Y-138159491D01*
X161294436Y-138046628D01*
X161266158Y-137991129D01*
X161155088Y-137838255D01*
X161021471Y-137704638D01*
X160868597Y-137593568D01*
X160848855Y-137583509D01*
X160700234Y-137507782D01*
X160544885Y-137457306D01*
X160520516Y-137449387D01*
X160333884Y-137419828D01*
X160333879Y-137419828D01*
X160144917Y-137419828D01*
X160144912Y-137419828D01*
X159958279Y-137449387D01*
X159778561Y-137507782D01*
X159610197Y-137593568D01*
X159606652Y-137596145D01*
X159540846Y-137619626D01*
X159533765Y-137619828D01*
X155186111Y-137619828D01*
X155119072Y-137600143D01*
X155098430Y-137583509D01*
X154807036Y-137292116D01*
X168345669Y-137292116D01*
X169000000Y-137946446D01*
X169000001Y-137946446D01*
X169654328Y-137292116D01*
X169628933Y-137273666D01*
X169460637Y-137187914D01*
X169281002Y-137129548D01*
X169094447Y-137100000D01*
X168905553Y-137100000D01*
X168718997Y-137129548D01*
X168539362Y-137187914D01*
X168371060Y-137273669D01*
X168345670Y-137292116D01*
X168345669Y-137292116D01*
X154807036Y-137292116D01*
X154737781Y-137222861D01*
X153136819Y-135621899D01*
X153103334Y-135560576D01*
X153100500Y-135534218D01*
X153100500Y-135075761D01*
X153120185Y-135008722D01*
X153124165Y-135002899D01*
X153212287Y-134881610D01*
X153305220Y-134699219D01*
X153368477Y-134504534D01*
X153400500Y-134302352D01*
X153400500Y-134097648D01*
X153383779Y-133992075D01*
X153368477Y-133895465D01*
X153325182Y-133762219D01*
X153305220Y-133700781D01*
X153305218Y-133700778D01*
X153305218Y-133700776D01*
X153264541Y-133620945D01*
X153212287Y-133518390D01*
X153164308Y-133452352D01*
X153091971Y-133352786D01*
X152947213Y-133208028D01*
X152781613Y-133087715D01*
X152781612Y-133087714D01*
X152781610Y-133087713D01*
X152698694Y-133045465D01*
X152599223Y-132994781D01*
X152404534Y-132931522D01*
X152229995Y-132903878D01*
X152202352Y-132899500D01*
X151997648Y-132899500D01*
X151973329Y-132903351D01*
X151795465Y-132931522D01*
X151600776Y-132994781D01*
X151418386Y-133087715D01*
X151252786Y-133208028D01*
X151108028Y-133352786D01*
X150987715Y-133518386D01*
X150894781Y-133700776D01*
X150831522Y-133895465D01*
X150799500Y-134097648D01*
X149368823Y-134097648D01*
X149368477Y-134095466D01*
X149305220Y-133900781D01*
X149305218Y-133900778D01*
X149305218Y-133900776D01*
X149239443Y-133771687D01*
X149212287Y-133718390D01*
X149199490Y-133700776D01*
X149091971Y-133552786D01*
X148947213Y-133408028D01*
X148781613Y-133287715D01*
X148781612Y-133287714D01*
X148781610Y-133287713D01*
X148724653Y-133258691D01*
X148599223Y-133194781D01*
X148404534Y-133131522D01*
X148229995Y-133103878D01*
X148202352Y-133099500D01*
X147997648Y-133099500D01*
X147973329Y-133103351D01*
X147795465Y-133131522D01*
X147600776Y-133194781D01*
X147418386Y-133287715D01*
X147297123Y-133375818D01*
X147231317Y-133399298D01*
X147224238Y-133399500D01*
X143875762Y-133399500D01*
X143855341Y-133393503D01*
X143834092Y-133392289D01*
X143812621Y-133380959D01*
X143808723Y-133379815D01*
X143802877Y-133375818D01*
X143705154Y-133304818D01*
X143662488Y-133249488D01*
X143656509Y-133179875D01*
X143689115Y-133118080D01*
X143749953Y-133083723D01*
X143778039Y-133080500D01*
X145518542Y-133080500D01*
X145550614Y-133074120D01*
X145615188Y-133061275D01*
X145711836Y-133042051D01*
X145765165Y-133019961D01*
X145893914Y-132966632D01*
X146057782Y-132857139D01*
X146197139Y-132717782D01*
X146197139Y-132717780D01*
X146207347Y-132707573D01*
X146207348Y-132707570D01*
X148188204Y-130726715D01*
X148249525Y-130693232D01*
X148256475Y-130691926D01*
X148404534Y-130668477D01*
X148599219Y-130605220D01*
X148781610Y-130512287D01*
X148902877Y-130424181D01*
X148968683Y-130400702D01*
X148975762Y-130400500D01*
X151566614Y-130400500D01*
X151604932Y-130406569D01*
X151691323Y-130434639D01*
X151795466Y-130468477D01*
X151997648Y-130500500D01*
X151997649Y-130500500D01*
X152202351Y-130500500D01*
X152202352Y-130500500D01*
X152404534Y-130468477D01*
X152599219Y-130405220D01*
X152781610Y-130312287D01*
X152902877Y-130224181D01*
X152968683Y-130200702D01*
X152975762Y-130200500D01*
X154314367Y-130200500D01*
X154381406Y-130220185D01*
X154387254Y-130224183D01*
X154390799Y-130226759D01*
X154559163Y-130312545D01*
X154559165Y-130312545D01*
X154559168Y-130312547D01*
X154634765Y-130337110D01*
X154738881Y-130370940D01*
X154925514Y-130400500D01*
X154925519Y-130400500D01*
X155114486Y-130400500D01*
X155301118Y-130370940D01*
X155480832Y-130312547D01*
X155649199Y-130226760D01*
X155802073Y-130115690D01*
X155935690Y-129982073D01*
X156046760Y-129829199D01*
X156132547Y-129660832D01*
X156190940Y-129481118D01*
X156199113Y-129429515D01*
X156220500Y-129294486D01*
X156220500Y-129105513D01*
X158899500Y-129105513D01*
X158899500Y-129294486D01*
X158929059Y-129481118D01*
X158987454Y-129660836D01*
X159067548Y-129818028D01*
X159073240Y-129829199D01*
X159075814Y-129832742D01*
X159099297Y-129898546D01*
X159099500Y-129905632D01*
X159099500Y-133144033D01*
X159093431Y-133182352D01*
X159068457Y-133259209D01*
X159038898Y-133445841D01*
X159038898Y-133634814D01*
X159068457Y-133821446D01*
X159126852Y-134001164D01*
X159183415Y-134112174D01*
X159212638Y-134169527D01*
X159323708Y-134322401D01*
X159457325Y-134456018D01*
X159610199Y-134567088D01*
X159689745Y-134607618D01*
X159778561Y-134652873D01*
X159778563Y-134652873D01*
X159778566Y-134652875D01*
X159874895Y-134684174D01*
X159958279Y-134711268D01*
X160144912Y-134740828D01*
X160144917Y-134740828D01*
X160333884Y-134740828D01*
X160520516Y-134711268D01*
X160557586Y-134699223D01*
X160700230Y-134652875D01*
X160868597Y-134567088D01*
X161021471Y-134456018D01*
X161155088Y-134322401D01*
X161266158Y-134169527D01*
X161351945Y-134001160D01*
X161410338Y-133821446D01*
X161419719Y-133762219D01*
X161439898Y-133634814D01*
X161439898Y-133445841D01*
X161410338Y-133259209D01*
X161364482Y-133118080D01*
X161351945Y-133079496D01*
X161351943Y-133079493D01*
X161351943Y-133079491D01*
X161306688Y-132990675D01*
X161266158Y-132911129D01*
X161155088Y-132758255D01*
X161136819Y-132739986D01*
X161103334Y-132678663D01*
X161100500Y-132652305D01*
X161100500Y-131914782D01*
X161120185Y-131847743D01*
X161172989Y-131801988D01*
X161242147Y-131792044D01*
X161305703Y-131821069D01*
X161312181Y-131827101D01*
X163482215Y-133997137D01*
X163482219Y-133997140D01*
X163646079Y-134106628D01*
X163646085Y-134106631D01*
X163646086Y-134106632D01*
X163828165Y-134182052D01*
X164015578Y-134219331D01*
X164021455Y-134220500D01*
X164021458Y-134220501D01*
X164021460Y-134220501D01*
X164224655Y-134220501D01*
X164224675Y-134220500D01*
X168294367Y-134220500D01*
X168361406Y-134240185D01*
X168367254Y-134244183D01*
X168370799Y-134246759D01*
X168539163Y-134332545D01*
X168539165Y-134332545D01*
X168539168Y-134332547D01*
X168635497Y-134363846D01*
X168718881Y-134390940D01*
X168905514Y-134420500D01*
X168905519Y-134420500D01*
X169094486Y-134420500D01*
X169281118Y-134390940D01*
X169460832Y-134332547D01*
X169629199Y-134246760D01*
X169646511Y-134234182D01*
X169712318Y-134210702D01*
X169719397Y-134210500D01*
X175875500Y-134210500D01*
X175942539Y-134230185D01*
X175988294Y-134282989D01*
X175999500Y-134334500D01*
X175999500Y-138085858D01*
X175979815Y-138152897D01*
X175927011Y-138198652D01*
X175918847Y-138202034D01*
X175907669Y-138206204D01*
X175907664Y-138206206D01*
X175792455Y-138292452D01*
X175792452Y-138292455D01*
X175706206Y-138407664D01*
X175706202Y-138407671D01*
X175655908Y-138542517D01*
X175649501Y-138602116D01*
X175649501Y-138602123D01*
X175649500Y-138602135D01*
X175649500Y-140397870D01*
X175649501Y-140397876D01*
X175655908Y-140457483D01*
X175706202Y-140592328D01*
X175706206Y-140592335D01*
X175792452Y-140707544D01*
X175792455Y-140707547D01*
X175907664Y-140793793D01*
X175907671Y-140793797D01*
X176042517Y-140844091D01*
X176042516Y-140844091D01*
X176049444Y-140844835D01*
X176102127Y-140850500D01*
X177897872Y-140850499D01*
X177957483Y-140844091D01*
X178092331Y-140793796D01*
X178207546Y-140707546D01*
X178293796Y-140592331D01*
X178344091Y-140457483D01*
X178350500Y-140397873D01*
X178350499Y-138602128D01*
X178344091Y-138542517D01*
X178337873Y-138525847D01*
X178293797Y-138407671D01*
X178293793Y-138407664D01*
X178207547Y-138292455D01*
X178207544Y-138292452D01*
X178092335Y-138206206D01*
X178092332Y-138206205D01*
X178092331Y-138206204D01*
X178081161Y-138202038D01*
X178025231Y-138160166D01*
X178000816Y-138094701D01*
X178000500Y-138085858D01*
X178000500Y-134158625D01*
X178020185Y-134091586D01*
X178036819Y-134070944D01*
X178076153Y-134031610D01*
X178115690Y-133992073D01*
X178226760Y-133839199D01*
X178312547Y-133670832D01*
X178370940Y-133491118D01*
X178385483Y-133399298D01*
X178400500Y-133304486D01*
X178400500Y-133115513D01*
X178370940Y-132928881D01*
X178343846Y-132845497D01*
X178312547Y-132749168D01*
X178312545Y-132749165D01*
X178312545Y-132749163D01*
X178226759Y-132580800D01*
X178115690Y-132427927D01*
X177982073Y-132294310D01*
X177829199Y-132183240D01*
X177766800Y-132151446D01*
X177660836Y-132097454D01*
X177481118Y-132039059D01*
X177294486Y-132009500D01*
X177294481Y-132009500D01*
X177105519Y-132009500D01*
X177105514Y-132009500D01*
X176918881Y-132039059D01*
X176739163Y-132097454D01*
X176570799Y-132183240D01*
X176567254Y-132185817D01*
X176501448Y-132209298D01*
X176494367Y-132209500D01*
X169690705Y-132209500D01*
X169634462Y-132193641D01*
X169633540Y-132195452D01*
X169460836Y-132107454D01*
X169281118Y-132049059D01*
X169094486Y-132019500D01*
X169094481Y-132019500D01*
X168905519Y-132019500D01*
X168905514Y-132019500D01*
X168718881Y-132049059D01*
X168539163Y-132107454D01*
X168370799Y-132193240D01*
X168367254Y-132195817D01*
X168301448Y-132219298D01*
X168294367Y-132219500D01*
X164585783Y-132219500D01*
X164518744Y-132199815D01*
X164498102Y-132183181D01*
X163246240Y-130931319D01*
X161944465Y-129629545D01*
X161859933Y-129545013D01*
X184472500Y-129545013D01*
X184472500Y-130395000D01*
X185672499Y-130395000D01*
X185647479Y-130455402D01*
X185622500Y-130580981D01*
X185622500Y-130709019D01*
X185647479Y-130834598D01*
X185672499Y-130895000D01*
X184472501Y-130895000D01*
X184472501Y-131744986D01*
X184482994Y-131847697D01*
X184538141Y-132014119D01*
X184538143Y-132014124D01*
X184630184Y-132163345D01*
X184754154Y-132287315D01*
X184903375Y-132379356D01*
X184903380Y-132379358D01*
X185069802Y-132434505D01*
X185069809Y-132434506D01*
X185172519Y-132444999D01*
X186022499Y-132444999D01*
X186022500Y-132444998D01*
X186022500Y-131245001D01*
X186082902Y-131270021D01*
X186208481Y-131295000D01*
X186336519Y-131295000D01*
X186462098Y-131270021D01*
X186522500Y-131245001D01*
X186522500Y-132444999D01*
X187372472Y-132444999D01*
X187372486Y-132444998D01*
X187475197Y-132434505D01*
X187641619Y-132379358D01*
X187641624Y-132379356D01*
X187790845Y-132287315D01*
X187914815Y-132163345D01*
X188006856Y-132014124D01*
X188006858Y-132014119D01*
X188062005Y-131847697D01*
X188062006Y-131847690D01*
X188072499Y-131744986D01*
X188072500Y-131744973D01*
X188072500Y-130895000D01*
X186872501Y-130895000D01*
X186897521Y-130834598D01*
X186922500Y-130709019D01*
X186922500Y-130580981D01*
X186897521Y-130455402D01*
X186872501Y-130395000D01*
X188072499Y-130395000D01*
X188072499Y-129545028D01*
X188072498Y-129545013D01*
X188062005Y-129442302D01*
X188006858Y-129275880D01*
X188006856Y-129275875D01*
X187914815Y-129126654D01*
X187790845Y-129002684D01*
X187641624Y-128910643D01*
X187641619Y-128910641D01*
X187475197Y-128855494D01*
X187475190Y-128855493D01*
X187372486Y-128845000D01*
X186522500Y-128845000D01*
X186522500Y-130044998D01*
X186462098Y-130019979D01*
X186336519Y-129995000D01*
X186208481Y-129995000D01*
X186082902Y-130019979D01*
X186022500Y-130044998D01*
X186022500Y-128845000D01*
X185172528Y-128845000D01*
X185172512Y-128845001D01*
X185069802Y-128855494D01*
X184903380Y-128910641D01*
X184903375Y-128910643D01*
X184754154Y-129002684D01*
X184630184Y-129126654D01*
X184538143Y-129275875D01*
X184538141Y-129275880D01*
X184482994Y-129442302D01*
X184482993Y-129442309D01*
X184472500Y-129545013D01*
X161859933Y-129545013D01*
X161306419Y-128991499D01*
X161272934Y-128930176D01*
X161271626Y-128923212D01*
X161270940Y-128918884D01*
X161270940Y-128918882D01*
X161212547Y-128739168D01*
X161212545Y-128739165D01*
X161212545Y-128739163D01*
X161140171Y-128597122D01*
X161126760Y-128570801D01*
X161015690Y-128417927D01*
X160882073Y-128284310D01*
X160729199Y-128173240D01*
X160662941Y-128139480D01*
X160560835Y-128087454D01*
X160381118Y-128029059D01*
X160194486Y-127999500D01*
X160194481Y-127999500D01*
X160005519Y-127999500D01*
X160005514Y-127999500D01*
X159818881Y-128029059D01*
X159639163Y-128087454D01*
X159470800Y-128173240D01*
X159383579Y-128236610D01*
X159317927Y-128284310D01*
X159317925Y-128284312D01*
X159317924Y-128284312D01*
X159184312Y-128417924D01*
X159184312Y-128417925D01*
X159184310Y-128417927D01*
X159136610Y-128483579D01*
X159073240Y-128570800D01*
X158987454Y-128739163D01*
X158929059Y-128918881D01*
X158899500Y-129105513D01*
X156220500Y-129105513D01*
X156190940Y-128918881D01*
X156163846Y-128835497D01*
X156132547Y-128739168D01*
X156132545Y-128739165D01*
X156132545Y-128739163D01*
X156060171Y-128597122D01*
X156046760Y-128570801D01*
X155935690Y-128417927D01*
X155802073Y-128284310D01*
X155649199Y-128173240D01*
X155613709Y-128155157D01*
X155480836Y-128087454D01*
X155301118Y-128029059D01*
X155114486Y-127999500D01*
X155114481Y-127999500D01*
X154925519Y-127999500D01*
X154925514Y-127999500D01*
X154738881Y-128029059D01*
X154559163Y-128087454D01*
X154390799Y-128173240D01*
X154387254Y-128175817D01*
X154321448Y-128199298D01*
X154314367Y-128199500D01*
X152975762Y-128199500D01*
X152908723Y-128179815D01*
X152902877Y-128175818D01*
X152874439Y-128155157D01*
X152817121Y-128113513D01*
X152781613Y-128087715D01*
X152781612Y-128087714D01*
X152781610Y-128087713D01*
X152694708Y-128043434D01*
X152599223Y-127994781D01*
X152404534Y-127931522D01*
X152229995Y-127903878D01*
X152202352Y-127899500D01*
X151997648Y-127899500D01*
X151973329Y-127903351D01*
X151795465Y-127931522D01*
X151600776Y-127994781D01*
X151418386Y-128087715D01*
X151252786Y-128208028D01*
X151108035Y-128352779D01*
X151105252Y-128356038D01*
X151046742Y-128394227D01*
X151010967Y-128399500D01*
X149224500Y-128399500D01*
X149157461Y-128379815D01*
X149111706Y-128327011D01*
X149100500Y-128275500D01*
X149100500Y-126705632D01*
X149120185Y-126638593D01*
X149124177Y-126632753D01*
X149126760Y-126629199D01*
X149212547Y-126460832D01*
X149270940Y-126281118D01*
X149292500Y-126144993D01*
X149300500Y-126094486D01*
X149300500Y-125905513D01*
X149270940Y-125718881D01*
X149240135Y-125624075D01*
X149212547Y-125539168D01*
X149212545Y-125539165D01*
X149212545Y-125539163D01*
X149165580Y-125446989D01*
X149126760Y-125370801D01*
X149015690Y-125217927D01*
X148882073Y-125084310D01*
X148729199Y-124973240D01*
X148560836Y-124887454D01*
X148381118Y-124829059D01*
X148194486Y-124799500D01*
X148194481Y-124799500D01*
X148005519Y-124799500D01*
X148005514Y-124799500D01*
X147818881Y-124829059D01*
X147639163Y-124887454D01*
X147470800Y-124973240D01*
X147393304Y-125029545D01*
X147317927Y-125084310D01*
X147317925Y-125084312D01*
X147317924Y-125084312D01*
X147184312Y-125217924D01*
X147184312Y-125217925D01*
X147184310Y-125217927D01*
X147157301Y-125255102D01*
X147073240Y-125370800D01*
X146987454Y-125539163D01*
X146929059Y-125718881D01*
X146899500Y-125905513D01*
X146899500Y-126094486D01*
X146929059Y-126281118D01*
X146987454Y-126460836D01*
X147073239Y-126629198D01*
X147074115Y-126630403D01*
X147075814Y-126632742D01*
X147099297Y-126698546D01*
X147099500Y-126705632D01*
X147099500Y-128524237D01*
X147079815Y-128591276D01*
X147075818Y-128597122D01*
X146987715Y-128718386D01*
X146894781Y-128900778D01*
X146831522Y-129095468D01*
X146808073Y-129243514D01*
X146778143Y-129306649D01*
X146773281Y-129311796D01*
X145041899Y-131043181D01*
X144980576Y-131076666D01*
X144954218Y-131079500D01*
X142700783Y-131079500D01*
X142633744Y-131059815D01*
X142613102Y-131043181D01*
X142383626Y-130813705D01*
X142350141Y-130752382D01*
X142355125Y-130682690D01*
X142396997Y-130626757D01*
X142462461Y-130602340D01*
X142509621Y-130608092D01*
X142621888Y-130644570D01*
X142695465Y-130668477D01*
X142785202Y-130682690D01*
X142897648Y-130700500D01*
X142897649Y-130700500D01*
X143102351Y-130700500D01*
X143102352Y-130700500D01*
X143304534Y-130668477D01*
X143499219Y-130605220D01*
X143681610Y-130512287D01*
X143827120Y-130406569D01*
X143847213Y-130391971D01*
X143847215Y-130391968D01*
X143847219Y-130391966D01*
X143991966Y-130247219D01*
X143991968Y-130247215D01*
X143991971Y-130247213D01*
X144069783Y-130140112D01*
X144112287Y-130081610D01*
X144205220Y-129899219D01*
X144268477Y-129704534D01*
X144300500Y-129502352D01*
X144300500Y-129297648D01*
X144273417Y-129126654D01*
X144268477Y-129095465D01*
X144227971Y-128970801D01*
X144205220Y-128900781D01*
X144205218Y-128900778D01*
X144205218Y-128900776D01*
X144163002Y-128817924D01*
X144112287Y-128718390D01*
X144087527Y-128684310D01*
X144024182Y-128597122D01*
X144000702Y-128531316D01*
X144000500Y-128524237D01*
X144000500Y-126733160D01*
X144020185Y-126666121D01*
X144024183Y-126660273D01*
X144040500Y-126637815D01*
X144046760Y-126629199D01*
X144132547Y-126460832D01*
X144190940Y-126281118D01*
X144212500Y-126144993D01*
X144220500Y-126094486D01*
X144220500Y-125905513D01*
X144190940Y-125718881D01*
X144160135Y-125624075D01*
X144132547Y-125539168D01*
X144132545Y-125539165D01*
X144132545Y-125539163D01*
X144085580Y-125446989D01*
X144046760Y-125370801D01*
X143935690Y-125217927D01*
X143802073Y-125084310D01*
X143649199Y-124973240D01*
X143480836Y-124887454D01*
X143301118Y-124829059D01*
X143114486Y-124799500D01*
X143114481Y-124799500D01*
X142925519Y-124799500D01*
X142925514Y-124799500D01*
X142738881Y-124829059D01*
X142559163Y-124887454D01*
X142390800Y-124973240D01*
X142313304Y-125029545D01*
X142237927Y-125084310D01*
X142237925Y-125084312D01*
X142237924Y-125084312D01*
X142104312Y-125217924D01*
X142104312Y-125217925D01*
X142104310Y-125217927D01*
X142077301Y-125255102D01*
X141993240Y-125370800D01*
X141907454Y-125539163D01*
X141849059Y-125718881D01*
X141819500Y-125905513D01*
X141819500Y-126094486D01*
X141849059Y-126281118D01*
X141907454Y-126460836D01*
X141956636Y-126557360D01*
X141985985Y-126614961D01*
X141999500Y-126671254D01*
X141999500Y-128524237D01*
X141979815Y-128591276D01*
X141975818Y-128597122D01*
X141887715Y-128718386D01*
X141794781Y-128900776D01*
X141731522Y-129095465D01*
X141699500Y-129297648D01*
X141699500Y-129502351D01*
X141731523Y-129704535D01*
X141731523Y-129704538D01*
X141791906Y-129890375D01*
X141793901Y-129960216D01*
X141757821Y-130020049D01*
X141695120Y-130050877D01*
X141625706Y-130042912D01*
X141586295Y-130016375D01*
X139751716Y-128181796D01*
X139718232Y-128120474D01*
X139716925Y-128113513D01*
X139693477Y-127965466D01*
X139693477Y-127965465D01*
X139630218Y-127770776D01*
X139596503Y-127704607D01*
X139537287Y-127588390D01*
X139529556Y-127577749D01*
X139416971Y-127422786D01*
X139272213Y-127278028D01*
X139106611Y-127157713D01*
X139013369Y-127110203D01*
X138962574Y-127062229D01*
X138945779Y-126994407D01*
X138968317Y-126928273D01*
X139013371Y-126889234D01*
X139106346Y-126841861D01*
X139106347Y-126841861D01*
X139150921Y-126809474D01*
X138471447Y-126130000D01*
X138477661Y-126130000D01*
X138579394Y-126102741D01*
X138670606Y-126050080D01*
X138745080Y-125975606D01*
X138797741Y-125884394D01*
X138825000Y-125782661D01*
X138825000Y-125776448D01*
X139504474Y-126455922D01*
X139504474Y-126455921D01*
X139536859Y-126411349D01*
X139629755Y-126229031D01*
X139692990Y-126034417D01*
X139725000Y-125832317D01*
X139725000Y-125627682D01*
X139692990Y-125425582D01*
X139629755Y-125230968D01*
X139536859Y-125048650D01*
X139504474Y-125004077D01*
X139504474Y-125004076D01*
X138825000Y-125683551D01*
X138825000Y-125677339D01*
X138797741Y-125575606D01*
X138745080Y-125484394D01*
X138670606Y-125409920D01*
X138579394Y-125357259D01*
X138477661Y-125330000D01*
X138471446Y-125330000D01*
X139150922Y-124650524D01*
X139150921Y-124650523D01*
X139106359Y-124618147D01*
X139106350Y-124618141D01*
X138924031Y-124525244D01*
X138729417Y-124462009D01*
X138527317Y-124430000D01*
X138322683Y-124430000D01*
X138120582Y-124462009D01*
X137925968Y-124525244D01*
X137743644Y-124618143D01*
X137699077Y-124650523D01*
X137699077Y-124650524D01*
X138378554Y-125330000D01*
X138372339Y-125330000D01*
X138270606Y-125357259D01*
X138179394Y-125409920D01*
X138104920Y-125484394D01*
X138052259Y-125575606D01*
X138025000Y-125677339D01*
X138025000Y-125683553D01*
X137345524Y-125004077D01*
X137345523Y-125004077D01*
X137313143Y-125048644D01*
X137220244Y-125230968D01*
X137157009Y-125425582D01*
X137125000Y-125627682D01*
X137125000Y-125832317D01*
X137157009Y-126034417D01*
X137220244Y-126229031D01*
X137313141Y-126411350D01*
X137313147Y-126411359D01*
X137345523Y-126455921D01*
X137345524Y-126455922D01*
X138025000Y-125776446D01*
X138025000Y-125782661D01*
X138052259Y-125884394D01*
X138104920Y-125975606D01*
X138179394Y-126050080D01*
X138270606Y-126102741D01*
X138372339Y-126130000D01*
X138378553Y-126130000D01*
X137699076Y-126809474D01*
X137743652Y-126841861D01*
X137836628Y-126889234D01*
X137887425Y-126937208D01*
X137904220Y-127005029D01*
X137881683Y-127071164D01*
X137836630Y-127110203D01*
X137743388Y-127157713D01*
X137577786Y-127278028D01*
X137433028Y-127422786D01*
X137312715Y-127588386D01*
X137219781Y-127770776D01*
X137156522Y-127965465D01*
X137124500Y-128167648D01*
X137124500Y-128372351D01*
X137156522Y-128574534D01*
X137219781Y-128769223D01*
X137258392Y-128845000D01*
X137298243Y-128923212D01*
X137312715Y-128951613D01*
X137433028Y-129117213D01*
X137577786Y-129261971D01*
X137732749Y-129374556D01*
X137743390Y-129382287D01*
X137834840Y-129428883D01*
X137836080Y-129429515D01*
X137886876Y-129477490D01*
X137903671Y-129545311D01*
X137881134Y-129611446D01*
X137836080Y-129650485D01*
X137743386Y-129697715D01*
X137577786Y-129818028D01*
X137433028Y-129962786D01*
X137312715Y-130128386D01*
X137219781Y-130310778D01*
X137156522Y-130505468D01*
X137132132Y-130659456D01*
X137102202Y-130722590D01*
X137097340Y-130727738D01*
X132712219Y-135112861D01*
X131701899Y-136123181D01*
X131640576Y-136156666D01*
X131614218Y-136159500D01*
X128769012Y-136159500D01*
X128701973Y-136139815D01*
X128681331Y-136123181D01*
X125636819Y-133078669D01*
X125603334Y-133017346D01*
X125600500Y-132990988D01*
X125600500Y-130305632D01*
X125620185Y-130238593D01*
X125624177Y-130232753D01*
X125626760Y-130229199D01*
X125712547Y-130060832D01*
X125770940Y-129881118D01*
X125779163Y-129829198D01*
X125800500Y-129694486D01*
X125800500Y-129505513D01*
X125770940Y-129318881D01*
X125714689Y-129145761D01*
X125712547Y-129139168D01*
X125712545Y-129139165D01*
X125712545Y-129139163D01*
X125626757Y-128970796D01*
X125624179Y-128967247D01*
X125600702Y-128901439D01*
X125600500Y-128894366D01*
X125600500Y-125584500D01*
X125620185Y-125517461D01*
X125672989Y-125471706D01*
X125724500Y-125460500D01*
X127098542Y-125460500D01*
X127115327Y-125457160D01*
X127195188Y-125441275D01*
X127291836Y-125422051D01*
X127366932Y-125390945D01*
X127473914Y-125346632D01*
X127637782Y-125237139D01*
X127777139Y-125097782D01*
X127777140Y-125097780D01*
X127784206Y-125090714D01*
X127784209Y-125090710D01*
X130268341Y-122606578D01*
X130268345Y-122606576D01*
X130407702Y-122467219D01*
X130517195Y-122303351D01*
X130587648Y-122133261D01*
X130592614Y-122121273D01*
X130592614Y-122121272D01*
X130592838Y-122120732D01*
X130592936Y-122120610D01*
X130633083Y-122068929D01*
X130738109Y-121990307D01*
X130824359Y-121875092D01*
X130874654Y-121740244D01*
X130881063Y-121680634D01*
X130881062Y-120084889D01*
X130874654Y-120025278D01*
X130859513Y-119984684D01*
X130824360Y-119890432D01*
X130824356Y-119890425D01*
X130738110Y-119775216D01*
X130738107Y-119775213D01*
X130622898Y-119688967D01*
X130622891Y-119688963D01*
X130488045Y-119638669D01*
X130488046Y-119638669D01*
X130428446Y-119632262D01*
X130428444Y-119632261D01*
X130428436Y-119632261D01*
X130428427Y-119632261D01*
X128832692Y-119632261D01*
X128832686Y-119632262D01*
X128773079Y-119638669D01*
X128638234Y-119688963D01*
X128638227Y-119688967D01*
X128523018Y-119775213D01*
X128523015Y-119775216D01*
X128436769Y-119890425D01*
X128436765Y-119890432D01*
X128386471Y-120025278D01*
X128381866Y-120068115D01*
X128380064Y-120084884D01*
X128380063Y-120084896D01*
X128380063Y-120149345D01*
X128360378Y-120216384D01*
X128307574Y-120262139D01*
X128238416Y-120272083D01*
X128174860Y-120243058D01*
X128155745Y-120222230D01*
X128134242Y-120192634D01*
X128134240Y-120192634D01*
X127490563Y-120836313D01*
X127490563Y-120830100D01*
X127463304Y-120728367D01*
X127410643Y-120637155D01*
X127336169Y-120562681D01*
X127244957Y-120510020D01*
X127143224Y-120482761D01*
X127137010Y-120482761D01*
X127780688Y-119839081D01*
X127780688Y-119839080D01*
X127745708Y-119813666D01*
X127570398Y-119724342D01*
X127383268Y-119663539D01*
X127188945Y-119632761D01*
X126992181Y-119632761D01*
X126797857Y-119663539D01*
X126610724Y-119724343D01*
X126435426Y-119813660D01*
X126435422Y-119813663D01*
X126400436Y-119839081D01*
X126400435Y-119839081D01*
X127044117Y-120482761D01*
X127037902Y-120482761D01*
X126936169Y-120510020D01*
X126844957Y-120562681D01*
X126770483Y-120637155D01*
X126717822Y-120728367D01*
X126690563Y-120830100D01*
X126690563Y-120836313D01*
X126046883Y-120192633D01*
X126046883Y-120192634D01*
X126021465Y-120227620D01*
X125931328Y-120404525D01*
X125883353Y-120455321D01*
X125815532Y-120472116D01*
X125749398Y-120449579D01*
X125710358Y-120404524D01*
X125620088Y-120227357D01*
X125563408Y-120149345D01*
X125504391Y-120068115D01*
X125365209Y-119928933D01*
X125205968Y-119813237D01*
X125030592Y-119723878D01*
X124843389Y-119663051D01*
X124648985Y-119632261D01*
X124648980Y-119632261D01*
X124452146Y-119632261D01*
X124452141Y-119632261D01*
X124257736Y-119663051D01*
X124070533Y-119723878D01*
X123895157Y-119813237D01*
X123804304Y-119879246D01*
X123735917Y-119928933D01*
X123735915Y-119928935D01*
X123735914Y-119928935D01*
X123596737Y-120068112D01*
X123596737Y-120068113D01*
X123596735Y-120068115D01*
X123584543Y-120084896D01*
X123481039Y-120227355D01*
X123391680Y-120402731D01*
X123330853Y-120589934D01*
X123300063Y-120784338D01*
X123300063Y-120981183D01*
X123330853Y-121175587D01*
X123391680Y-121362790D01*
X123436876Y-121451491D01*
X123481039Y-121538166D01*
X123575818Y-121668618D01*
X123599298Y-121734422D01*
X123599500Y-121741502D01*
X123599500Y-128894366D01*
X123579815Y-128961405D01*
X123575821Y-128967247D01*
X123573242Y-128970796D01*
X123487454Y-129139163D01*
X123429059Y-129318881D01*
X123399500Y-129505513D01*
X123399500Y-129694486D01*
X123429059Y-129881118D01*
X123487454Y-130060836D01*
X123571997Y-130226760D01*
X123573240Y-130229199D01*
X123575814Y-130232742D01*
X123599297Y-130298546D01*
X123599500Y-130305632D01*
X123599500Y-133555311D01*
X123612937Y-133622861D01*
X123637949Y-133748606D01*
X123643588Y-133762219D01*
X123647508Y-133771682D01*
X123647509Y-133771687D01*
X123713364Y-133930677D01*
X123713371Y-133930690D01*
X123822860Y-134094551D01*
X123822863Y-134094555D01*
X123966537Y-134238229D01*
X123966559Y-134238249D01*
X127522965Y-137794655D01*
X127522994Y-137794686D01*
X127665444Y-137937136D01*
X127665448Y-137937139D01*
X127829309Y-138046628D01*
X127829313Y-138046630D01*
X127829316Y-138046632D01*
X127954634Y-138098540D01*
X128011394Y-138122051D01*
X128108042Y-138141275D01*
X128166468Y-138152897D01*
X128204688Y-138160500D01*
X128204689Y-138160500D01*
X132178542Y-138160500D01*
X132216762Y-138152897D01*
X132275188Y-138141275D01*
X132371836Y-138122051D01*
X132428596Y-138098540D01*
X132553914Y-138046632D01*
X132717782Y-137937139D01*
X132857139Y-137797782D01*
X132857140Y-137797780D01*
X132864206Y-137790714D01*
X132864208Y-137790710D01*
X133262322Y-137392597D01*
X133323641Y-137359115D01*
X133393333Y-137364099D01*
X133437680Y-137392600D01*
X134228939Y-138183859D01*
X134228968Y-138183890D01*
X134371418Y-138326340D01*
X134371422Y-138326343D01*
X134535283Y-138435832D01*
X134535296Y-138435839D01*
X134664037Y-138489165D01*
X134706337Y-138506686D01*
X134717368Y-138511255D01*
X134770316Y-138521787D01*
X134790697Y-138525841D01*
X134910660Y-138549704D01*
X134910663Y-138549704D01*
X134910664Y-138549704D01*
X135107744Y-138549704D01*
X135711897Y-138549704D01*
X135778936Y-138569389D01*
X135824691Y-138622193D01*
X135828068Y-138630344D01*
X135832242Y-138641535D01*
X135832243Y-138641536D01*
X135832244Y-138641539D01*
X135918490Y-138756748D01*
X135918493Y-138756751D01*
X136033702Y-138842997D01*
X136033709Y-138843001D01*
X136168555Y-138893295D01*
X136168554Y-138893295D01*
X136175482Y-138894039D01*
X136228165Y-138899704D01*
X138023910Y-138899703D01*
X138083521Y-138893295D01*
X138218369Y-138843000D01*
X138333584Y-138756750D01*
X138419834Y-138641535D01*
X138470129Y-138506687D01*
X138476538Y-138447077D01*
X138476537Y-136651332D01*
X138470129Y-136591721D01*
X138452211Y-136543681D01*
X138419835Y-136456875D01*
X138419831Y-136456868D01*
X138333585Y-136341659D01*
X138333582Y-136341656D01*
X138218373Y-136255410D01*
X138218366Y-136255406D01*
X138083520Y-136205112D01*
X138083521Y-136205112D01*
X138023921Y-136198705D01*
X138023919Y-136198704D01*
X138023911Y-136198704D01*
X138023902Y-136198704D01*
X136228167Y-136198704D01*
X136228161Y-136198705D01*
X136168554Y-136205112D01*
X136033709Y-136255406D01*
X136033702Y-136255410D01*
X135918493Y-136341656D01*
X135918490Y-136341659D01*
X135832244Y-136456868D01*
X135832242Y-136456872D01*
X135832242Y-136456873D01*
X135828077Y-136468038D01*
X135814809Y-136485762D01*
X135805610Y-136505907D01*
X135794279Y-136513188D01*
X135786209Y-136523970D01*
X135765460Y-136531708D01*
X135746832Y-136543681D01*
X135724916Y-136546832D01*
X135720745Y-136548388D01*
X135711897Y-136548704D01*
X135474986Y-136548704D01*
X135407947Y-136529019D01*
X135387305Y-136512385D01*
X134852600Y-135977680D01*
X134819115Y-135916357D01*
X134824099Y-135846665D01*
X134852596Y-135802323D01*
X136912821Y-133742097D01*
X136974142Y-133708614D01*
X137043834Y-133713598D01*
X137099767Y-133755470D01*
X137124184Y-133820934D01*
X137124500Y-133829779D01*
X137124500Y-133950000D01*
X137124501Y-133950019D01*
X137135000Y-134052796D01*
X137135001Y-134052799D01*
X137177832Y-134182052D01*
X137190186Y-134219334D01*
X137282288Y-134368656D01*
X137406344Y-134492712D01*
X137555666Y-134584814D01*
X137722203Y-134639999D01*
X137824991Y-134650500D01*
X138259217Y-134650499D01*
X138326256Y-134670183D01*
X138346898Y-134686818D01*
X138694735Y-135034655D01*
X138694764Y-135034686D01*
X138837214Y-135177136D01*
X138837218Y-135177139D01*
X139001079Y-135286628D01*
X139001092Y-135286635D01*
X139129833Y-135339961D01*
X139172744Y-135357735D01*
X139183164Y-135362051D01*
X139279812Y-135381275D01*
X139328135Y-135390887D01*
X139376458Y-135400500D01*
X139376459Y-135400500D01*
X139376460Y-135400500D01*
X139573540Y-135400500D01*
X141875500Y-135400500D01*
X141942539Y-135420185D01*
X141988294Y-135472989D01*
X141999500Y-135524500D01*
X141999500Y-137584218D01*
X141979815Y-137651257D01*
X141963181Y-137671899D01*
X138431899Y-141203181D01*
X138370576Y-141236666D01*
X138344218Y-141239500D01*
X127465782Y-141239500D01*
X127398743Y-141219815D01*
X127378101Y-141203181D01*
X121490409Y-135315489D01*
X121456924Y-135254166D01*
X121454090Y-135227808D01*
X121454090Y-113812192D01*
X121473775Y-113745153D01*
X121490409Y-113724511D01*
X123092136Y-112122785D01*
X123092136Y-112122784D01*
X123092139Y-112122782D01*
X123201632Y-111958914D01*
X123218611Y-111917924D01*
X123233167Y-111882781D01*
X123277051Y-111776835D01*
X123284820Y-111737781D01*
X123315500Y-111583540D01*
X123315500Y-111386460D01*
X123315500Y-110397682D01*
X124700000Y-110397682D01*
X124700000Y-110602317D01*
X124732009Y-110804417D01*
X124795244Y-110999031D01*
X124888141Y-111181350D01*
X124888147Y-111181359D01*
X124920523Y-111225921D01*
X124920524Y-111225922D01*
X125600000Y-110546446D01*
X125600000Y-110552661D01*
X125627259Y-110654394D01*
X125679920Y-110745606D01*
X125754394Y-110820080D01*
X125845606Y-110872741D01*
X125947339Y-110900000D01*
X125953553Y-110900000D01*
X125274076Y-111579474D01*
X125318650Y-111611859D01*
X125500968Y-111704755D01*
X125695582Y-111767990D01*
X125897683Y-111800000D01*
X126102317Y-111800000D01*
X126304417Y-111767990D01*
X126499031Y-111704755D01*
X126681349Y-111611859D01*
X126725921Y-111579474D01*
X126046447Y-110900000D01*
X126052661Y-110900000D01*
X126154394Y-110872741D01*
X126245606Y-110820080D01*
X126320080Y-110745606D01*
X126372741Y-110654394D01*
X126400000Y-110552661D01*
X126400000Y-110546448D01*
X127079474Y-111225922D01*
X127079474Y-111225921D01*
X127111859Y-111181349D01*
X127204755Y-110999031D01*
X127267990Y-110804417D01*
X127300000Y-110602317D01*
X127300000Y-110397682D01*
X127267990Y-110195582D01*
X127204755Y-110000968D01*
X127111859Y-109818650D01*
X127079474Y-109774077D01*
X127079474Y-109774076D01*
X126400000Y-110453551D01*
X126400000Y-110447339D01*
X126372741Y-110345606D01*
X126320080Y-110254394D01*
X126245606Y-110179920D01*
X126154394Y-110127259D01*
X126052661Y-110100000D01*
X126046446Y-110100000D01*
X126725922Y-109420524D01*
X126725921Y-109420523D01*
X126681359Y-109388147D01*
X126681350Y-109388141D01*
X126499031Y-109295244D01*
X126304417Y-109232009D01*
X126102317Y-109200000D01*
X125897683Y-109200000D01*
X125695582Y-109232009D01*
X125500968Y-109295244D01*
X125318644Y-109388143D01*
X125274077Y-109420523D01*
X125274077Y-109420524D01*
X125953554Y-110100000D01*
X125947339Y-110100000D01*
X125845606Y-110127259D01*
X125754394Y-110179920D01*
X125679920Y-110254394D01*
X125627259Y-110345606D01*
X125600000Y-110447339D01*
X125600000Y-110453553D01*
X124920524Y-109774077D01*
X124920523Y-109774077D01*
X124888143Y-109818644D01*
X124795244Y-110000968D01*
X124732009Y-110195582D01*
X124700000Y-110397682D01*
X123315500Y-110397682D01*
X123315500Y-108085761D01*
X123335185Y-108018722D01*
X123339165Y-108012899D01*
X123427287Y-107891610D01*
X123520220Y-107709219D01*
X123583477Y-107514534D01*
X123615500Y-107312352D01*
X123615500Y-107107648D01*
X123601043Y-107016373D01*
X123583477Y-106905465D01*
X123548074Y-106796507D01*
X123520220Y-106710781D01*
X123520218Y-106710778D01*
X123520218Y-106710776D01*
X123427419Y-106528650D01*
X123427287Y-106528390D01*
X123395092Y-106484077D01*
X123306971Y-106362786D01*
X123162213Y-106218028D01*
X122996614Y-106097715D01*
X122929722Y-106063632D01*
X122903917Y-106050483D01*
X122853123Y-106002511D01*
X122836328Y-105934690D01*
X122858865Y-105868555D01*
X122903917Y-105829516D01*
X122996610Y-105782287D01*
X123079728Y-105721899D01*
X123162213Y-105661971D01*
X123162215Y-105661968D01*
X123162219Y-105661966D01*
X123306966Y-105517219D01*
X123306968Y-105517215D01*
X123306971Y-105517213D01*
X123359732Y-105444590D01*
X123427287Y-105351610D01*
X123520220Y-105169219D01*
X123583477Y-104974534D01*
X123615500Y-104772352D01*
X123615500Y-104567648D01*
X123583477Y-104365466D01*
X123581337Y-104358881D01*
X123545095Y-104247339D01*
X123520220Y-104170781D01*
X123520218Y-104170778D01*
X123520218Y-104170776D01*
X123480342Y-104092516D01*
X123427287Y-103988390D01*
X123404967Y-103957669D01*
X123306971Y-103822786D01*
X123162213Y-103678028D01*
X122996614Y-103557715D01*
X122937221Y-103527453D01*
X122903917Y-103510483D01*
X122896618Y-103503589D01*
X122887166Y-103500200D01*
X122871643Y-103480002D01*
X122853123Y-103462511D01*
X122850709Y-103452762D01*
X122844590Y-103444801D01*
X122842451Y-103419416D01*
X122836328Y-103394690D01*
X122839567Y-103385184D01*
X122838724Y-103375178D01*
X122850647Y-103352668D01*
X122858865Y-103328555D01*
X122867601Y-103320664D01*
X122871430Y-103313436D01*
X122894006Y-103296813D01*
X122899414Y-103291929D01*
X122901639Y-103290676D01*
X122996610Y-103242287D01*
X123027347Y-103219955D01*
X123033615Y-103216429D01*
X123060927Y-103210124D01*
X123087335Y-103200702D01*
X123094415Y-103200500D01*
X124895500Y-103200500D01*
X124962539Y-103220185D01*
X125008294Y-103272989D01*
X125019500Y-103324500D01*
X125019500Y-104596708D01*
X124999815Y-104663747D01*
X124995819Y-104669593D01*
X124887712Y-104818390D01*
X124794781Y-105000776D01*
X124731522Y-105195465D01*
X124699500Y-105397648D01*
X124699500Y-105602351D01*
X124731522Y-105804534D01*
X124794781Y-105999223D01*
X124866464Y-106139907D01*
X124887713Y-106181610D01*
X124975819Y-106302877D01*
X124999298Y-106368681D01*
X124999500Y-106375761D01*
X124999500Y-106641007D01*
X124999763Y-106642331D01*
X125003686Y-106662049D01*
X125003686Y-106662052D01*
X125027834Y-106783453D01*
X125037947Y-106834295D01*
X125037949Y-106834303D01*
X125113364Y-107016373D01*
X125113371Y-107016386D01*
X125222859Y-107180246D01*
X125222860Y-107180247D01*
X125222861Y-107180248D01*
X125362218Y-107319605D01*
X125362219Y-107319605D01*
X125369286Y-107326672D01*
X125369285Y-107326672D01*
X125369289Y-107326675D01*
X128633181Y-110590567D01*
X128666666Y-110651890D01*
X128669500Y-110678248D01*
X128669500Y-112264217D01*
X128649815Y-112331256D01*
X128633181Y-112351898D01*
X127121899Y-113863181D01*
X127094971Y-113877884D01*
X127069153Y-113894477D01*
X127062952Y-113895368D01*
X127060576Y-113896666D01*
X127034218Y-113899500D01*
X127014141Y-113899500D01*
X126947102Y-113879815D01*
X126901347Y-113827011D01*
X126897969Y-113818859D01*
X126893796Y-113807669D01*
X126893793Y-113807665D01*
X126893793Y-113807664D01*
X126807547Y-113692455D01*
X126807544Y-113692452D01*
X126692335Y-113606206D01*
X126692328Y-113606202D01*
X126557482Y-113555908D01*
X126557483Y-113555908D01*
X126497883Y-113549501D01*
X126497881Y-113549500D01*
X126497873Y-113549500D01*
X126497864Y-113549500D01*
X124702129Y-113549500D01*
X124702123Y-113549501D01*
X124642516Y-113555908D01*
X124507671Y-113606202D01*
X124507664Y-113606206D01*
X124392455Y-113692452D01*
X124392452Y-113692455D01*
X124306206Y-113807664D01*
X124306202Y-113807671D01*
X124255908Y-113942517D01*
X124249501Y-114002116D01*
X124249500Y-114002135D01*
X124249500Y-115797870D01*
X124249501Y-115797876D01*
X124255908Y-115857483D01*
X124306202Y-115992328D01*
X124306206Y-115992335D01*
X124392452Y-116107544D01*
X124392455Y-116107547D01*
X124507664Y-116193793D01*
X124507671Y-116193797D01*
X124642517Y-116244091D01*
X124642516Y-116244091D01*
X124649444Y-116244835D01*
X124702127Y-116250500D01*
X126497872Y-116250499D01*
X126557483Y-116244091D01*
X126692331Y-116193796D01*
X126807546Y-116107546D01*
X126893796Y-115992331D01*
X126897960Y-115981165D01*
X126939829Y-115925234D01*
X127005293Y-115900816D01*
X127014141Y-115900500D01*
X127598542Y-115900500D01*
X127629566Y-115894328D01*
X127695188Y-115881275D01*
X127791836Y-115862051D01*
X127845165Y-115839961D01*
X127973914Y-115786632D01*
X128137782Y-115677139D01*
X128277139Y-115537782D01*
X128277139Y-115537780D01*
X128287347Y-115527573D01*
X128287348Y-115527570D01*
X130048102Y-113766819D01*
X130109425Y-113733334D01*
X130135783Y-113730500D01*
X131419238Y-113730500D01*
X131486277Y-113750185D01*
X131492119Y-113754179D01*
X131613390Y-113842287D01*
X131669625Y-113870940D01*
X131706080Y-113889515D01*
X131756876Y-113937490D01*
X131773671Y-114005311D01*
X131751134Y-114071446D01*
X131706080Y-114110485D01*
X131613386Y-114157715D01*
X131447786Y-114278028D01*
X131303028Y-114422786D01*
X131182715Y-114588386D01*
X131089781Y-114770776D01*
X131026522Y-114965465D01*
X130994500Y-115167648D01*
X130994500Y-115372351D01*
X131026522Y-115574534D01*
X131089781Y-115769223D01*
X131134753Y-115857483D01*
X131160381Y-115907782D01*
X131182715Y-115951613D01*
X131303028Y-116117213D01*
X131447786Y-116261971D01*
X131613385Y-116382284D01*
X131613387Y-116382285D01*
X131613390Y-116382287D01*
X131706080Y-116429515D01*
X131706630Y-116429795D01*
X131757426Y-116477770D01*
X131774221Y-116545591D01*
X131751684Y-116611725D01*
X131706630Y-116650765D01*
X131613644Y-116698143D01*
X131569077Y-116730523D01*
X131569077Y-116730524D01*
X132248554Y-117410000D01*
X132242339Y-117410000D01*
X132140606Y-117437259D01*
X132049394Y-117489920D01*
X131974920Y-117564394D01*
X131922259Y-117655606D01*
X131895000Y-117757339D01*
X131895000Y-117763553D01*
X131215524Y-117084077D01*
X131215523Y-117084077D01*
X131183143Y-117128644D01*
X131090244Y-117310968D01*
X131027009Y-117505582D01*
X130995000Y-117707682D01*
X130995000Y-117912317D01*
X131027009Y-118114417D01*
X131090244Y-118309031D01*
X131183141Y-118491350D01*
X131183147Y-118491359D01*
X131215523Y-118535921D01*
X131215524Y-118535922D01*
X131895000Y-117856446D01*
X131895000Y-117862661D01*
X131922259Y-117964394D01*
X131974920Y-118055606D01*
X132049394Y-118130080D01*
X132140606Y-118182741D01*
X132242339Y-118210000D01*
X132248553Y-118210000D01*
X131569076Y-118889474D01*
X131613650Y-118921859D01*
X131795968Y-119014755D01*
X131990582Y-119077990D01*
X132192683Y-119110000D01*
X132397317Y-119110000D01*
X132599417Y-119077990D01*
X132794031Y-119014755D01*
X132976349Y-118921859D01*
X133020921Y-118889474D01*
X132341447Y-118210000D01*
X132347661Y-118210000D01*
X132449394Y-118182741D01*
X132540606Y-118130080D01*
X132615080Y-118055606D01*
X132667741Y-117964394D01*
X132695000Y-117862661D01*
X132695000Y-117856447D01*
X133374474Y-118535921D01*
X133406859Y-118491349D01*
X133499755Y-118309031D01*
X133562990Y-118114417D01*
X133595000Y-117912317D01*
X133595000Y-117707682D01*
X133562990Y-117505582D01*
X133499755Y-117310968D01*
X133406859Y-117128650D01*
X133374474Y-117084077D01*
X133374474Y-117084076D01*
X132695000Y-117763551D01*
X132695000Y-117757339D01*
X132667741Y-117655606D01*
X132615080Y-117564394D01*
X132540606Y-117489920D01*
X132449394Y-117437259D01*
X132347661Y-117410000D01*
X132341446Y-117410000D01*
X133020922Y-116730524D01*
X133020921Y-116730523D01*
X132976359Y-116698147D01*
X132976350Y-116698141D01*
X132883369Y-116650765D01*
X132832573Y-116602790D01*
X132815778Y-116534969D01*
X132838315Y-116468835D01*
X132883370Y-116429795D01*
X132883920Y-116429515D01*
X132976610Y-116382287D01*
X133097877Y-116294181D01*
X133163683Y-116270702D01*
X133170762Y-116270500D01*
X134028543Y-116270500D01*
X134060530Y-116264136D01*
X134161307Y-116244091D01*
X134221836Y-116232051D01*
X134314191Y-116193796D01*
X134403914Y-116156632D01*
X134407702Y-116154100D01*
X134474377Y-116133218D01*
X134541758Y-116151698D01*
X134588452Y-116203673D01*
X134600599Y-116257198D01*
X134600599Y-128088118D01*
X134580914Y-128155157D01*
X134564280Y-128175799D01*
X132256076Y-130484002D01*
X132194753Y-130517487D01*
X132125061Y-130512503D01*
X132069128Y-130470631D01*
X132050464Y-130434639D01*
X132036600Y-130391971D01*
X132010220Y-130310781D01*
X131917287Y-130128390D01*
X131860971Y-130050877D01*
X131829182Y-130007122D01*
X131805702Y-129941316D01*
X131805500Y-129934237D01*
X131805500Y-129145761D01*
X131825185Y-129078722D01*
X131829165Y-129072899D01*
X131917287Y-128951610D01*
X132010220Y-128769219D01*
X132073477Y-128574534D01*
X132105500Y-128372352D01*
X132105500Y-128167648D01*
X132096926Y-128113513D01*
X132073477Y-127965465D01*
X132010218Y-127770776D01*
X131976503Y-127704607D01*
X131917287Y-127588390D01*
X131909556Y-127577749D01*
X131796971Y-127422786D01*
X131652213Y-127278028D01*
X131486611Y-127157713D01*
X131393369Y-127110203D01*
X131342574Y-127062229D01*
X131325779Y-126994407D01*
X131348317Y-126928273D01*
X131393371Y-126889234D01*
X131486346Y-126841861D01*
X131486347Y-126841861D01*
X131530921Y-126809474D01*
X130851447Y-126130000D01*
X130857661Y-126130000D01*
X130959394Y-126102741D01*
X131050606Y-126050080D01*
X131125080Y-125975606D01*
X131177741Y-125884394D01*
X131205000Y-125782661D01*
X131205000Y-125776447D01*
X131884474Y-126455921D01*
X131916859Y-126411349D01*
X132009755Y-126229031D01*
X132072990Y-126034417D01*
X132105000Y-125832317D01*
X132105000Y-125627682D01*
X132072990Y-125425582D01*
X132009755Y-125230968D01*
X131916859Y-125048650D01*
X131884474Y-125004077D01*
X131884474Y-125004076D01*
X131205000Y-125683551D01*
X131205000Y-125677339D01*
X131177741Y-125575606D01*
X131125080Y-125484394D01*
X131050606Y-125409920D01*
X130959394Y-125357259D01*
X130857661Y-125330000D01*
X130851446Y-125330000D01*
X131530922Y-124650524D01*
X131530921Y-124650523D01*
X131486359Y-124618147D01*
X131486350Y-124618141D01*
X131304031Y-124525244D01*
X131109417Y-124462009D01*
X130907317Y-124430000D01*
X130702683Y-124430000D01*
X130500582Y-124462009D01*
X130305968Y-124525244D01*
X130123644Y-124618143D01*
X130079077Y-124650523D01*
X130079077Y-124650524D01*
X130758554Y-125330000D01*
X130752339Y-125330000D01*
X130650606Y-125357259D01*
X130559394Y-125409920D01*
X130484920Y-125484394D01*
X130432259Y-125575606D01*
X130405000Y-125677339D01*
X130405000Y-125683553D01*
X129725524Y-125004077D01*
X129725523Y-125004077D01*
X129693143Y-125048644D01*
X129600244Y-125230968D01*
X129537009Y-125425582D01*
X129505000Y-125627682D01*
X129505000Y-125832317D01*
X129537009Y-126034417D01*
X129600244Y-126229031D01*
X129693141Y-126411350D01*
X129693147Y-126411359D01*
X129725523Y-126455921D01*
X129725524Y-126455922D01*
X130405000Y-125776446D01*
X130405000Y-125782661D01*
X130432259Y-125884394D01*
X130484920Y-125975606D01*
X130559394Y-126050080D01*
X130650606Y-126102741D01*
X130752339Y-126130000D01*
X130758553Y-126130000D01*
X130079076Y-126809474D01*
X130123652Y-126841861D01*
X130216628Y-126889234D01*
X130267425Y-126937208D01*
X130284220Y-127005029D01*
X130261683Y-127071164D01*
X130216630Y-127110203D01*
X130123388Y-127157713D01*
X129957786Y-127278028D01*
X129813028Y-127422786D01*
X129692715Y-127588386D01*
X129599781Y-127770776D01*
X129536522Y-127965465D01*
X129504500Y-128167648D01*
X129504500Y-128372351D01*
X129536522Y-128574534D01*
X129599781Y-128769223D01*
X129671838Y-128910641D01*
X129692713Y-128951610D01*
X129780819Y-129072877D01*
X129804298Y-129138681D01*
X129804500Y-129145761D01*
X129804500Y-129934237D01*
X129784815Y-130001276D01*
X129780818Y-130007122D01*
X129692715Y-130128386D01*
X129599781Y-130310776D01*
X129536522Y-130505465D01*
X129504500Y-130707648D01*
X129504500Y-130912351D01*
X129536522Y-131114534D01*
X129599781Y-131309223D01*
X129692715Y-131491613D01*
X129813028Y-131657213D01*
X129957786Y-131801971D01*
X130112749Y-131914556D01*
X130123390Y-131922287D01*
X130214840Y-131968883D01*
X130216080Y-131969515D01*
X130266876Y-132017490D01*
X130283671Y-132085311D01*
X130261134Y-132151446D01*
X130216080Y-132190485D01*
X130123386Y-132237715D01*
X129957786Y-132358028D01*
X129813028Y-132502786D01*
X129692715Y-132668386D01*
X129599781Y-132850776D01*
X129536522Y-133045465D01*
X129504500Y-133247648D01*
X129504500Y-133452351D01*
X129536522Y-133654534D01*
X129599781Y-133849223D01*
X129651140Y-133950019D01*
X129672568Y-133992074D01*
X129692715Y-134031613D01*
X129813028Y-134197213D01*
X129957786Y-134341971D01*
X130112749Y-134454556D01*
X130123390Y-134462287D01*
X130239607Y-134521503D01*
X130305776Y-134555218D01*
X130305778Y-134555218D01*
X130305781Y-134555220D01*
X130396856Y-134584812D01*
X130500465Y-134618477D01*
X130601557Y-134634488D01*
X130702648Y-134650500D01*
X130702649Y-134650500D01*
X130907351Y-134650500D01*
X130907352Y-134650500D01*
X131109534Y-134618477D01*
X131304219Y-134555220D01*
X131486610Y-134462287D01*
X131615482Y-134368657D01*
X131652213Y-134341971D01*
X131652215Y-134341968D01*
X131652219Y-134341966D01*
X131796966Y-134197219D01*
X131796968Y-134197215D01*
X131796971Y-134197213D01*
X131901892Y-134052799D01*
X131917287Y-134031610D01*
X132010220Y-133849219D01*
X132073477Y-133654534D01*
X132096925Y-133506483D01*
X132126854Y-133443350D01*
X132131699Y-133438219D01*
X136378238Y-129191683D01*
X136413327Y-129139168D01*
X136487731Y-129027815D01*
X136502774Y-128991499D01*
X136563150Y-128845736D01*
X136563150Y-128845734D01*
X136563494Y-128844012D01*
X136595260Y-128684310D01*
X136601599Y-128652442D01*
X136601599Y-124080014D01*
X151020601Y-124080014D01*
X151020601Y-124284649D01*
X151052610Y-124486749D01*
X151115845Y-124681363D01*
X151208742Y-124863682D01*
X151208748Y-124863691D01*
X151241124Y-124908253D01*
X151241125Y-124908254D01*
X151920601Y-124228778D01*
X151920601Y-124234993D01*
X151947860Y-124336726D01*
X152000521Y-124427938D01*
X152074995Y-124502412D01*
X152166207Y-124555073D01*
X152267940Y-124582332D01*
X152274154Y-124582332D01*
X151594677Y-125261806D01*
X151639251Y-125294191D01*
X151821569Y-125387087D01*
X152016183Y-125450322D01*
X152218284Y-125482332D01*
X152422918Y-125482332D01*
X152625018Y-125450322D01*
X152819632Y-125387087D01*
X153001950Y-125294191D01*
X153046522Y-125261806D01*
X152367048Y-124582332D01*
X152373262Y-124582332D01*
X152474995Y-124555073D01*
X152566207Y-124502412D01*
X152640681Y-124427938D01*
X152693342Y-124336726D01*
X152720601Y-124234993D01*
X152720601Y-124228779D01*
X153400075Y-124908253D01*
X153432460Y-124863681D01*
X153525356Y-124681363D01*
X153588591Y-124486749D01*
X153620601Y-124284649D01*
X153620601Y-124080014D01*
X153588591Y-123877914D01*
X153525356Y-123683300D01*
X153432460Y-123500982D01*
X153400075Y-123456409D01*
X153400075Y-123456408D01*
X152720601Y-124135883D01*
X152720601Y-124129671D01*
X152693342Y-124027938D01*
X152640681Y-123936726D01*
X152566207Y-123862252D01*
X152474995Y-123809591D01*
X152373262Y-123782332D01*
X152367047Y-123782332D01*
X153046523Y-123102856D01*
X153046522Y-123102855D01*
X153001960Y-123070479D01*
X153001951Y-123070473D01*
X152819632Y-122977576D01*
X152625018Y-122914341D01*
X152422918Y-122882332D01*
X152218284Y-122882332D01*
X152016183Y-122914341D01*
X151821569Y-122977576D01*
X151639245Y-123070475D01*
X151594678Y-123102855D01*
X151594678Y-123102856D01*
X152274155Y-123782332D01*
X152267940Y-123782332D01*
X152166207Y-123809591D01*
X152074995Y-123862252D01*
X152000521Y-123936726D01*
X151947860Y-124027938D01*
X151920601Y-124129671D01*
X151920601Y-124135885D01*
X151241125Y-123456409D01*
X151241124Y-123456409D01*
X151208744Y-123500976D01*
X151115845Y-123683300D01*
X151052610Y-123877914D01*
X151020601Y-124080014D01*
X136601599Y-124080014D01*
X136601599Y-119780014D01*
X150920601Y-119780014D01*
X150920601Y-119984649D01*
X150952610Y-120186749D01*
X151015845Y-120381363D01*
X151108742Y-120563682D01*
X151108748Y-120563691D01*
X151141124Y-120608253D01*
X151141125Y-120608254D01*
X151820601Y-119928778D01*
X151820601Y-119934993D01*
X151847860Y-120036726D01*
X151900521Y-120127938D01*
X151974995Y-120202412D01*
X152066207Y-120255073D01*
X152167940Y-120282332D01*
X152174154Y-120282332D01*
X151494677Y-120961806D01*
X151539251Y-120994191D01*
X151721569Y-121087087D01*
X151916183Y-121150322D01*
X152118284Y-121182332D01*
X152322918Y-121182332D01*
X152525018Y-121150322D01*
X152719632Y-121087087D01*
X152901950Y-120994191D01*
X152946522Y-120961806D01*
X152267048Y-120282332D01*
X152273262Y-120282332D01*
X152374995Y-120255073D01*
X152466207Y-120202412D01*
X152540681Y-120127938D01*
X152593342Y-120036726D01*
X152620601Y-119934993D01*
X152620601Y-119928780D01*
X153300075Y-120608254D01*
X153300075Y-120608253D01*
X153332460Y-120563681D01*
X153425356Y-120381363D01*
X153488591Y-120186749D01*
X153520601Y-119984649D01*
X153520601Y-119780014D01*
X153488591Y-119577914D01*
X153425356Y-119383300D01*
X153332460Y-119200982D01*
X153300075Y-119156409D01*
X153300075Y-119156408D01*
X152620601Y-119835883D01*
X152620601Y-119829671D01*
X152593342Y-119727938D01*
X152540681Y-119636726D01*
X152466207Y-119562252D01*
X152374995Y-119509591D01*
X152273262Y-119482332D01*
X152267047Y-119482332D01*
X152946523Y-118802856D01*
X152946522Y-118802855D01*
X152901960Y-118770479D01*
X152901951Y-118770473D01*
X152719632Y-118677576D01*
X152525018Y-118614341D01*
X152322918Y-118582332D01*
X152118284Y-118582332D01*
X151916183Y-118614341D01*
X151721569Y-118677576D01*
X151539245Y-118770475D01*
X151494678Y-118802855D01*
X151494678Y-118802856D01*
X152174155Y-119482332D01*
X152167940Y-119482332D01*
X152066207Y-119509591D01*
X151974995Y-119562252D01*
X151900521Y-119636726D01*
X151847860Y-119727938D01*
X151820601Y-119829671D01*
X151820601Y-119835885D01*
X151141125Y-119156409D01*
X151141124Y-119156409D01*
X151108744Y-119200976D01*
X151015845Y-119383300D01*
X150952610Y-119577914D01*
X150920601Y-119780014D01*
X136601599Y-119780014D01*
X136601599Y-115215881D01*
X136621284Y-115148842D01*
X136674088Y-115103087D01*
X136743246Y-115093143D01*
X136806802Y-115122168D01*
X136813280Y-115128200D01*
X137589735Y-115904655D01*
X137589764Y-115904686D01*
X137732217Y-116047139D01*
X137822625Y-116107547D01*
X137896086Y-116156632D01*
X137985809Y-116193796D01*
X138078164Y-116232051D01*
X138138693Y-116244091D01*
X138223475Y-116260955D01*
X138271456Y-116270500D01*
X138271459Y-116270500D01*
X138271460Y-116270500D01*
X138468540Y-116270500D01*
X139039238Y-116270500D01*
X139106277Y-116290185D01*
X139112119Y-116294179D01*
X139233390Y-116382287D01*
X139324840Y-116428883D01*
X139326080Y-116429515D01*
X139376876Y-116477490D01*
X139393671Y-116545311D01*
X139371134Y-116611446D01*
X139326080Y-116650485D01*
X139233386Y-116697715D01*
X139067786Y-116818028D01*
X138923028Y-116962786D01*
X138802715Y-117128386D01*
X138709781Y-117310776D01*
X138646522Y-117505465D01*
X138614500Y-117707648D01*
X138614500Y-117912351D01*
X138646522Y-118114534D01*
X138709781Y-118309223D01*
X138736078Y-118360832D01*
X138802585Y-118491359D01*
X138802715Y-118491613D01*
X138923028Y-118657213D01*
X139067786Y-118801971D01*
X139222749Y-118914556D01*
X139233390Y-118922287D01*
X139349607Y-118981503D01*
X139415776Y-119015218D01*
X139415778Y-119015218D01*
X139415781Y-119015220D01*
X139477021Y-119035118D01*
X139610465Y-119078477D01*
X139711557Y-119094488D01*
X139812648Y-119110500D01*
X139812649Y-119110500D01*
X140017351Y-119110500D01*
X140017352Y-119110500D01*
X140219534Y-119078477D01*
X140414219Y-119015220D01*
X140596610Y-118922287D01*
X140596614Y-118922283D01*
X140596618Y-118922282D01*
X140600766Y-118919741D01*
X140601784Y-118921402D01*
X140659822Y-118900702D01*
X140666888Y-118900500D01*
X142954367Y-118900500D01*
X143021406Y-118920185D01*
X143027254Y-118924183D01*
X143030799Y-118926759D01*
X143199163Y-119012545D01*
X143199165Y-119012545D01*
X143199168Y-119012547D01*
X143251867Y-119029670D01*
X143378881Y-119070940D01*
X143565514Y-119100500D01*
X143565519Y-119100500D01*
X143754486Y-119100500D01*
X143941118Y-119070940D01*
X144120832Y-119012547D01*
X144289199Y-118926760D01*
X144442073Y-118815690D01*
X144575690Y-118682073D01*
X144686760Y-118529199D01*
X144772547Y-118360832D01*
X144830940Y-118181118D01*
X144841486Y-118114534D01*
X144860500Y-117994486D01*
X144860500Y-117805513D01*
X144830940Y-117618881D01*
X144794765Y-117507547D01*
X144772547Y-117439168D01*
X144772545Y-117439165D01*
X144772545Y-117439163D01*
X144686759Y-117270800D01*
X144575690Y-117117927D01*
X144442073Y-116984310D01*
X144289199Y-116873240D01*
X144269457Y-116863181D01*
X144120836Y-116787454D01*
X143941118Y-116729059D01*
X143754486Y-116699500D01*
X143754481Y-116699500D01*
X143565519Y-116699500D01*
X143565514Y-116699500D01*
X143378881Y-116729059D01*
X143199163Y-116787454D01*
X143030799Y-116873240D01*
X143027254Y-116875817D01*
X142961448Y-116899298D01*
X142954367Y-116899500D01*
X140895047Y-116899500D01*
X140828008Y-116879815D01*
X140807366Y-116863181D01*
X140762213Y-116818028D01*
X140596614Y-116697715D01*
X140590006Y-116694348D01*
X140503917Y-116650483D01*
X140453123Y-116602511D01*
X140436328Y-116534690D01*
X140458865Y-116468555D01*
X140503917Y-116429516D01*
X140596610Y-116382287D01*
X140617770Y-116366913D01*
X140762213Y-116261971D01*
X140762215Y-116261968D01*
X140762219Y-116261966D01*
X140906966Y-116117219D01*
X140906968Y-116117215D01*
X140906971Y-116117213D01*
X140981724Y-116014322D01*
X141027287Y-115951610D01*
X141120220Y-115769219D01*
X141183477Y-115574534D01*
X141215500Y-115372352D01*
X141215500Y-115167648D01*
X141205274Y-115103087D01*
X141183477Y-114965465D01*
X141120218Y-114770776D01*
X141086503Y-114704607D01*
X141027287Y-114588390D01*
X140978657Y-114521456D01*
X140906971Y-114422786D01*
X140762213Y-114278028D01*
X140596614Y-114157715D01*
X140590006Y-114154348D01*
X140503917Y-114110483D01*
X140453123Y-114062511D01*
X140436328Y-113994690D01*
X140458865Y-113928555D01*
X140503917Y-113889516D01*
X140596610Y-113842287D01*
X140700484Y-113766819D01*
X140759170Y-113724182D01*
X140824977Y-113700702D01*
X140832055Y-113700500D01*
X143014367Y-113700500D01*
X143081406Y-113720185D01*
X143087254Y-113724183D01*
X143090799Y-113726759D01*
X143259163Y-113812545D01*
X143259165Y-113812545D01*
X143259168Y-113812547D01*
X143350698Y-113842287D01*
X143438881Y-113870940D01*
X143625514Y-113900500D01*
X143625519Y-113900500D01*
X143814486Y-113900500D01*
X144001118Y-113870940D01*
X144180832Y-113812547D01*
X144349199Y-113726760D01*
X144502073Y-113615690D01*
X144635690Y-113482073D01*
X144746760Y-113329199D01*
X144832547Y-113160832D01*
X144890940Y-112981118D01*
X144908145Y-112872489D01*
X144920500Y-112794486D01*
X144920500Y-112605513D01*
X144890940Y-112418881D01*
X144838498Y-112257483D01*
X144832547Y-112239168D01*
X144832545Y-112239165D01*
X144832545Y-112239163D01*
X144773247Y-112122785D01*
X144746760Y-112070801D01*
X144635690Y-111917927D01*
X144502073Y-111784310D01*
X144349199Y-111673240D01*
X144294519Y-111645379D01*
X144180836Y-111587454D01*
X144001118Y-111529059D01*
X143814486Y-111499500D01*
X143814481Y-111499500D01*
X143625519Y-111499500D01*
X143625514Y-111499500D01*
X143438881Y-111529059D01*
X143259163Y-111587454D01*
X143090799Y-111673240D01*
X143087254Y-111675817D01*
X143021448Y-111699298D01*
X143014367Y-111699500D01*
X140749471Y-111699500D01*
X140733069Y-111694890D01*
X140717312Y-111695257D01*
X140692882Y-111683596D01*
X140684875Y-111681346D01*
X140680618Y-111678748D01*
X140596610Y-111617713D01*
X140499676Y-111568322D01*
X140495618Y-111565846D01*
X140475206Y-111543367D01*
X140453123Y-111522511D01*
X140451943Y-111517749D01*
X140448648Y-111514120D01*
X140443628Y-111484170D01*
X140436328Y-111454690D01*
X140437909Y-111450048D01*
X140437099Y-111445212D01*
X140449069Y-111417299D01*
X140458865Y-111388555D01*
X140462894Y-111385063D01*
X140464638Y-111380998D01*
X140478048Y-111371932D01*
X140503917Y-111349516D01*
X140596610Y-111302287D01*
X140617770Y-111286913D01*
X140762213Y-111181971D01*
X140762215Y-111181968D01*
X140762219Y-111181966D01*
X140906966Y-111037219D01*
X140906968Y-111037215D01*
X140906971Y-111037213D01*
X140959732Y-110964590D01*
X141027287Y-110871610D01*
X141120220Y-110689219D01*
X141183477Y-110494534D01*
X141215500Y-110292352D01*
X141215500Y-110087648D01*
X141201404Y-109998652D01*
X141183477Y-109885465D01*
X141154127Y-109795137D01*
X141120220Y-109690781D01*
X141120218Y-109690778D01*
X141120218Y-109690776D01*
X141068865Y-109589991D01*
X141027287Y-109508390D01*
X140973355Y-109434158D01*
X140939182Y-109387122D01*
X140915702Y-109321316D01*
X140915500Y-109314237D01*
X140915500Y-107024499D01*
X140935185Y-106957460D01*
X140987989Y-106911705D01*
X141039500Y-106900499D01*
X141467871Y-106900499D01*
X141467872Y-106900499D01*
X141527483Y-106894091D01*
X141662331Y-106843796D01*
X141777546Y-106757546D01*
X141863796Y-106642331D01*
X141914091Y-106507483D01*
X141920500Y-106447873D01*
X141920499Y-104152128D01*
X141914091Y-104092517D01*
X141907441Y-104074688D01*
X141863797Y-103957671D01*
X141863793Y-103957664D01*
X141777547Y-103842455D01*
X141777544Y-103842452D01*
X141662335Y-103756206D01*
X141662328Y-103756202D01*
X141527482Y-103705908D01*
X141527483Y-103705908D01*
X141467883Y-103699501D01*
X141467881Y-103699500D01*
X141467873Y-103699500D01*
X141467864Y-103699500D01*
X139172129Y-103699500D01*
X139172123Y-103699501D01*
X139112516Y-103705908D01*
X138977671Y-103756202D01*
X138977664Y-103756206D01*
X138862455Y-103842452D01*
X138862452Y-103842455D01*
X138776206Y-103957664D01*
X138776202Y-103957671D01*
X138725908Y-104092517D01*
X138721715Y-104131522D01*
X138719501Y-104152123D01*
X138719500Y-104152135D01*
X138719500Y-104175500D01*
X138699815Y-104242539D01*
X138647011Y-104288294D01*
X138595500Y-104299500D01*
X137434512Y-104299500D01*
X137378220Y-104285985D01*
X137292951Y-104242539D01*
X137199223Y-104194781D01*
X137004534Y-104131522D01*
X136814720Y-104101459D01*
X136802352Y-104099500D01*
X136597648Y-104099500D01*
X136585280Y-104101459D01*
X136395465Y-104131522D01*
X136200776Y-104194781D01*
X136018386Y-104287715D01*
X135852786Y-104408028D01*
X135708028Y-104552786D01*
X135587715Y-104718386D01*
X135494781Y-104900776D01*
X135431522Y-105095465D01*
X135399500Y-105297648D01*
X135399500Y-105502351D01*
X135431522Y-105704534D01*
X135494781Y-105899223D01*
X135587715Y-106081613D01*
X135708028Y-106247213D01*
X135852786Y-106391971D01*
X136007749Y-106504556D01*
X136018390Y-106512287D01*
X136134607Y-106571503D01*
X136200776Y-106605218D01*
X136200778Y-106605218D01*
X136200781Y-106605220D01*
X136305137Y-106639127D01*
X136395465Y-106668477D01*
X136496557Y-106684488D01*
X136597648Y-106700500D01*
X136597649Y-106700500D01*
X136802351Y-106700500D01*
X136802352Y-106700500D01*
X137004534Y-106668477D01*
X137199219Y-106605220D01*
X137381610Y-106512287D01*
X137474590Y-106444732D01*
X137547213Y-106391971D01*
X137547215Y-106391968D01*
X137547219Y-106391966D01*
X137602366Y-106336819D01*
X137663689Y-106303334D01*
X137690047Y-106300500D01*
X138595501Y-106300500D01*
X138662540Y-106320185D01*
X138708295Y-106372989D01*
X138719501Y-106424500D01*
X138719501Y-106447876D01*
X138725908Y-106507483D01*
X138776202Y-106642328D01*
X138776203Y-106642329D01*
X138776204Y-106642331D01*
X138809685Y-106687056D01*
X138862452Y-106757544D01*
X138862453Y-106757544D01*
X138862454Y-106757546D01*
X138864807Y-106759307D01*
X138866572Y-106761665D01*
X138868725Y-106763818D01*
X138868415Y-106764127D01*
X138906680Y-106815238D01*
X138914500Y-106858577D01*
X138914500Y-109314237D01*
X138894815Y-109381276D01*
X138890818Y-109387122D01*
X138802715Y-109508386D01*
X138709781Y-109690776D01*
X138646522Y-109885465D01*
X138614500Y-110087648D01*
X138614500Y-110292351D01*
X138646522Y-110494534D01*
X138709781Y-110689223D01*
X138761140Y-110790018D01*
X138793512Y-110853553D01*
X138802715Y-110871613D01*
X138923028Y-111037213D01*
X139067786Y-111181971D01*
X139221345Y-111293536D01*
X139233390Y-111302287D01*
X139324840Y-111348883D01*
X139326080Y-111349515D01*
X139376876Y-111397490D01*
X139393671Y-111465311D01*
X139371134Y-111531446D01*
X139326080Y-111570485D01*
X139233386Y-111617715D01*
X139067786Y-111738028D01*
X138923028Y-111882786D01*
X138802715Y-112048386D01*
X138709781Y-112230776D01*
X138646522Y-112425465D01*
X138614500Y-112627648D01*
X138614500Y-112832351D01*
X138646522Y-113034534D01*
X138709781Y-113229223D01*
X138802715Y-113411613D01*
X138923028Y-113577213D01*
X139067786Y-113721971D01*
X139191967Y-113812192D01*
X139233390Y-113842287D01*
X139289625Y-113870940D01*
X139326080Y-113889515D01*
X139376876Y-113937490D01*
X139393671Y-114005311D01*
X139371134Y-114071446D01*
X139326080Y-114110485D01*
X139233386Y-114157715D01*
X139112123Y-114245818D01*
X139092078Y-114252970D01*
X139074173Y-114264477D01*
X139050146Y-114267931D01*
X139046317Y-114269298D01*
X139039238Y-114269500D01*
X138835782Y-114269500D01*
X138768743Y-114249815D01*
X138748101Y-114233181D01*
X138236819Y-113721899D01*
X138203334Y-113660576D01*
X138200500Y-113634218D01*
X138200500Y-111004675D01*
X138200501Y-111004654D01*
X138200501Y-110801457D01*
X138200500Y-110801455D01*
X138189391Y-110745606D01*
X138162052Y-110608165D01*
X138086632Y-110426086D01*
X138086631Y-110426085D01*
X138086628Y-110426079D01*
X137977140Y-110262219D01*
X137977137Y-110262215D01*
X133026717Y-105311797D01*
X132993232Y-105250474D01*
X132991925Y-105243513D01*
X132968477Y-105095466D01*
X132968477Y-105095465D01*
X132913159Y-104925215D01*
X132905220Y-104900781D01*
X132905218Y-104900778D01*
X132905218Y-104900776D01*
X132871503Y-104834607D01*
X132812287Y-104718390D01*
X132788479Y-104685621D01*
X132691971Y-104552786D01*
X132547213Y-104408028D01*
X132381613Y-104287715D01*
X132381612Y-104287714D01*
X132381610Y-104287713D01*
X132302372Y-104247339D01*
X132199223Y-104194781D01*
X132004534Y-104131522D01*
X131814720Y-104101459D01*
X131802352Y-104099500D01*
X131597648Y-104099500D01*
X131585280Y-104101459D01*
X131395465Y-104131522D01*
X131200776Y-104194781D01*
X131018386Y-104287715D01*
X130852786Y-104408028D01*
X130708028Y-104552786D01*
X130587715Y-104718386D01*
X130494781Y-104900776D01*
X130431522Y-105095465D01*
X130399500Y-105297648D01*
X130399500Y-105502352D01*
X130399499Y-105502352D01*
X130411731Y-105579578D01*
X130402776Y-105648871D01*
X130357780Y-105702323D01*
X130291028Y-105722962D01*
X130223714Y-105704237D01*
X130201577Y-105686656D01*
X129836819Y-105321898D01*
X129803334Y-105260575D01*
X129800500Y-105234217D01*
X129800500Y-103765782D01*
X129820185Y-103698743D01*
X129836819Y-103678101D01*
X130278102Y-103236819D01*
X130305029Y-103222115D01*
X130330848Y-103205523D01*
X130337048Y-103204631D01*
X130339425Y-103203334D01*
X130365783Y-103200500D01*
X130394367Y-103200500D01*
X130461406Y-103220185D01*
X130467254Y-103224183D01*
X130470799Y-103226759D01*
X130639163Y-103312545D01*
X130639165Y-103312545D01*
X130639168Y-103312547D01*
X130715934Y-103337490D01*
X130818881Y-103370940D01*
X131005514Y-103400500D01*
X131005519Y-103400500D01*
X131194486Y-103400500D01*
X131381118Y-103370940D01*
X131385627Y-103369475D01*
X131560832Y-103312547D01*
X131729199Y-103226760D01*
X131882073Y-103115690D01*
X132015690Y-102982073D01*
X132126760Y-102829199D01*
X132212547Y-102660832D01*
X132270940Y-102481118D01*
X132271625Y-102476788D01*
X132301551Y-102413653D01*
X132306401Y-102408517D01*
X134078102Y-100636819D01*
X134139425Y-100603334D01*
X134165783Y-100600500D01*
X134581459Y-100600500D01*
X143501459Y-100600500D01*
X144411460Y-100600500D01*
X144608540Y-100600500D01*
X147434218Y-100600500D01*
X147501257Y-100620185D01*
X147521899Y-100636819D01*
X149443181Y-102558101D01*
X149476666Y-102619424D01*
X149479500Y-102645782D01*
X149479500Y-103986037D01*
X149459815Y-104053076D01*
X149440376Y-104075350D01*
X149440788Y-104075762D01*
X149259205Y-104257345D01*
X149259201Y-104257350D01*
X149111132Y-104461151D01*
X148996760Y-104685616D01*
X148918910Y-104925214D01*
X148906942Y-105000776D01*
X148879500Y-105174038D01*
X148879500Y-105425962D01*
X148907438Y-105602352D01*
X148918910Y-105674785D01*
X148996760Y-105914383D01*
X149047362Y-106013694D01*
X149106890Y-106130524D01*
X149111132Y-106138848D01*
X149259201Y-106342649D01*
X149259205Y-106342654D01*
X149437345Y-106520794D01*
X149437350Y-106520798D01*
X149553545Y-106605218D01*
X149641155Y-106668870D01*
X149784184Y-106741747D01*
X149865616Y-106783239D01*
X149865618Y-106783239D01*
X149865621Y-106783241D01*
X150105215Y-106861090D01*
X150354038Y-106900500D01*
X150354039Y-106900500D01*
X150605961Y-106900500D01*
X150605962Y-106900500D01*
X150854785Y-106861090D01*
X151094379Y-106783241D01*
X151318845Y-106668870D01*
X151522656Y-106520793D01*
X151700793Y-106342656D01*
X151848870Y-106138845D01*
X151963241Y-105914379D01*
X152041090Y-105674785D01*
X152080500Y-105425962D01*
X152080500Y-105174038D01*
X152041090Y-104925215D01*
X151963241Y-104685621D01*
X151963239Y-104685618D01*
X151963239Y-104685616D01*
X151917938Y-104596708D01*
X151848870Y-104461155D01*
X151829952Y-104435117D01*
X151700798Y-104257350D01*
X151700794Y-104257345D01*
X151519212Y-104075762D01*
X151520285Y-104074688D01*
X151485774Y-104021815D01*
X151480500Y-103986037D01*
X151480500Y-102081456D01*
X151466718Y-102012174D01*
X151451954Y-101937949D01*
X151442051Y-101888164D01*
X151383200Y-101746086D01*
X151380332Y-101739163D01*
X151366635Y-101706093D01*
X151366634Y-101706092D01*
X151366632Y-101706086D01*
X151276237Y-101570800D01*
X151257139Y-101542217D01*
X151114686Y-101399764D01*
X151114655Y-101399735D01*
X148681479Y-98966559D01*
X148681459Y-98966537D01*
X148537785Y-98822863D01*
X148537781Y-98822860D01*
X148373920Y-98713371D01*
X148373911Y-98713366D01*
X148296600Y-98681343D01*
X148245165Y-98660038D01*
X148191836Y-98637949D01*
X148093506Y-98618390D01*
X148088927Y-98617479D01*
X148088923Y-98617478D01*
X147998543Y-98599500D01*
X147998541Y-98599500D01*
X147224782Y-98599500D01*
X147157743Y-98579815D01*
X147111988Y-98527011D01*
X147102044Y-98457853D01*
X147131069Y-98394297D01*
X147137101Y-98387819D01*
X147635549Y-97889371D01*
X148208502Y-97316417D01*
X148269823Y-97282934D01*
X148276789Y-97281626D01*
X148281114Y-97280941D01*
X148281116Y-97280940D01*
X148281118Y-97280940D01*
X148460832Y-97222547D01*
X148629199Y-97136760D01*
X148782073Y-97025690D01*
X148915690Y-96892073D01*
X149026760Y-96739199D01*
X149112547Y-96570832D01*
X149170940Y-96391118D01*
X149171625Y-96386788D01*
X149201551Y-96323653D01*
X149206401Y-96318517D01*
X154237778Y-91287141D01*
X154237782Y-91287139D01*
X154377139Y-91147782D01*
X154486632Y-90983914D01*
X154543789Y-90845924D01*
X154562050Y-90801838D01*
X154562052Y-90801830D01*
X154562578Y-90799194D01*
X154600499Y-90608544D01*
X154600500Y-90608541D01*
X154600500Y-85701457D01*
X154587124Y-85634217D01*
X154585507Y-85626086D01*
X154562052Y-85508165D01*
X154486632Y-85326086D01*
X154486631Y-85326085D01*
X154486628Y-85326079D01*
X154377140Y-85162219D01*
X154377137Y-85162215D01*
X148134828Y-78919908D01*
X148101343Y-78858585D01*
X148106327Y-78788893D01*
X148148199Y-78732960D01*
X148213663Y-78708543D01*
X148222509Y-78708227D01*
X151389963Y-78708227D01*
X151457002Y-78727912D01*
X151502757Y-78780716D01*
X151506134Y-78788867D01*
X151510308Y-78800058D01*
X151510309Y-78800059D01*
X151510310Y-78800062D01*
X151596556Y-78915271D01*
X151596559Y-78915274D01*
X151711768Y-79001520D01*
X151711775Y-79001524D01*
X151846621Y-79051818D01*
X151846620Y-79051818D01*
X151853548Y-79052562D01*
X151906231Y-79058227D01*
X153701976Y-79058226D01*
X153761587Y-79051818D01*
X153896435Y-79001523D01*
X154011650Y-78915273D01*
X154097900Y-78800058D01*
X154148195Y-78665210D01*
X154154604Y-78605600D01*
X154154603Y-76809855D01*
X154148195Y-76750244D01*
X154137516Y-76721613D01*
X154097901Y-76615398D01*
X154097897Y-76615391D01*
X154011651Y-76500182D01*
X154011648Y-76500179D01*
X153896439Y-76413933D01*
X153896432Y-76413929D01*
X153761586Y-76363635D01*
X153761587Y-76363635D01*
X153701987Y-76357228D01*
X153701985Y-76357227D01*
X153701977Y-76357227D01*
X153701968Y-76357227D01*
X151906233Y-76357227D01*
X151906227Y-76357228D01*
X151846620Y-76363635D01*
X151711775Y-76413929D01*
X151711768Y-76413933D01*
X151596559Y-76500179D01*
X151596556Y-76500182D01*
X151510310Y-76615391D01*
X151510308Y-76615395D01*
X151510308Y-76615396D01*
X151506143Y-76626561D01*
X151464275Y-76682493D01*
X151398811Y-76706911D01*
X151389963Y-76707227D01*
X145973509Y-76707227D01*
X145906470Y-76687542D01*
X145885828Y-76670908D01*
X144741479Y-75526559D01*
X144741459Y-75526537D01*
X144597785Y-75382863D01*
X144597781Y-75382860D01*
X144433920Y-75273371D01*
X144433911Y-75273366D01*
X144312579Y-75223109D01*
X144312578Y-75223108D01*
X144305165Y-75220038D01*
X144251836Y-75197949D01*
X144131969Y-75174106D01*
X144127887Y-75173294D01*
X144127876Y-75173291D01*
X144058543Y-75159500D01*
X144058541Y-75159500D01*
X130805633Y-75159500D01*
X130738594Y-75139815D01*
X130732746Y-75135817D01*
X130729200Y-75133240D01*
X130560836Y-75047454D01*
X130381118Y-74989059D01*
X130241669Y-74966973D01*
X130178534Y-74937044D01*
X130141603Y-74877732D01*
X130142601Y-74807870D01*
X130181211Y-74749637D01*
X130245175Y-74721523D01*
X130261067Y-74720500D01*
X139601459Y-74720500D01*
X140241459Y-74720500D01*
X153714218Y-74720500D01*
X153781257Y-74740185D01*
X153801899Y-74756819D01*
X161023181Y-81978101D01*
X161056666Y-82039424D01*
X161059500Y-82065782D01*
X161059500Y-82176408D01*
X161039815Y-82243447D01*
X160987011Y-82289202D01*
X160917853Y-82299146D01*
X160854297Y-82270121D01*
X160836235Y-82250721D01*
X160830046Y-82242454D01*
X160830044Y-82242452D01*
X160714835Y-82156206D01*
X160714828Y-82156202D01*
X160579982Y-82105908D01*
X160579983Y-82105908D01*
X160520383Y-82099501D01*
X160520381Y-82099500D01*
X160520373Y-82099500D01*
X160520364Y-82099500D01*
X158519629Y-82099500D01*
X158519623Y-82099501D01*
X158460016Y-82105908D01*
X158325171Y-82156202D01*
X158325164Y-82156206D01*
X158209955Y-82242452D01*
X158209952Y-82242455D01*
X158123706Y-82357664D01*
X158123702Y-82357671D01*
X158073408Y-82492517D01*
X158067001Y-82552116D01*
X158067000Y-82552135D01*
X158067000Y-84647870D01*
X158067001Y-84647876D01*
X158073408Y-84707483D01*
X158123702Y-84842328D01*
X158123706Y-84842335D01*
X158209952Y-84957544D01*
X158209955Y-84957547D01*
X158325164Y-85043793D01*
X158325171Y-85043797D01*
X158438833Y-85086190D01*
X158494767Y-85128061D01*
X158519184Y-85193525D01*
X158519500Y-85202372D01*
X158519500Y-89814217D01*
X158499815Y-89881256D01*
X158483181Y-89901898D01*
X155062220Y-93322859D01*
X155062218Y-93322861D01*
X155026082Y-93358997D01*
X154922859Y-93462219D01*
X154813371Y-93626080D01*
X154813366Y-93626089D01*
X154776271Y-93715645D01*
X154776263Y-93715664D01*
X154775354Y-93717861D01*
X154737949Y-93808164D01*
X154735026Y-93822861D01*
X154733118Y-93832452D01*
X154733116Y-93832458D01*
X154699500Y-94001456D01*
X154699500Y-103734217D01*
X154679815Y-103801256D01*
X154663181Y-103821898D01*
X148162220Y-110322859D01*
X148162218Y-110322861D01*
X148092538Y-110392540D01*
X148022859Y-110462219D01*
X147913371Y-110626080D01*
X147913364Y-110626093D01*
X147889684Y-110683264D01*
X147889680Y-110683274D01*
X147888394Y-110686380D01*
X147837949Y-110808164D01*
X147829578Y-110850247D01*
X147827856Y-110858901D01*
X147827855Y-110858906D01*
X147799500Y-111001456D01*
X147799500Y-111994366D01*
X147779815Y-112061405D01*
X147775821Y-112067247D01*
X147773242Y-112070796D01*
X147687454Y-112239163D01*
X147629059Y-112418881D01*
X147599500Y-112605513D01*
X147599500Y-112794486D01*
X147629059Y-112981118D01*
X147687454Y-113160836D01*
X147731800Y-113247869D01*
X147773240Y-113329199D01*
X147884310Y-113482073D01*
X148017927Y-113615690D01*
X148170801Y-113726760D01*
X148249421Y-113766819D01*
X148339163Y-113812545D01*
X148339165Y-113812545D01*
X148339168Y-113812547D01*
X148430698Y-113842287D01*
X148518881Y-113870940D01*
X148705514Y-113900500D01*
X148705519Y-113900500D01*
X148894486Y-113900500D01*
X149081118Y-113870940D01*
X149260832Y-113812547D01*
X149429199Y-113726760D01*
X149582073Y-113615690D01*
X149715690Y-113482073D01*
X149826760Y-113329199D01*
X149912547Y-113160832D01*
X149970940Y-112981118D01*
X149988145Y-112872489D01*
X150000500Y-112794486D01*
X150000500Y-112605513D01*
X149970940Y-112418881D01*
X149918498Y-112257483D01*
X149912547Y-112239168D01*
X149912545Y-112239165D01*
X149912545Y-112239163D01*
X149853247Y-112122785D01*
X149826760Y-112070801D01*
X149826758Y-112070798D01*
X149826757Y-112070796D01*
X149824179Y-112067247D01*
X149800702Y-112001439D01*
X149800500Y-111994366D01*
X149800500Y-111565782D01*
X149820185Y-111498743D01*
X149836819Y-111478101D01*
X156477137Y-104837784D01*
X156477137Y-104837783D01*
X156477140Y-104837781D01*
X156586632Y-104673914D01*
X156662052Y-104491835D01*
X156700501Y-104298540D01*
X156700501Y-104101459D01*
X156700501Y-104096349D01*
X156700500Y-104096323D01*
X156700500Y-94565782D01*
X156720185Y-94498743D01*
X156736819Y-94478101D01*
X157927467Y-93287453D01*
X159121749Y-92093170D01*
X159143301Y-92081402D01*
X159162497Y-92066077D01*
X159173427Y-92064952D01*
X159183070Y-92059687D01*
X159207568Y-92061439D01*
X159232000Y-92058925D01*
X159244722Y-92064096D01*
X159252762Y-92064671D01*
X159265437Y-92070223D01*
X159272106Y-92073599D01*
X159335234Y-92115780D01*
X159441893Y-92159959D01*
X159517312Y-92191199D01*
X159688346Y-92225220D01*
X159710602Y-92229647D01*
X159710605Y-92229648D01*
X159710607Y-92229648D01*
X161976557Y-92229648D01*
X162043596Y-92249333D01*
X162089351Y-92302137D01*
X162092728Y-92310288D01*
X162096902Y-92321479D01*
X162096903Y-92321480D01*
X162096904Y-92321483D01*
X162183150Y-92436692D01*
X162183153Y-92436695D01*
X162298362Y-92522941D01*
X162298369Y-92522945D01*
X162433215Y-92573239D01*
X162433214Y-92573239D01*
X162440142Y-92573983D01*
X162492825Y-92579648D01*
X164288570Y-92579647D01*
X164348181Y-92573239D01*
X164483029Y-92522944D01*
X164598244Y-92436694D01*
X164684494Y-92321479D01*
X164734789Y-92186631D01*
X164741198Y-92127021D01*
X164741197Y-90331276D01*
X164734789Y-90271665D01*
X164712459Y-90211796D01*
X164684495Y-90136819D01*
X164684491Y-90136812D01*
X164598245Y-90021603D01*
X164598242Y-90021600D01*
X164483033Y-89935354D01*
X164483026Y-89935350D01*
X164348180Y-89885056D01*
X164348181Y-89885056D01*
X164288581Y-89878649D01*
X164288579Y-89878648D01*
X164288571Y-89878648D01*
X164288562Y-89878648D01*
X162492827Y-89878648D01*
X162492821Y-89878649D01*
X162433214Y-89885056D01*
X162298369Y-89935350D01*
X162298362Y-89935354D01*
X162183153Y-90021600D01*
X162183150Y-90021603D01*
X162096904Y-90136812D01*
X162096902Y-90136816D01*
X162096902Y-90136817D01*
X162092737Y-90147982D01*
X162050869Y-90203914D01*
X161985405Y-90228332D01*
X161976557Y-90228648D01*
X160644500Y-90228648D01*
X160577461Y-90208963D01*
X160531706Y-90156159D01*
X160520500Y-90104648D01*
X160520500Y-85202372D01*
X160540185Y-85135333D01*
X160592989Y-85089578D01*
X160601167Y-85086190D01*
X160714828Y-85043797D01*
X160714827Y-85043797D01*
X160714831Y-85043796D01*
X160830046Y-84957546D01*
X160916296Y-84842331D01*
X160926690Y-84814460D01*
X160968560Y-84758527D01*
X161034023Y-84734108D01*
X161102297Y-84748958D01*
X161115746Y-84757465D01*
X161298462Y-84890217D01*
X161430599Y-84957544D01*
X161502244Y-84994049D01*
X161719751Y-85064721D01*
X161719752Y-85064721D01*
X161719755Y-85064722D01*
X161945646Y-85100500D01*
X161945647Y-85100500D01*
X162174353Y-85100500D01*
X162174354Y-85100500D01*
X162400245Y-85064722D01*
X162400248Y-85064721D01*
X162400249Y-85064721D01*
X162617755Y-84994049D01*
X162617755Y-84994048D01*
X162617758Y-84994048D01*
X162821538Y-84890217D01*
X163006566Y-84755786D01*
X163168286Y-84594066D01*
X163229683Y-84509559D01*
X163248293Y-84495209D01*
X163263831Y-84477577D01*
X163275448Y-84474270D01*
X163285012Y-84466896D01*
X163308425Y-84464885D01*
X163331032Y-84458451D01*
X163342592Y-84461950D01*
X163354625Y-84460917D01*
X163375408Y-84471883D01*
X163397905Y-84478693D01*
X163409821Y-84490041D01*
X163416420Y-84493523D01*
X163424385Y-84502027D01*
X163427498Y-84505681D01*
X163491714Y-84594066D01*
X163566677Y-84669029D01*
X163569885Y-84672794D01*
X163582196Y-84700357D01*
X163596666Y-84726856D01*
X163597500Y-84734620D01*
X163598380Y-84736589D01*
X163597988Y-84739158D01*
X163599500Y-84753214D01*
X163599500Y-86198541D01*
X163599500Y-86198543D01*
X163599499Y-86198543D01*
X163637947Y-86391829D01*
X163637950Y-86391839D01*
X163713364Y-86573907D01*
X163713371Y-86573920D01*
X163822859Y-86737780D01*
X163822860Y-86737781D01*
X163822861Y-86737782D01*
X163962218Y-86877139D01*
X163962219Y-86877139D01*
X163969286Y-86884206D01*
X163969285Y-86884206D01*
X163969289Y-86884209D01*
X167063181Y-89978101D01*
X167096666Y-90039424D01*
X167099500Y-90065782D01*
X167099500Y-97134217D01*
X167079815Y-97201256D01*
X167063181Y-97221898D01*
X166061899Y-98223181D01*
X166034971Y-98237884D01*
X166009153Y-98254477D01*
X166002952Y-98255368D01*
X166000576Y-98256666D01*
X165974218Y-98259500D01*
X165853214Y-98259500D01*
X165786175Y-98239815D01*
X165765533Y-98223181D01*
X165694068Y-98151716D01*
X165694066Y-98151714D01*
X165609134Y-98090007D01*
X165566470Y-98034678D01*
X165560491Y-97965064D01*
X165593097Y-97903269D01*
X165609137Y-97889371D01*
X165693739Y-97827905D01*
X165855402Y-97666242D01*
X165989788Y-97481276D01*
X166093582Y-97277570D01*
X166164234Y-97060128D01*
X166178509Y-96970000D01*
X165190748Y-96970000D01*
X165212518Y-96932292D01*
X165250000Y-96792409D01*
X165250000Y-96647591D01*
X165212518Y-96507708D01*
X165190748Y-96470000D01*
X166178509Y-96470000D01*
X166164234Y-96379871D01*
X166093582Y-96162429D01*
X165989788Y-95958723D01*
X165855402Y-95773757D01*
X165693742Y-95612097D01*
X165508776Y-95477711D01*
X165305068Y-95373917D01*
X165087625Y-95303265D01*
X165087626Y-95303265D01*
X164950000Y-95281467D01*
X164950000Y-96229252D01*
X164912292Y-96207482D01*
X164772409Y-96170000D01*
X164627591Y-96170000D01*
X164487708Y-96207482D01*
X164450000Y-96229252D01*
X164450000Y-95281467D01*
X164312374Y-95303265D01*
X164094931Y-95373917D01*
X163891223Y-95477711D01*
X163706257Y-95612097D01*
X163544597Y-95773757D01*
X163410211Y-95958723D01*
X163306417Y-96162429D01*
X163235765Y-96379871D01*
X163221491Y-96470000D01*
X164209252Y-96470000D01*
X164187482Y-96507708D01*
X164150000Y-96647591D01*
X164150000Y-96792409D01*
X164187482Y-96932292D01*
X164209252Y-96970000D01*
X163221491Y-96970000D01*
X163235765Y-97060128D01*
X163306417Y-97277570D01*
X163410211Y-97481276D01*
X163544597Y-97666242D01*
X163706257Y-97827902D01*
X163706263Y-97827907D01*
X163790863Y-97889372D01*
X163833529Y-97944701D01*
X163839508Y-98014315D01*
X163806903Y-98076110D01*
X163790864Y-98090007D01*
X163705940Y-98151709D01*
X163705931Y-98151716D01*
X163544216Y-98313431D01*
X163544216Y-98313432D01*
X163544214Y-98313434D01*
X163510745Y-98359500D01*
X163409783Y-98498461D01*
X163305950Y-98702244D01*
X163235278Y-98919750D01*
X163235278Y-98919753D01*
X163223286Y-98995466D01*
X163199500Y-99145646D01*
X163199500Y-99374354D01*
X163217389Y-99487299D01*
X163235278Y-99600246D01*
X163235278Y-99600249D01*
X163305950Y-99817755D01*
X163346726Y-99897782D01*
X163409783Y-100021538D01*
X163542525Y-100204242D01*
X163566005Y-100270046D01*
X163550180Y-100338100D01*
X163500074Y-100386795D01*
X163485541Y-100393308D01*
X163457670Y-100403703D01*
X163457664Y-100403706D01*
X163342455Y-100489952D01*
X163342452Y-100489955D01*
X163256206Y-100605164D01*
X163256202Y-100605171D01*
X163205908Y-100740017D01*
X163200690Y-100788555D01*
X163199501Y-100799623D01*
X163199500Y-100799635D01*
X163199500Y-102800370D01*
X163199501Y-102800376D01*
X163205908Y-102859983D01*
X163256202Y-102994828D01*
X163256206Y-102994835D01*
X163342452Y-103110044D01*
X163342454Y-103110046D01*
X163457664Y-103196293D01*
X163457671Y-103196297D01*
X163592517Y-103246591D01*
X163600062Y-103248374D01*
X163599523Y-103250651D01*
X163653287Y-103272908D01*
X163693147Y-103330293D01*
X163699500Y-103369475D01*
X163699500Y-105634218D01*
X163679815Y-105701257D01*
X163663181Y-105721899D01*
X162121899Y-107263181D01*
X162060576Y-107296666D01*
X162034218Y-107299500D01*
X158241455Y-107299500D01*
X158144812Y-107318724D01*
X158048167Y-107337947D01*
X158048161Y-107337949D01*
X157994834Y-107360037D01*
X157994834Y-107360038D01*
X157949315Y-107378892D01*
X157866089Y-107413366D01*
X157866079Y-107413371D01*
X157702219Y-107522859D01*
X157661526Y-107563553D01*
X157562861Y-107662218D01*
X157562858Y-107662221D01*
X148531497Y-116693581D01*
X148470174Y-116727066D01*
X148463223Y-116728372D01*
X148458884Y-116729059D01*
X148279165Y-116787454D01*
X148110800Y-116873240D01*
X148074935Y-116899298D01*
X147957927Y-116984310D01*
X147957925Y-116984312D01*
X147957924Y-116984312D01*
X147824312Y-117117924D01*
X147824312Y-117117925D01*
X147824310Y-117117927D01*
X147776610Y-117183579D01*
X147713240Y-117270800D01*
X147627454Y-117439163D01*
X147569059Y-117618881D01*
X147539500Y-117805513D01*
X147539500Y-117994486D01*
X147569059Y-118181118D01*
X147627454Y-118360836D01*
X147694089Y-118491613D01*
X147713240Y-118529199D01*
X147824310Y-118682073D01*
X147957927Y-118815690D01*
X148110801Y-118926760D01*
X148190347Y-118967290D01*
X148279163Y-119012545D01*
X148279165Y-119012545D01*
X148279168Y-119012547D01*
X148331867Y-119029670D01*
X148458881Y-119070940D01*
X148645514Y-119100500D01*
X148645519Y-119100500D01*
X148834486Y-119100500D01*
X149021118Y-119070940D01*
X149200832Y-119012547D01*
X149369199Y-118926760D01*
X149522073Y-118815690D01*
X149655690Y-118682073D01*
X149766760Y-118529199D01*
X149852547Y-118360832D01*
X149910940Y-118181118D01*
X149911625Y-118176788D01*
X149941551Y-118113653D01*
X149946401Y-118108517D01*
X158718101Y-109336819D01*
X158779424Y-109303334D01*
X158805782Y-109300500D01*
X162598542Y-109300500D01*
X162624964Y-109295244D01*
X162695188Y-109281275D01*
X162791836Y-109262051D01*
X162874165Y-109227949D01*
X162973914Y-109186632D01*
X163137782Y-109077139D01*
X163277139Y-108937782D01*
X163277140Y-108937780D01*
X163284206Y-108930714D01*
X163284208Y-108930710D01*
X163587820Y-108627099D01*
X163649142Y-108593615D01*
X163718834Y-108598599D01*
X163774767Y-108640471D01*
X163799184Y-108705935D01*
X163799500Y-108714781D01*
X163799500Y-109885858D01*
X163779815Y-109952897D01*
X163727011Y-109998652D01*
X163718847Y-110002034D01*
X163707669Y-110006204D01*
X163707664Y-110006206D01*
X163592455Y-110092452D01*
X163592452Y-110092455D01*
X163506206Y-110207664D01*
X163506202Y-110207671D01*
X163455908Y-110342517D01*
X163450334Y-110394366D01*
X163449501Y-110402123D01*
X163449500Y-110402135D01*
X163449500Y-112197870D01*
X163449501Y-112197876D01*
X163455908Y-112257483D01*
X163506202Y-112392328D01*
X163506206Y-112392335D01*
X163592452Y-112507544D01*
X163592455Y-112507547D01*
X163707664Y-112593793D01*
X163707671Y-112593797D01*
X163842517Y-112644091D01*
X163842516Y-112644091D01*
X163849444Y-112644835D01*
X163902127Y-112650500D01*
X165697872Y-112650499D01*
X165757483Y-112644091D01*
X165892331Y-112593796D01*
X166007546Y-112507546D01*
X166093796Y-112392331D01*
X166144091Y-112257483D01*
X166150500Y-112197873D01*
X166150499Y-110402128D01*
X166144091Y-110342517D01*
X166136760Y-110322862D01*
X166093797Y-110207671D01*
X166093793Y-110207664D01*
X166007547Y-110092455D01*
X166007544Y-110092452D01*
X165892335Y-110006206D01*
X165892332Y-110006205D01*
X165892331Y-110006204D01*
X165881161Y-110002038D01*
X165825231Y-109960166D01*
X165800816Y-109894701D01*
X165800500Y-109885858D01*
X165800500Y-103335290D01*
X165820185Y-103268251D01*
X165872989Y-103222496D01*
X165881146Y-103219116D01*
X165942331Y-103196296D01*
X166057546Y-103110046D01*
X166143796Y-102994831D01*
X166194091Y-102859983D01*
X166200500Y-102800373D01*
X166200499Y-100799628D01*
X166194091Y-100740017D01*
X166191366Y-100732712D01*
X166143797Y-100605171D01*
X166143793Y-100605164D01*
X166057547Y-100489955D01*
X166057546Y-100489954D01*
X166049281Y-100483767D01*
X166007409Y-100427834D01*
X166002425Y-100358142D01*
X166035909Y-100296819D01*
X166097232Y-100263334D01*
X166123591Y-100260500D01*
X166538543Y-100260500D01*
X166599956Y-100248283D01*
X166703029Y-100227781D01*
X166731836Y-100222051D01*
X166790428Y-100197781D01*
X166913914Y-100146632D01*
X167077782Y-100037139D01*
X167217139Y-99897782D01*
X167217139Y-99897780D01*
X167227347Y-99887573D01*
X167227348Y-99887570D01*
X168877140Y-98237781D01*
X168986632Y-98073914D01*
X169062052Y-97891835D01*
X169100501Y-97698540D01*
X169100501Y-97501459D01*
X169100501Y-97496349D01*
X169100500Y-97496323D01*
X169100500Y-89501458D01*
X169100499Y-89501457D01*
X169082978Y-89413369D01*
X169062051Y-89308164D01*
X169012774Y-89189199D01*
X168986632Y-89126086D01*
X168916304Y-89020832D01*
X168877140Y-88962219D01*
X168865753Y-88950832D01*
X168737782Y-88822861D01*
X168737781Y-88822860D01*
X165636819Y-85721898D01*
X165603334Y-85660575D01*
X165600500Y-85634217D01*
X165600500Y-84753214D01*
X165609144Y-84723773D01*
X165615668Y-84693787D01*
X165619422Y-84688771D01*
X165620185Y-84686175D01*
X165636819Y-84665533D01*
X165665533Y-84636819D01*
X165726856Y-84603334D01*
X165753214Y-84600500D01*
X170352750Y-84600500D01*
X170419789Y-84620185D01*
X170465544Y-84672989D01*
X170476748Y-84724939D01*
X170428326Y-98313431D01*
X170340085Y-123075942D01*
X170320162Y-123142911D01*
X170267195Y-123188477D01*
X170216086Y-123199500D01*
X165793719Y-123199500D01*
X165726680Y-123179815D01*
X165680925Y-123127011D01*
X165670981Y-123057853D01*
X165700006Y-122994297D01*
X165735565Y-122966469D01*
X165735529Y-122966410D01*
X165736043Y-122966094D01*
X165737422Y-122965016D01*
X165739681Y-122963865D01*
X165895102Y-122850945D01*
X166030945Y-122715102D01*
X166143865Y-122559681D01*
X166231082Y-122388509D01*
X166290447Y-122205801D01*
X166320500Y-122016055D01*
X166320500Y-121823945D01*
X166290447Y-121634199D01*
X166231082Y-121451491D01*
X166143865Y-121280319D01*
X166030945Y-121124898D01*
X165895102Y-120989055D01*
X165739681Y-120876135D01*
X165568506Y-120788916D01*
X165385802Y-120729553D01*
X165290928Y-120714526D01*
X165196055Y-120699500D01*
X165003945Y-120699500D01*
X164940696Y-120709517D01*
X164814197Y-120729553D01*
X164631493Y-120788916D01*
X164460318Y-120876135D01*
X164380690Y-120933989D01*
X164304898Y-120989055D01*
X164304896Y-120989057D01*
X164304895Y-120989057D01*
X164169057Y-121124895D01*
X164169057Y-121124896D01*
X164169055Y-121124898D01*
X164132227Y-121175587D01*
X164056135Y-121280318D01*
X163968916Y-121451493D01*
X163909553Y-121634197D01*
X163879500Y-121823945D01*
X163879500Y-122016054D01*
X163909553Y-122205802D01*
X163968916Y-122388506D01*
X163968918Y-122388509D01*
X164056135Y-122559681D01*
X164169055Y-122715102D01*
X164304898Y-122850945D01*
X164460319Y-122963865D01*
X164462578Y-122965016D01*
X164463283Y-122965682D01*
X164464471Y-122966410D01*
X164464318Y-122966659D01*
X164513373Y-123012991D01*
X164530167Y-123080813D01*
X164507628Y-123146947D01*
X164452912Y-123190398D01*
X164406281Y-123199500D01*
X160421906Y-123199500D01*
X160397715Y-123197117D01*
X160363937Y-123190398D01*
X160320875Y-123181832D01*
X160320873Y-123181832D01*
X158445101Y-123181832D01*
X158378062Y-123162147D01*
X158332307Y-123109343D01*
X158321101Y-123057832D01*
X158321101Y-120616845D01*
X158334616Y-120560550D01*
X158360363Y-120510020D01*
X158425821Y-120381551D01*
X158489078Y-120186866D01*
X158521101Y-119984684D01*
X158521101Y-119779980D01*
X158498719Y-119638669D01*
X158489078Y-119577797D01*
X158458059Y-119482332D01*
X158425821Y-119383113D01*
X158425819Y-119383110D01*
X158425819Y-119383108D01*
X158392104Y-119316939D01*
X158332888Y-119200722D01*
X158300693Y-119156409D01*
X158212572Y-119035118D01*
X158067814Y-118890360D01*
X157902214Y-118770047D01*
X157902213Y-118770046D01*
X157902211Y-118770045D01*
X157845254Y-118741023D01*
X157719824Y-118677113D01*
X157525135Y-118613854D01*
X157350596Y-118586210D01*
X157322953Y-118581832D01*
X157118249Y-118581832D01*
X157093930Y-118585683D01*
X156916066Y-118613854D01*
X156721377Y-118677113D01*
X156538987Y-118770047D01*
X156373387Y-118890360D01*
X156228629Y-119035118D01*
X156108316Y-119200718D01*
X156015382Y-119383108D01*
X155952123Y-119577797D01*
X155920101Y-119779980D01*
X155920101Y-119984683D01*
X155952123Y-120186866D01*
X156015382Y-120381555D01*
X156061526Y-120472116D01*
X156108186Y-120563691D01*
X156108316Y-120563945D01*
X156228629Y-120729545D01*
X156283782Y-120784698D01*
X156317267Y-120846021D01*
X156320101Y-120872379D01*
X156320101Y-123306569D01*
X156300416Y-123373608D01*
X156296419Y-123379454D01*
X156208316Y-123500718D01*
X156115382Y-123683108D01*
X156052123Y-123877797D01*
X156020101Y-124079980D01*
X156020101Y-124284683D01*
X156052123Y-124486866D01*
X156115382Y-124681555D01*
X156158896Y-124766954D01*
X156208186Y-124863691D01*
X156208316Y-124863945D01*
X156328629Y-125029545D01*
X156473387Y-125174303D01*
X156584600Y-125255102D01*
X156638991Y-125294619D01*
X156741066Y-125346629D01*
X156821377Y-125387550D01*
X156821379Y-125387550D01*
X156821382Y-125387552D01*
X156890224Y-125409920D01*
X157016066Y-125450809D01*
X157117158Y-125466820D01*
X157218249Y-125482832D01*
X157218250Y-125482832D01*
X157422952Y-125482832D01*
X157422953Y-125482832D01*
X157625135Y-125450809D01*
X157819820Y-125387552D01*
X158002211Y-125294619D01*
X158123478Y-125206513D01*
X158189284Y-125183034D01*
X158196363Y-125182832D01*
X160040426Y-125182832D01*
X160064616Y-125185214D01*
X160090050Y-125190274D01*
X160141457Y-125200500D01*
X160141459Y-125200500D01*
X160338540Y-125200500D01*
X164066203Y-125200500D01*
X164133242Y-125220185D01*
X164166517Y-125251609D01*
X164169055Y-125255102D01*
X164304898Y-125390945D01*
X164460319Y-125503865D01*
X164529595Y-125539163D01*
X164631495Y-125591084D01*
X164696890Y-125612332D01*
X164754566Y-125651769D01*
X164781765Y-125716127D01*
X164769851Y-125784974D01*
X164722607Y-125836450D01*
X164696893Y-125848194D01*
X164631677Y-125869384D01*
X164460578Y-125956564D01*
X164431352Y-125977798D01*
X164431351Y-125977798D01*
X165053554Y-126600000D01*
X165047339Y-126600000D01*
X164945606Y-126627259D01*
X164854394Y-126679920D01*
X164779920Y-126754394D01*
X164727259Y-126845606D01*
X164700000Y-126947339D01*
X164700000Y-126953553D01*
X164077798Y-126331351D01*
X164077798Y-126331352D01*
X164056564Y-126360578D01*
X163969383Y-126531678D01*
X163910040Y-126714315D01*
X163880000Y-126903984D01*
X163880000Y-127096015D01*
X163910040Y-127285684D01*
X163969383Y-127468321D01*
X164056561Y-127639415D01*
X164077798Y-127668646D01*
X164700000Y-127046445D01*
X164700000Y-127052661D01*
X164727259Y-127154394D01*
X164779920Y-127245606D01*
X164854394Y-127320080D01*
X164945606Y-127372741D01*
X165047339Y-127400000D01*
X165053554Y-127400000D01*
X164431351Y-128022200D01*
X164431352Y-128022201D01*
X164460577Y-128043434D01*
X164631678Y-128130616D01*
X164814315Y-128189959D01*
X165003985Y-128220000D01*
X165196015Y-128220000D01*
X165385684Y-128189959D01*
X165568321Y-128130616D01*
X165739419Y-128043436D01*
X165768646Y-128022201D01*
X165768646Y-128022200D01*
X165146447Y-127400000D01*
X165152661Y-127400000D01*
X165254394Y-127372741D01*
X165345606Y-127320080D01*
X165420080Y-127245606D01*
X165472741Y-127154394D01*
X165500000Y-127052661D01*
X165500000Y-127046446D01*
X166122200Y-127668646D01*
X166122201Y-127668646D01*
X166143436Y-127639419D01*
X166230616Y-127468321D01*
X166289959Y-127285684D01*
X166320000Y-127096015D01*
X166320000Y-126903984D01*
X166289959Y-126714315D01*
X166230616Y-126531678D01*
X166143434Y-126360577D01*
X166122201Y-126331352D01*
X166122200Y-126331351D01*
X165500000Y-126953552D01*
X165500000Y-126947339D01*
X165472741Y-126845606D01*
X165420080Y-126754394D01*
X165345606Y-126679920D01*
X165254394Y-126627259D01*
X165152661Y-126600000D01*
X165146447Y-126600000D01*
X165768646Y-125977798D01*
X165739415Y-125956561D01*
X165568321Y-125869383D01*
X165503107Y-125848194D01*
X165445432Y-125808756D01*
X165418234Y-125744397D01*
X165430149Y-125675551D01*
X165477394Y-125624075D01*
X165503109Y-125612332D01*
X165568504Y-125591084D01*
X165568506Y-125591082D01*
X165568509Y-125591082D01*
X165739681Y-125503865D01*
X165895102Y-125390945D01*
X166030945Y-125255102D01*
X166033482Y-125251609D01*
X166088814Y-125208947D01*
X166133797Y-125200500D01*
X175234218Y-125200500D01*
X175301257Y-125220185D01*
X175321899Y-125236819D01*
X176043078Y-125957998D01*
X176073327Y-126007359D01*
X176087452Y-126050832D01*
X176135430Y-126144993D01*
X176173240Y-126219199D01*
X176284310Y-126372073D01*
X176417927Y-126505690D01*
X176570801Y-126616760D01*
X176602166Y-126632741D01*
X176739163Y-126702545D01*
X176739165Y-126702545D01*
X176739168Y-126702547D01*
X176833385Y-126733160D01*
X176918881Y-126760940D01*
X177105514Y-126790500D01*
X177105519Y-126790500D01*
X177294486Y-126790500D01*
X177481118Y-126760940D01*
X177500310Y-126754704D01*
X177660832Y-126702547D01*
X177829199Y-126616760D01*
X177852267Y-126600000D01*
X177867158Y-126589182D01*
X177932964Y-126565702D01*
X177940043Y-126565500D01*
X184709581Y-126565500D01*
X184776620Y-126585185D01*
X184807956Y-126614013D01*
X184826220Y-126637815D01*
X184915906Y-126754697D01*
X184915912Y-126754704D01*
X185082795Y-126921587D01*
X185082801Y-126921592D01*
X185270050Y-127065273D01*
X185401418Y-127141118D01*
X185474443Y-127183280D01*
X185474448Y-127183282D01*
X185474451Y-127183284D01*
X185692507Y-127273606D01*
X185920486Y-127334693D01*
X186154489Y-127365500D01*
X186154496Y-127365500D01*
X186390504Y-127365500D01*
X186390511Y-127365500D01*
X186624514Y-127334693D01*
X186852493Y-127273606D01*
X187070549Y-127183284D01*
X187274950Y-127065273D01*
X187462199Y-126921592D01*
X187629092Y-126754699D01*
X187772773Y-126567450D01*
X187890784Y-126363049D01*
X187981106Y-126144993D01*
X188042193Y-125917014D01*
X188073000Y-125683011D01*
X188073000Y-125446989D01*
X188042193Y-125212986D01*
X187981106Y-124985007D01*
X187890784Y-124766951D01*
X187890782Y-124766948D01*
X187890780Y-124766943D01*
X187848618Y-124693918D01*
X187772773Y-124562550D01*
X187629092Y-124375301D01*
X187629087Y-124375295D01*
X187462204Y-124208412D01*
X187462197Y-124208406D01*
X187274954Y-124064730D01*
X187274953Y-124064729D01*
X187274950Y-124064727D01*
X187193457Y-124017677D01*
X187070556Y-123946719D01*
X187070545Y-123946714D01*
X186852493Y-123856394D01*
X186624510Y-123795306D01*
X186390520Y-123764501D01*
X186390517Y-123764500D01*
X186390511Y-123764500D01*
X186154489Y-123764500D01*
X186154483Y-123764500D01*
X186154479Y-123764501D01*
X185920489Y-123795306D01*
X185692506Y-123856394D01*
X185474454Y-123946714D01*
X185474443Y-123946719D01*
X185270045Y-124064730D01*
X185082802Y-124208406D01*
X185082795Y-124208412D01*
X184915912Y-124375295D01*
X184915906Y-124375302D01*
X184830391Y-124486749D01*
X184818373Y-124502412D01*
X184807957Y-124515986D01*
X184751529Y-124557189D01*
X184709581Y-124564500D01*
X178324500Y-124564500D01*
X178257461Y-124544815D01*
X178211706Y-124492011D01*
X178200500Y-124440500D01*
X178200500Y-123224000D01*
X178220185Y-123156961D01*
X178272989Y-123111206D01*
X178324500Y-123100000D01*
X192855500Y-123100000D01*
X192922539Y-123119685D01*
X192968294Y-123172489D01*
X192979500Y-123224000D01*
X192979500Y-146175500D01*
X192959815Y-146242539D01*
X192907011Y-146288294D01*
X192855500Y-146299500D01*
X99104500Y-146299500D01*
X99037461Y-146279815D01*
X98991706Y-146227011D01*
X98980500Y-146175500D01*
X98980500Y-136602155D01*
X103550000Y-136602155D01*
X103550000Y-137250000D01*
X104466988Y-137250000D01*
X104434075Y-137307007D01*
X104400000Y-137434174D01*
X104400000Y-137565826D01*
X104434075Y-137692993D01*
X104466988Y-137750000D01*
X103550000Y-137750000D01*
X103550000Y-138397844D01*
X103556401Y-138457372D01*
X103556403Y-138457379D01*
X103606645Y-138592086D01*
X103606649Y-138592093D01*
X103692809Y-138707187D01*
X103692812Y-138707190D01*
X103807906Y-138793350D01*
X103807913Y-138793354D01*
X103942620Y-138843596D01*
X103942627Y-138843598D01*
X104002155Y-138849999D01*
X104002172Y-138850000D01*
X104650000Y-138850000D01*
X104650000Y-137933012D01*
X104707007Y-137965925D01*
X104834174Y-138000000D01*
X104965826Y-138000000D01*
X105092993Y-137965925D01*
X105150000Y-137933012D01*
X105150000Y-138850000D01*
X105797828Y-138850000D01*
X105797844Y-138849999D01*
X105857372Y-138843598D01*
X105857379Y-138843596D01*
X105992086Y-138793354D01*
X105992093Y-138793350D01*
X106107187Y-138707190D01*
X106107190Y-138707187D01*
X106193350Y-138592093D01*
X106193354Y-138592086D01*
X106243596Y-138457379D01*
X106243598Y-138457372D01*
X106249999Y-138397844D01*
X106250000Y-138397827D01*
X106250000Y-137750000D01*
X105333012Y-137750000D01*
X105365925Y-137692993D01*
X105400000Y-137565826D01*
X105400000Y-137434174D01*
X105365925Y-137307007D01*
X105333012Y-137250000D01*
X106250000Y-137250000D01*
X106250000Y-136602172D01*
X106249999Y-136602155D01*
X106243598Y-136542627D01*
X106243596Y-136542620D01*
X106193354Y-136407913D01*
X106193350Y-136407906D01*
X106107190Y-136292812D01*
X106107187Y-136292809D01*
X105992093Y-136206649D01*
X105992086Y-136206645D01*
X105857379Y-136156403D01*
X105857372Y-136156401D01*
X105797844Y-136150000D01*
X105150000Y-136150000D01*
X105150000Y-137066988D01*
X105092993Y-137034075D01*
X104965826Y-137000000D01*
X104834174Y-137000000D01*
X104707007Y-137034075D01*
X104650000Y-137066988D01*
X104650000Y-136150000D01*
X104002155Y-136150000D01*
X103942627Y-136156401D01*
X103942620Y-136156403D01*
X103807913Y-136206645D01*
X103807906Y-136206649D01*
X103692812Y-136292809D01*
X103692809Y-136292812D01*
X103606649Y-136407906D01*
X103606645Y-136407913D01*
X103556403Y-136542620D01*
X103556401Y-136542627D01*
X103550000Y-136602155D01*
X98980500Y-136602155D01*
X98980500Y-69255013D01*
X103607500Y-69255013D01*
X103607500Y-70105000D01*
X104807499Y-70105000D01*
X104782479Y-70165402D01*
X104757500Y-70290981D01*
X104757500Y-70419019D01*
X104782479Y-70544598D01*
X104807499Y-70605000D01*
X103607501Y-70605000D01*
X103607501Y-71454986D01*
X103617994Y-71557697D01*
X103673141Y-71724119D01*
X103673143Y-71724124D01*
X103765184Y-71873345D01*
X103889154Y-71997315D01*
X104038375Y-72089356D01*
X104038380Y-72089358D01*
X104204802Y-72144505D01*
X104204809Y-72144506D01*
X104307519Y-72154999D01*
X105157499Y-72154999D01*
X105157500Y-72154998D01*
X105157500Y-70955001D01*
X105217902Y-70980021D01*
X105343481Y-71005000D01*
X105471519Y-71005000D01*
X105597098Y-70980021D01*
X105657500Y-70955001D01*
X105657500Y-72154999D01*
X106507472Y-72154999D01*
X106507486Y-72154998D01*
X106610197Y-72144505D01*
X106776619Y-72089358D01*
X106776624Y-72089356D01*
X106925845Y-71997315D01*
X107049815Y-71873345D01*
X107141856Y-71724124D01*
X107141858Y-71724119D01*
X107197005Y-71557697D01*
X107197006Y-71557690D01*
X107207499Y-71454986D01*
X107207500Y-71454973D01*
X107207500Y-70605000D01*
X106007501Y-70605000D01*
X106032521Y-70544598D01*
X106057500Y-70419019D01*
X106057500Y-70290981D01*
X106032521Y-70165402D01*
X106007501Y-70105000D01*
X107207499Y-70105000D01*
X107207499Y-69255028D01*
X107207498Y-69255013D01*
X107197005Y-69152302D01*
X107141858Y-68985880D01*
X107141856Y-68985875D01*
X107049815Y-68836654D01*
X106925845Y-68712684D01*
X106776624Y-68620643D01*
X106776619Y-68620641D01*
X106610197Y-68565494D01*
X106610190Y-68565493D01*
X106507486Y-68555000D01*
X105657500Y-68555000D01*
X105657500Y-69754998D01*
X105597098Y-69729979D01*
X105471519Y-69705000D01*
X105343481Y-69705000D01*
X105217902Y-69729979D01*
X105157500Y-69754998D01*
X105157500Y-68555000D01*
X104307528Y-68555000D01*
X104307512Y-68555001D01*
X104204802Y-68565494D01*
X104038380Y-68620641D01*
X104038375Y-68620643D01*
X103889154Y-68712684D01*
X103765184Y-68836654D01*
X103673143Y-68985875D01*
X103673141Y-68985880D01*
X103617994Y-69152302D01*
X103617993Y-69152309D01*
X103607500Y-69255013D01*
X98980500Y-69255013D01*
X98980500Y-58424500D01*
X99000185Y-58357461D01*
X99052989Y-58311706D01*
X99104500Y-58300500D01*
X192855500Y-58300500D01*
X192922539Y-58320185D01*
G37*
%TD.AperFunction*%
%TA.AperFunction,Conductor*%
G36*
X126690563Y-120935422D02*
G01*
X126717822Y-121037155D01*
X126770483Y-121128367D01*
X126844957Y-121202841D01*
X126936169Y-121255502D01*
X127037902Y-121282761D01*
X127044116Y-121282761D01*
X126400436Y-121926438D01*
X126400436Y-121926439D01*
X126435421Y-121951857D01*
X126610727Y-122041179D01*
X126797857Y-122101982D01*
X126992181Y-122132761D01*
X127188945Y-122132761D01*
X127383268Y-122101982D01*
X127570398Y-122041179D01*
X127745714Y-121951852D01*
X127749862Y-121949311D01*
X127751206Y-121951505D01*
X127806762Y-121931221D01*
X127874930Y-121946544D01*
X127923993Y-121996290D01*
X127938373Y-122064663D01*
X127913504Y-122129958D01*
X127902434Y-122142644D01*
X126621899Y-123423181D01*
X126560576Y-123456666D01*
X126534218Y-123459500D01*
X126195783Y-123459500D01*
X126128744Y-123439815D01*
X126108102Y-123423181D01*
X125636819Y-122951898D01*
X125603334Y-122890575D01*
X125600500Y-122864217D01*
X125600500Y-121605101D01*
X125603676Y-121591950D01*
X125602694Y-121581880D01*
X125611786Y-121558372D01*
X125614170Y-121548504D01*
X125617998Y-121541040D01*
X125620087Y-121538166D01*
X125709447Y-121362786D01*
X125709459Y-121362747D01*
X125710513Y-121360694D01*
X125734533Y-121335398D01*
X125758332Y-121310201D01*
X125758502Y-121310158D01*
X125758626Y-121310029D01*
X125792557Y-121301724D01*
X125826153Y-121293405D01*
X125826320Y-121293462D01*
X125826493Y-121293420D01*
X125859463Y-121304756D01*
X125892288Y-121315942D01*
X125892411Y-121316085D01*
X125892566Y-121316138D01*
X125893677Y-121317545D01*
X125931328Y-121360996D01*
X126021468Y-121537906D01*
X126046882Y-121572886D01*
X126046883Y-121572886D01*
X126690563Y-120929206D01*
X126690563Y-120935422D01*
G37*
%TD.AperFunction*%
%TD*%
M02*
