M48
; DRILL file {KiCad 9.0.0} date 2025-04-30T12:29:18-0300
; FORMAT={-:-/ absolute / metric / decimal}
; #@! TF.CreationDate,2025-04-30T12:29:18-03:00
; #@! TF.GenerationSoftware,Kicad,Pcbnew,9.0.0
; #@! TF.FileFunction,Plated,1,2,PTH
FMAT,2
METRIC
; #@! TA.AperFunction,Plated,PTH,ComponentDrill
T1C0.700
; #@! TA.AperFunction,Plated,PTH,ComponentDrill
T2C0.750
; #@! TA.AperFunction,Plated,PTH,ComponentDrill
T3C0.800
; #@! TA.AperFunction,Plated,PTH,ComponentDrill
T4C1.000
; #@! TA.AperFunction,Plated,PTH,ComponentDrill
T5C1.100
; #@! TA.AperFunction,Plated,PTH,ComponentDrill
T6C1.200
; #@! TA.AperFunction,Plated,PTH,ComponentDrill
T7C1.300
%
G90
G05
T1
X203.408Y-66.384
X203.408Y-71.464
X203.46Y-61.317
X208.54Y-61.317
X209.08Y-75.44
X209.08Y-80.52
X224.144Y-45.042
X224.144Y-50.122
X233.607Y-70.274
X233.607Y-75.354
X233.68Y-78.74
X233.68Y-83.82
X251.736Y-65.218
X251.736Y-70.298
X255.755Y-65.218
X255.755Y-70.298
T2
X199.746Y-75.725
X201.976Y-75.725
X204.246Y-75.725
T3
X228.94Y-66.637
X233.94Y-66.637
T4
X197.786Y-71.47
X208.54Y-65.98
X208.84Y-71.605
X209.08Y-84.44
X209.08Y-86.98
X209.08Y-89.52
X211.08Y-65.98
X211.38Y-71.605
X213.62Y-65.98
X213.92Y-71.605
X216.16Y-84.44
X216.16Y-86.98
X216.16Y-89.52
X219.0Y-60.36
X219.0Y-67.98
X219.049Y-76.18
X221.54Y-60.36
X221.54Y-67.98
X221.589Y-76.18
X221.763Y-84.392
X221.763Y-86.932
X224.08Y-60.36
X224.08Y-67.98
X224.129Y-76.18
X226.424Y-90.673
X228.86Y-60.326
X229.08Y-72.44
X229.08Y-74.98
X231.4Y-60.326
X233.94Y-60.326
X253.215Y-60.597
X255.755Y-60.597
T5
X240.0Y-47.069
X242.54Y-47.069
X245.08Y-47.069
T6
X242.807Y-50.644
X242.807Y-91.284
T7
X211.0Y-50.2
X216.08Y-50.2
X254.0Y-76.2
X254.0Y-81.28
M30
