M48
; DRILL file {KiCad 9.0.0} date 2025-05-27T13:35:17-0300
; FORMAT={-:-/ absolute / metric / decimal}
; #@! TF.CreationDate,2025-05-27T13:35:17-03:00
; #@! TF.GenerationSoftware,Kicad,Pcbnew,9.0.0
; #@! TF.FileFunction,Plated,1,2,PTH
FMAT,2
METRIC
; #@! TA.AperFunction,Plated,PTH,ComponentDrill
T1C0.700
; #@! TA.AperFunction,Plated,PTH,ComponentDrill
T2C0.800
; #@! TA.AperFunction,Plated,PTH,ComponentDrill
T3C1.000
; #@! TA.AperFunction,Plated,PTH,ComponentDrill
T4C1.300
%
G90
G05
T1
X124.0Y-82.46
X124.0Y-87.54
X140.0Y-105.46
X140.0Y-110.54
X145.0Y-76.2
X145.0Y-81.28
X150.0Y-107.46
X150.0Y-112.54
X156.0Y-88.46
X156.0Y-93.54
X160.02Y-78.74
X165.1Y-78.74
T2
X130.38Y-78.3
X130.38Y-80.84
X130.38Y-83.38
X130.38Y-85.92
X130.38Y-88.46
X130.38Y-91.0
X130.38Y-93.54
X138.0Y-78.3
X138.0Y-80.84
X138.0Y-83.38
X138.0Y-85.92
X138.0Y-88.46
X138.0Y-91.0
X138.0Y-93.54
X142.0Y-91.0
X142.0Y-93.5
X149.0Y-89.92
X149.0Y-92.46
X149.0Y-95.0
X152.154Y-100.362
X152.154Y-102.862
X161.195Y-89.0
X161.195Y-91.54
X161.195Y-94.08
X161.195Y-96.62
X162.074Y-82.621
X164.574Y-82.621
X168.815Y-89.0
X168.815Y-91.54
X168.815Y-94.08
X168.815Y-96.62
T3
X140.0Y-100.0
X150.0Y-80.0
X160.0Y-74.0
X173.0Y-107.0
T4
X125.92Y-114.0
X131.0Y-114.0
X156.455Y-108.172
X161.535Y-108.172
X169.92Y-77.828
X175.0Y-77.828
M30
