M48
; DRILL file {KiCad 9.0.1} date 2025-06-18T20:45:10-0300
; FORMAT={-:-/ absolute / inch / decimal}
; #@! TF.CreationDate,2025-06-18T20:45:10-03:00
; #@! TF.GenerationSoftware,Kicad,Pcbnew,9.0.1
; #@! TF.FileFunction,Plated,1,2,PTH
FMAT,2
INCH
; #@! TA.AperFunction,Plated,PTH,ComponentDrill
T1C0.0236
; #@! TA.AperFunction,Plated,PTH,ComponentDrill
T2C0.0276
; #@! TA.AperFunction,Plated,PTH,ComponentDrill
T3C0.0315
; #@! TA.AperFunction,Plated,PTH,ComponentDrill
T4C0.0394
; #@! TA.AperFunction,Plated,PTH,ComponentDrill
T5C0.0433
; #@! TA.AperFunction,Plated,PTH,ComponentDrill
T6C0.0512
%
G90
G05
T1
X5.7126Y-2.617
X5.7126Y-2.6958
T2
X4.3106Y-4.374
X4.315Y-3.9197
X4.315Y-4.1197
X4.5079Y-3.3583
X4.5079Y-3.5583
X4.5118Y-3.7165
X4.6055Y-5.1024
X4.6106Y-4.374
X4.8118Y-3.7165
X4.9055Y-5.1024
X4.9614Y-4.0236
X5.122Y-2.9984
X5.122Y-3.1984
X5.1614Y-4.0236
X5.6307Y-4.9606
X5.6559Y-4.6417
X5.6575Y-3.4866
X5.6575Y-3.6866
X5.6583Y-4.437
X5.8268Y-3.4839
X5.8268Y-3.7839
X5.8307Y-4.9606
X5.8559Y-4.6417
X5.8583Y-4.437
X6.1031Y-5.0866
X6.3031Y-5.0866
X6.4764Y-5.2465
X6.4764Y-5.4465
X6.6535Y-5.2449
X6.6535Y-5.4449
X6.9764Y-4.9445
X6.9764Y-5.2445
T3
X4.1378Y-3.9094
X4.1378Y-4.1063
X4.4882Y-3.0
X4.4882Y-3.1969
X4.5156Y-3.9209
X4.5156Y-4.0209
X4.5156Y-4.1209
X4.5156Y-4.2209
X4.8156Y-3.9209
X4.8156Y-4.0209
X4.8156Y-4.1209
X4.8156Y-4.2209
X4.8701Y-3.3583
X4.8701Y-3.5551
X4.9606Y-4.1535
X4.9606Y-4.3504
X5.102Y-4.9955
X5.102Y-5.2955
X5.1646Y-3.4835
X5.1646Y-3.5835
X5.1646Y-3.6835
X5.1646Y-3.7835
X5.185Y-4.1496
X5.1992Y-5.4976
X5.202Y-4.9955
X5.202Y-5.2955
X5.2085Y-4.3382
X5.2085Y-4.4382
X5.2085Y-4.5382
X5.2085Y-4.6382
X5.2992Y-5.4976
X5.302Y-4.9955
X5.302Y-5.2955
X5.3189Y-3.2047
X5.3819Y-4.1496
X5.3992Y-5.4976
X5.402Y-4.9955
X5.402Y-5.2955
X5.4189Y-3.2047
X5.4646Y-3.4835
X5.4646Y-3.5835
X5.4646Y-3.6835
X5.4646Y-3.7835
X5.5085Y-4.3382
X5.5085Y-4.4382
X5.5085Y-4.5382
X5.5085Y-4.6382
X5.5189Y-3.2047
X5.6299Y-5.0945
X5.6299Y-5.2913
X5.8307Y-5.0945
X5.8307Y-5.2913
X5.9882Y-5.0866
X5.9882Y-5.2835
X6.1079Y-4.7205
X6.1118Y-4.8898
X6.3047Y-4.7205
X6.3087Y-4.8898
X6.5063Y-4.9685
X6.6063Y-4.9685
X6.7063Y-4.9685
X6.9764Y-3.2913
X6.9764Y-4.7087
T4
X4.1299Y-5.4134
X4.2126Y-3.6614
X4.6102Y-4.5787
X4.9173Y-4.874
X4.9449Y-4.5236
X5.8268Y-5.5591
X5.9764Y-3.0354
X6.1024Y-2.4987
X6.1024Y-2.6956
X6.2598Y-4.1024
X6.4882Y-4.3819
X6.9685Y-5.4921
T5
X4.7874Y-2.9024
X4.7874Y-3.0024
X4.7874Y-3.1024
X5.5244Y-4.1457
X5.9244Y-4.1457
X6.2803Y-3.2913
X6.3803Y-3.2913
X6.4803Y-3.2913
X6.4843Y-3.8079
X6.4843Y-3.9079
X6.4843Y-4.0079
T6
X4.1499Y-2.7699
X4.1499Y-2.9699
X7.3336Y-4.9435
X7.3336Y-5.1435
M30
