M48
; DRILL file {KiCad 9.0.0} date 2025-06-18T22:55:10-0300
; FORMAT={-:-/ absolute / metric / decimal}
; #@! TF.CreationDate,2025-06-18T22:55:10-03:00
; #@! TF.GenerationSoftware,Kicad,Pcbnew,9.0.0
; #@! TF.FileFunction,Plated,1,2,PTH
FMAT,2
METRIC
; #@! TA.AperFunction,Plated,PTH,ComponentDrill
T1C0.600
; #@! TA.AperFunction,Plated,PTH,ComponentDrill
T2C0.700
; #@! TA.AperFunction,Plated,PTH,ComponentDrill
T3C0.800
; #@! TA.AperFunction,Plated,PTH,ComponentDrill
T4C1.000
; #@! TA.AperFunction,Plated,PTH,ComponentDrill
T5C1.100
; #@! TA.AperFunction,Plated,PTH,ComponentDrill
T6C1.300
%
G90
G05
T1
X139.7Y-68.473
X141.7Y-68.473
T2
X109.49Y-111.1
X109.6Y-99.56
X109.6Y-104.64
X114.5Y-85.3
X114.5Y-90.38
X114.6Y-94.4
X116.98Y-129.6
X117.11Y-111.1
X122.22Y-94.4
X124.6Y-129.6
X126.02Y-102.2
X130.1Y-76.16
X130.1Y-81.24
X131.1Y-102.2
X143.02Y-126.0
X143.66Y-117.9
X143.7Y-88.56
X143.7Y-93.64
X143.72Y-112.7
X148.0Y-88.49
X148.0Y-96.11
X148.1Y-126.0
X148.74Y-117.9
X148.8Y-112.7
X155.02Y-129.2
X160.1Y-129.2
X160.239Y-133.54
X160.239Y-138.62
X169.0Y-133.22
X169.0Y-138.3
X177.2Y-125.59
X177.2Y-133.21
T3
X105.1Y-99.3
X105.1Y-104.3
X114.695Y-99.59
X114.695Y-102.13
X114.695Y-104.67
X114.695Y-107.21
X120.99Y-76.04
X122.315Y-99.59
X122.315Y-102.13
X122.315Y-104.67
X122.315Y-107.21
X123.7Y-85.3
X123.7Y-90.3
X124.551Y-120.883
X125.99Y-76.04
X126.0Y-105.5
X126.0Y-110.5
X127.091Y-120.883
X129.631Y-120.883
X130.805Y-125.73
X130.805Y-128.27
X130.805Y-130.81
X130.805Y-133.35
X131.18Y-88.48
X131.18Y-91.02
X131.18Y-93.56
X131.18Y-96.1
X131.7Y-105.4
X132.295Y-110.19
X132.295Y-112.73
X132.295Y-115.27
X132.295Y-117.81
X135.1Y-81.4
X136.7Y-105.4
X137.64Y-81.4
X138.425Y-125.73
X138.425Y-128.27
X138.425Y-130.81
X138.425Y-133.35
X138.8Y-88.48
X138.8Y-91.02
X138.8Y-93.56
X138.8Y-96.1
X139.915Y-110.19
X139.915Y-112.73
X139.915Y-115.27
X139.915Y-117.81
X140.18Y-81.4
X143.0Y-129.4
X143.0Y-134.4
X148.1Y-129.4
X148.1Y-134.4
X152.1Y-129.2
X152.1Y-134.2
X152.221Y-119.882
X152.321Y-124.182
X157.221Y-119.882
X157.321Y-124.182
X165.1Y-121.92
X165.1Y-124.46
X165.1Y-127.0
X177.2Y-83.6
X177.2Y-119.6
T4
X104.9Y-137.5
X107.0Y-93.0
X117.1Y-116.3
X125.6Y-114.9
X137.126Y-137.549
X147.32Y-139.7
X152.804Y-77.708
X155.0Y-68.468
X160.0Y-68.468
X163.391Y-91.229
X164.8Y-111.3
X177.0Y-139.5
T5
X119.94Y-69.68
X122.48Y-69.68
X125.02Y-69.68
X140.32Y-105.3
X150.48Y-105.3
X159.52Y-83.6
X162.06Y-83.6
X164.6Y-83.6
X164.7Y-96.72
X164.7Y-99.26
X164.7Y-101.8
T6
X105.407Y-70.355
X105.407Y-75.435
X186.272Y-125.565
X186.272Y-130.645
M30
