%TF.GenerationSoftware,KiCad,Pcbnew,9.0.0*%
%TF.CreationDate,2025-06-18T22:57:56-03:00*%
%TF.ProjectId,buck_realimentada2,6275636b-5f72-4656-916c-696d656e7461,rev?*%
%TF.SameCoordinates,Original*%
%TF.FileFunction,Copper,L1,Top*%
%TF.FilePolarity,Positive*%
%FSLAX46Y46*%
G04 Gerber Fmt 4.6, Leading zero omitted, Abs format (unit mm)*
G04 Created by KiCad (PCBNEW 9.0.0) date 2025-06-18 22:57:56*
%MOMM*%
%LPD*%
G01*
G04 APERTURE LIST*
G04 Aperture macros list*
%AMRoundRect*
0 Rectangle with rounded corners*
0 $1 Rounding radius*
0 $2 $3 $4 $5 $6 $7 $8 $9 X,Y pos of 4 corners*
0 Add a 4 corners polygon primitive as box body*
4,1,4,$2,$3,$4,$5,$6,$7,$8,$9,$2,$3,0*
0 Add four circle primitives for the rounded corners*
1,1,$1+$1,$2,$3*
1,1,$1+$1,$4,$5*
1,1,$1+$1,$6,$7*
1,1,$1+$1,$8,$9*
0 Add four rect primitives between the rounded corners*
20,1,$1+$1,$2,$3,$4,$5,0*
20,1,$1+$1,$4,$5,$6,$7,0*
20,1,$1+$1,$6,$7,$8,$9,0*
20,1,$1+$1,$8,$9,$2,$3,0*%
G04 Aperture macros list end*
%TA.AperFunction,ComponentPad*%
%ADD10R,1.905000X2.000000*%
%TD*%
%TA.AperFunction,ComponentPad*%
%ADD11O,1.905000X2.000000*%
%TD*%
%TA.AperFunction,ComponentPad*%
%ADD12R,2.000000X2.000000*%
%TD*%
%TA.AperFunction,ComponentPad*%
%ADD13C,2.000000*%
%TD*%
%TA.AperFunction,ComponentPad*%
%ADD14C,1.600000*%
%TD*%
%TA.AperFunction,ComponentPad*%
%ADD15C,1.400000*%
%TD*%
%TA.AperFunction,ComponentPad*%
%ADD16O,1.400000X1.400000*%
%TD*%
%TA.AperFunction,ComponentPad*%
%ADD17R,1.700000X1.700000*%
%TD*%
%TA.AperFunction,ComponentPad*%
%ADD18R,1.500000X1.500000*%
%TD*%
%TA.AperFunction,ComponentPad*%
%ADD19C,1.500000*%
%TD*%
%TA.AperFunction,ComponentPad*%
%ADD20RoundRect,0.250000X-1.050000X1.050000X-1.050000X-1.050000X1.050000X-1.050000X1.050000X1.050000X0*%
%TD*%
%TA.AperFunction,ComponentPad*%
%ADD21C,2.600000*%
%TD*%
%TA.AperFunction,ComponentPad*%
%ADD22R,2.200000X2.200000*%
%TD*%
%TA.AperFunction,ComponentPad*%
%ADD23O,2.200000X2.200000*%
%TD*%
%TA.AperFunction,ComponentPad*%
%ADD24R,1.200000X1.200000*%
%TD*%
%TA.AperFunction,ComponentPad*%
%ADD25C,1.200000*%
%TD*%
%TA.AperFunction,ComponentPad*%
%ADD26C,1.440000*%
%TD*%
%TA.AperFunction,ComponentPad*%
%ADD27RoundRect,0.250000X1.050000X-1.050000X1.050000X1.050000X-1.050000X1.050000X-1.050000X-1.050000X0*%
%TD*%
%TA.AperFunction,ComponentPad*%
%ADD28C,2.540000*%
%TD*%
%TA.AperFunction,ComponentPad*%
%ADD29RoundRect,0.250000X0.550000X0.550000X-0.550000X0.550000X-0.550000X-0.550000X0.550000X-0.550000X0*%
%TD*%
%TA.AperFunction,ComponentPad*%
%ADD30RoundRect,0.250000X-0.550000X-0.550000X0.550000X-0.550000X0.550000X0.550000X-0.550000X0.550000X0*%
%TD*%
%TA.AperFunction,ComponentPad*%
%ADD31R,2.000000X1.905000*%
%TD*%
%TA.AperFunction,ComponentPad*%
%ADD32O,2.000000X1.905000*%
%TD*%
G04 APERTURE END LIST*
D10*
%TO.P,M4,1,G*%
%TO.N,Vg1*%
X159520000Y-83600000D03*
D11*
%TO.P,M4,2,D*%
%TO.N,Vin*%
X162060000Y-83600000D03*
%TO.P,M4,3,S*%
%TO.N,Vd*%
X164600000Y-83600000D03*
%TD*%
D12*
%TO.P,C2,1*%
%TO.N,Vin*%
X155000000Y-68467677D03*
D13*
%TO.P,C2,2*%
%TO.N,GND*%
X160000000Y-68467677D03*
%TD*%
D14*
%TO.P,C12,1*%
%TO.N,pwm*%
X126000000Y-105500000D03*
%TO.P,C12,2*%
%TO.N,GND*%
X126000000Y-110500000D03*
%TD*%
%TO.P,C1,1*%
%TO.N,Vout*%
X157220601Y-119882332D03*
%TO.P,C1,2*%
%TO.N,GND*%
X152220601Y-119882332D03*
%TD*%
D15*
%TO.P,R10,1*%
%TO.N,GND*%
X169000000Y-138300000D03*
D16*
%TO.P,R10,2*%
%TO.N,sampling*%
X169000000Y-133220000D03*
%TD*%
D10*
%TO.P,U4,1,ADJ*%
%TO.N,Net-(U4-ADJ)*%
X119940000Y-69680000D03*
D11*
%TO.P,U4,2,VO*%
%TO.N,VCCPWM*%
X122480000Y-69680000D03*
%TO.P,U4,3,VI*%
%TO.N,Vin*%
X125020000Y-69680000D03*
%TD*%
D17*
%TO.P,J13,1,Pin_1*%
%TO.N,Vg2*%
X164800000Y-111300000D03*
%TD*%
D14*
%TO.P,C8,1*%
%TO.N,cuadrada*%
X105100000Y-99300000D03*
%TO.P,C8,2*%
%TO.N,GND*%
X105100000Y-104300000D03*
%TD*%
D17*
%TO.P,J10,1,Pin_1*%
%TO.N,VCCPWM*%
X152804104Y-77707727D03*
%TD*%
D18*
%TO.P,U5,1,REF*%
%TO.N,Vref*%
X129630563Y-120882761D03*
D19*
%TO.P,U5,2,A*%
%TO.N,GND*%
X127090563Y-120882761D03*
%TO.P,U5,3,K*%
%TO.N,Vref*%
X124550563Y-120882761D03*
%TD*%
D14*
%TO.P,C7,1*%
%TO.N,Net-(U7A-+)*%
X152100000Y-129200000D03*
%TO.P,C7,2*%
%TO.N,Net-(C7-Pad2)*%
X152100000Y-134200000D03*
%TD*%
D20*
%TO.P,J1,1,Pin_1*%
%TO.N,GND*%
X105407500Y-70355000D03*
D21*
%TO.P,J1,2,Pin_2*%
%TO.N,Vin*%
X105407500Y-75435000D03*
%TD*%
D17*
%TO.P,J12,1,Pin_1*%
%TO.N,Vg1*%
X163390698Y-91229148D03*
%TD*%
D15*
%TO.P,R12,1*%
%TO.N,pwm*%
X126020000Y-102200000D03*
D16*
%TO.P,R12,2*%
%TO.N,VCCPWM*%
X131100000Y-102200000D03*
%TD*%
D14*
%TO.P,C13,1*%
%TO.N,VCCPWM*%
X125990000Y-76040000D03*
%TO.P,C13,2*%
%TO.N,GND*%
X120990000Y-76040000D03*
%TD*%
D22*
%TO.P,D1,1,K*%
%TO.N,Net-(D1-K)*%
X140320000Y-105300000D03*
D23*
%TO.P,D1,2,A*%
%TO.N,VCCPWM*%
X150480000Y-105300000D03*
%TD*%
D24*
%TO.P,C5,1*%
%TO.N,Vin*%
X139700000Y-68472599D03*
D25*
%TO.P,C5,2*%
%TO.N,GND*%
X141700000Y-68472599D03*
%TD*%
D26*
%TO.P,R13,1*%
%TO.N,GND*%
X140180000Y-81400000D03*
%TO.P,R13,2*%
%TO.N,Net-(U4-ADJ)*%
X137640000Y-81400000D03*
%TO.P,R13,3*%
%TO.N,N/C*%
X135100000Y-81400000D03*
%TD*%
D14*
%TO.P,C10,1*%
%TO.N,error*%
X148100000Y-134400000D03*
%TO.P,C10,2*%
%TO.N,Net-(U7A-+)*%
X148100000Y-129400000D03*
%TD*%
D15*
%TO.P,R8,1*%
%TO.N,Net-(U2A-+)*%
X109490000Y-111100000D03*
D16*
%TO.P,R8,2*%
%TO.N,Triangular*%
X117110000Y-111100000D03*
%TD*%
D15*
%TO.P,R2,1*%
%TO.N,HO*%
X143720000Y-112700000D03*
D16*
%TO.P,R2,2*%
%TO.N,Vg1*%
X148800000Y-112700000D03*
%TD*%
D17*
%TO.P,J11,1,Pin_1*%
%TO.N,Vref*%
X137126038Y-137549204D03*
%TD*%
D15*
%TO.P,R1,1*%
%TO.N,Net-(U6A--)*%
X143700000Y-88560000D03*
D16*
%TO.P,R1,2*%
%TO.N,GND*%
X143700000Y-93640000D03*
%TD*%
D14*
%TO.P,C6,1*%
%TO.N,Net-(U6B-+)*%
X123700000Y-85300000D03*
%TO.P,C6,2*%
%TO.N,Triangular*%
X123700000Y-90300000D03*
%TD*%
D27*
%TO.P,J2,1,Pin_1*%
%TO.N,GND*%
X186272500Y-130645000D03*
D21*
%TO.P,J2,2,Pin_2*%
%TO.N,Vout*%
X186272500Y-125565000D03*
%TD*%
D15*
%TO.P,R3,1*%
%TO.N,LO*%
X143660000Y-117900000D03*
D16*
%TO.P,R3,2*%
%TO.N,Vg2*%
X148740000Y-117900000D03*
%TD*%
D15*
%TO.P,R4,1*%
%TO.N,cuadrada*%
X114500000Y-90380000D03*
D16*
%TO.P,R4,2*%
%TO.N,Net-(U6B-+)*%
X114500000Y-85300000D03*
%TD*%
D14*
%TO.P,C4,1*%
%TO.N,Net-(D1-K)*%
X136700000Y-105400000D03*
%TO.P,C4,2*%
%TO.N,Net-(U1-VS)*%
X131700000Y-105400000D03*
%TD*%
D28*
%TO.P,L1,1,1*%
%TO.N,Vd*%
X177200000Y-83600000D03*
%TO.P,L1,2,2*%
%TO.N,Vout*%
X177200000Y-119600000D03*
%TD*%
D29*
%TO.P,U7,1*%
%TO.N,error*%
X138425000Y-133350000D03*
D14*
%TO.P,U7,2,-*%
%TO.N,Vref*%
X138425000Y-130810000D03*
%TO.P,U7,3,+*%
%TO.N,Net-(U7A-+)*%
X138425000Y-128270000D03*
%TO.P,U7,4,V-*%
%TO.N,GND*%
X138425000Y-125730000D03*
%TO.P,U7,5,+*%
X130805000Y-125730000D03*
%TO.P,U7,6,-*%
%TO.N,Net-(U7B--)*%
X130805000Y-128270000D03*
%TO.P,U7,7*%
X130805000Y-130810000D03*
%TO.P,U7,8,V+*%
%TO.N,VCCPWM*%
X130805000Y-133350000D03*
%TD*%
D15*
%TO.P,R6,1*%
%TO.N,VCCPWM*%
X148000000Y-96110000D03*
D16*
%TO.P,R6,2*%
%TO.N,Net-(U6A--)*%
X148000000Y-88490000D03*
%TD*%
D15*
%TO.P,R14,1*%
%TO.N,Vref*%
X124600000Y-129600000D03*
D16*
%TO.P,R14,2*%
%TO.N,Vin*%
X116980000Y-129600000D03*
%TD*%
D17*
%TO.P,J3,1,Pin_1*%
%TO.N,GND*%
X104900000Y-137500000D03*
%TD*%
D29*
%TO.P,U6,1*%
%TO.N,Net-(U2A--)*%
X138800000Y-96100000D03*
D14*
%TO.P,U6,2,-*%
%TO.N,Net-(U6A--)*%
X138800000Y-93560000D03*
%TO.P,U6,3,+*%
%TO.N,Net-(U2A--)*%
X138800000Y-91020000D03*
%TO.P,U6,4,V-*%
%TO.N,GND*%
X138800000Y-88480000D03*
%TO.P,U6,5,+*%
%TO.N,Net-(U6B-+)*%
X131180000Y-88480000D03*
%TO.P,U6,6,-*%
%TO.N,Net-(U2A--)*%
X131180000Y-91020000D03*
%TO.P,U6,7*%
%TO.N,Triangular*%
X131180000Y-93560000D03*
%TO.P,U6,8,V+*%
%TO.N,VCCPWM*%
X131180000Y-96100000D03*
%TD*%
%TO.P,C3,1*%
%TO.N,Vout*%
X157320601Y-124182332D03*
%TO.P,C3,2*%
%TO.N,GND*%
X152320601Y-124182332D03*
%TD*%
D30*
%TO.P,U1,1,VCC*%
%TO.N,VCCPWM*%
X132295000Y-110190000D03*
D14*
%TO.P,U1,2,IN*%
%TO.N,pwm*%
X132295000Y-112730000D03*
%TO.P,U1,3,~{SD}*%
%TO.N,VCCPWM*%
X132295000Y-115270000D03*
%TO.P,U1,4,COM*%
%TO.N,GND*%
X132295000Y-117810000D03*
%TO.P,U1,5,LO*%
%TO.N,LO*%
X139915000Y-117810000D03*
%TO.P,U1,6,VS*%
%TO.N,Net-(U1-VS)*%
X139915000Y-115270000D03*
%TO.P,U1,7,HO*%
%TO.N,HO*%
X139915000Y-112730000D03*
%TO.P,U1,8,VB*%
%TO.N,Net-(D1-K)*%
X139915000Y-110190000D03*
%TD*%
D15*
%TO.P,R9,1*%
%TO.N,sampling*%
X177200000Y-133210000D03*
D16*
%TO.P,R9,2*%
%TO.N,Vout*%
X177200000Y-125590000D03*
%TD*%
D17*
%TO.P,J5,1,Pin_1*%
%TO.N,pwm*%
X125600000Y-114900000D03*
%TD*%
%TO.P,J14,1,Pin_1*%
%TO.N,cuadrada*%
X107000000Y-93000000D03*
%TD*%
D15*
%TO.P,R5,1*%
%TO.N,Net-(U4-ADJ)*%
X130100000Y-81240000D03*
D16*
%TO.P,R5,2*%
%TO.N,VCCPWM*%
X130100000Y-76160000D03*
%TD*%
D15*
%TO.P,R15,1*%
%TO.N,Net-(U7A-+)*%
X155020000Y-129200000D03*
D16*
%TO.P,R15,2*%
%TO.N,sampling*%
X160100000Y-129200000D03*
%TD*%
D14*
%TO.P,C9,1*%
%TO.N,error*%
X143000000Y-134400000D03*
%TO.P,C9,2*%
%TO.N,Net-(C9-Pad2)*%
X143000000Y-129400000D03*
%TD*%
D17*
%TO.P,J6,1,Pin_1*%
%TO.N,Triangular*%
X117100000Y-116300000D03*
%TD*%
D30*
%TO.P,U2,1*%
%TO.N,cuadrada*%
X114695000Y-99590000D03*
D14*
%TO.P,U2,2,-*%
%TO.N,Net-(U2A--)*%
X114695000Y-102130000D03*
%TO.P,U2,3,+*%
%TO.N,Net-(U2A-+)*%
X114695000Y-104670000D03*
%TO.P,U2,4,V-*%
%TO.N,GND*%
X114695000Y-107210000D03*
%TO.P,U2,5,+*%
%TO.N,error*%
X122315000Y-107210000D03*
%TO.P,U2,6,-*%
%TO.N,Triangular*%
X122315000Y-104670000D03*
%TO.P,U2,7*%
%TO.N,pwm*%
X122315000Y-102130000D03*
%TO.P,U2,8,V+*%
%TO.N,VCCPWM*%
X122315000Y-99590000D03*
%TD*%
D17*
%TO.P,J4,1,Pin_1*%
%TO.N,error*%
X147320000Y-139700000D03*
%TD*%
D15*
%TO.P,R16,1*%
%TO.N,Net-(C7-Pad2)*%
X160239398Y-138620328D03*
D16*
%TO.P,R16,2*%
%TO.N,sampling*%
X160239398Y-133540328D03*
%TD*%
D15*
%TO.P,R7,1*%
%TO.N,Net-(U2A-+)*%
X109600000Y-104640000D03*
D16*
%TO.P,R7,2*%
%TO.N,cuadrada*%
X109600000Y-99560000D03*
%TD*%
D15*
%TO.P,R17,1*%
%TO.N,Net-(C9-Pad2)*%
X143020000Y-126000000D03*
D16*
%TO.P,R17,2*%
%TO.N,Net-(U7A-+)*%
X148100000Y-126000000D03*
%TD*%
D17*
%TO.P,J15,1,Pin_1*%
%TO.N,sampling*%
X177000000Y-139500000D03*
%TD*%
D31*
%TO.P,M3,1,G*%
%TO.N,Vg2*%
X164700000Y-101800000D03*
D32*
%TO.P,M3,2,D*%
%TO.N,Vd*%
X164700000Y-99260000D03*
%TO.P,M3,3,S*%
%TO.N,GND*%
X164700000Y-96720000D03*
%TD*%
D15*
%TO.P,R11,1*%
%TO.N,cuadrada*%
X114600000Y-94400000D03*
D16*
%TO.P,R11,2*%
%TO.N,VCCPWM*%
X122220000Y-94400000D03*
%TD*%
D26*
%TO.P,Rc1,1*%
%TO.N,GND*%
X165100000Y-127000000D03*
%TO.P,Rc1,2*%
%TO.N,Vout*%
X165100000Y-124460000D03*
%TO.P,Rc1,3*%
%TO.N,N/C*%
X165100000Y-121920000D03*
%TD*%
M02*
